# Blender 3.1.1
# www.blender.org
mtllib house.mtl
o Cube
v 5.000000 5.000000 0.000000
v 5.000000 -5.000000 0.000000
v -5.000000 5.000000 0.000000
v -5.000000 -5.000000 0.000000
v 4.482793 -4.482793 0.000000
v 4.482793 4.482793 0.000000
v -4.482793 -4.482793 0.000000
v -4.482793 4.482793 0.000000
v 5.000000 1.632246 3.979348
v 5.000000 5.000000 3.979348
v 1.632246 -5.000000 3.979348
v 5.000000 -5.000000 3.979348
v -5.000000 -5.000000 3.979348
v -1.632246 5.000000 3.979348
v -5.000000 5.000000 3.979348
v -4.482793 -4.482793 3.979348
v 4.482793 1.999463 3.979348
v 4.482793 4.482793 3.979348
v -1.999463 4.482793 3.979348
v -4.482793 4.482793 3.979348
v 1.999463 -4.482793 3.979348
v 4.482793 -4.482793 3.979348
v -5.000000 -4.307900 0.817787
v -5.000000 -4.307900 3.979348
v -5.000000 4.307900 0.000000
v -4.962252 4.307900 0.000000
v -5.000000 -4.307900 0.000000
v -4.492332 -4.307900 0.000000
v -4.482793 -4.307900 0.280252
v -4.482793 -4.307900 3.979348
v -5.000000 4.307900 0.415260
v -5.000000 4.307900 3.979348
v -4.482793 4.307900 0.000000
v -4.482793 -4.307900 0.000000
v -4.482793 4.307900 3.979348
v -4.482793 4.307900 0.107364
v -4.497585 4.307900 3.979348
v -4.514525 -4.307900 3.979348
vn 1.0000 -0.0000 -0.0000
vn -0.0000 -1.0000 -0.0000
vn -1.0000 -0.0000 -0.0000
vn -0.0000 1.0000 -0.0000
vn -0.0000 -0.0000 -1.0000
vn -0.0000 -0.0000 1.0000
vt 0.000000 0.263635
vt 0.263635 0.527271
vt 0.263635 0.000000
vt 0.000000 0.527271
vt 0.000000 0.000000
vt 0.790906 0.000000
vt 0.527271 0.000000
vt 0.263635 0.263635
vt 0.527271 0.000000
vt 0.527271 0.263635
vt 0.263635 0.000000
vt 0.013635 0.013635
vt 0.988943 -0.000256
vt 0.022328 0.011275
vt 0.013635 0.250000
vt 0.011057 -0.000256
vt 0.978568 0.010358
vt 0.977672 0.011276
vt 0.250000 0.013635
vt 0.018229 0.007082
vt 0.981771 0.007082
vt 0.021432 0.010358
vt 0.250000 0.250000
vt 0.174849 0.702120
vt 0.157867 0.655077
vt 0.263635 0.174849
vt 0.263635 0.702120
vt 0.157867 0.717133
vt 0.702120 0.174849
vt 0.219923 0.532867
vt 0.000000 0.702120
vt 0.790906 0.174850
vt 0.157867 0.532867
vt 0.527271 0.174849
vt 0.527271 0.438485
vt 0.342133 0.532867
vt 0.438485 0.174849
vt 0.280077 0.717133
vt 0.527271 0.174850
vt 0.263635 0.438485
vt 0.342133 0.717133
vt 0.977672 0.717986
vt 0.018229 0.719857
vt 0.332602 0.542397
vt 0.281916 0.723130
vt 0.167398 0.661843
vt 0.011057 0.723130
vt 0.978568 0.718395
vt 0.167398 0.707603
vt 0.286544 0.718395
vt 0.286843 0.707602
vt 0.021432 0.718395
vt 0.981771 0.719857
vt 0.332602 0.707602
vt 0.286944 0.717986
vt 0.213157 0.542397
vt 0.022328 0.717986
vt 0.988943 0.723130
vt 0.167398 0.542398
vt 0.509025 0.299568
vt 0.523729 0.265584
vt 0.509025 0.438485
vt 0.342133 0.545620
vt 0.615467 0.265584
vt 0.263635 0.245389
vt 0.281882 0.263635
vt 0.500000 0.984416
vt 0.262640 0.245389
vt 0.500000 0.985511
vt 0.509025 0.263635
vt 0.263635 0.018246
vt 0.500000 0.265584
vt 0.250251 0.018246
vt 0.500000 0.250853
vt 0.037025 0.057280
vt 0.508132 0.250577
vt 0.037025 0.719857
vt 0.332602 0.545620
vt 0.615467 0.250577
vt 0.281882 0.281882
vt 0.512049 0.984416
vt 0.281882 0.438485
vt 0.342133 0.704380
vt 0.615467 0.984416
vt 0.962975 0.007082
vt 0.250000 0.245389
vt 0.500000 0.999423
vt 0.250000 0.018246
vt 0.037025 0.007082
vt 0.500000 0.250577
vt 0.332602 0.704380
vt 0.962975 0.719857
vt 0.615466 0.999423
vt 0.962975 0.026313
vt 0.503115 0.999423
vt 0.332875 0.704380
vt 0.615467 0.998994
vt 0.333187 0.545620
vt 0.615467 0.251497
s 0
usemtl Material.002
f 1/2/1 9/24/1 2/4/1
f 2/6/2 11/29/2 4/9/2
f 13/35/3 23/60/3 4/10/3
f 14/37/4 3/7/4 15/39/4
f 3/8/5 26/68/5 25/65/5
f 7/19/5 27/71/5 28/73/5
f 16/43/1 29/75/1 30/77/1
f 1/1/5 8/23/5 3/8/5
f 4/11/5 5/12/5 2/5/5
f 2/5/5 6/15/5 1/1/5
f 6/16/3 17/45/3 18/47/3
f 8/22/2 19/50/2 20/52/2
f 5/14/4 21/55/4 22/57/4
f 2/4/1 9/24/1 12/31/1
f 4/9/2 11/29/2 13/34/2
f 15/40/3 31/80/3 32/82/3
f 10/26/4 1/3/4 14/37/4
f 8/23/5 26/68/5 3/8/5
f 28/73/5 34/88/5 7/19/5
f 20/53/1 36/94/1 8/21/1
f 1/1/5 6/15/5 8/23/5
f 4/11/5 7/19/5 5/12/5
f 2/5/5 5/12/5 6/15/5
f 5/13/3 22/58/3 17/45/3
f 18/48/2 19/50/2 6/17/2
f 7/18/4 16/42/4 21/55/4
f 22/59/6 21/56/6 11/30/6
f 14/38/6 19/51/6 18/49/6
f 1/2/1 10/27/1 9/24/1
f 2/6/2 12/32/2 11/29/2
f 3/8/3 25/66/3 31/80/3
f 4/10/3 23/60/3 27/70/3
f 14/37/4 1/3/4 3/7/4
f 8/21/1 36/94/1 33/85/1
f 7/20/1 34/89/1 29/75/1
f 6/16/3 5/13/3 17/45/3
f 8/22/2 6/17/2 19/50/2
f 5/14/4 7/18/4 21/55/4
f 20/54/6 19/51/6 14/38/6
f 20/54/6 32/83/6 37/96/6
f 24/63/6 16/44/6 38/98/6
f 35/91/6 20/54/6 37/96/6
f 13/36/6 11/30/6 16/44/6
f 11/30/6 12/33/6 22/59/6
f 16/44/6 11/30/6 21/56/6
f 20/54/6 14/38/6 15/41/6
f 38/98/6 16/44/6 30/78/6
f 12/33/6 9/25/6 22/59/6
f 9/25/6 17/46/6 22/59/6
f 17/46/6 9/25/6 18/49/6
f 9/25/6 10/28/6 18/49/6
f 10/28/6 14/38/6 18/49/6
f 38/99/4 30/79/4 23/61/4
f 31/81/2 26/69/2 36/95/2
f 13/35/3 24/62/3 23/60/3
f 7/19/5 4/11/5 27/71/5
f 16/43/1 7/20/1 29/75/1
f 15/40/3 3/8/3 31/80/3
f 8/23/5 33/86/5 26/68/5
f 20/53/1 35/92/1 36/94/1
f 20/54/6 15/41/6 32/83/6
f 24/63/6 13/36/6 16/44/6
f 30/79/4 29/76/4 23/61/4
f 29/76/4 34/90/4 28/74/4
f 28/74/4 27/72/4 29/76/4
f 27/72/4 23/61/4 29/76/4
f 23/61/4 24/64/4 38/99/4
f 37/97/2 32/84/2 31/81/2
f 31/81/2 25/67/2 26/69/2
f 26/69/2 33/87/2 36/95/2
f 36/95/2 35/93/2 31/81/2
f 35/93/2 37/97/2 31/81/2
