<svg width="103.89" height="52" version="1.1" viewBox="0 0 27.487 13.758" xml:space="preserve" xmlns="http://www.w3.org/2000/svg"><defs><linearGradient id="linearGradient101" x1="54.699" x2="233.25" y1="172.54" y2="172.54" gradientUnits="userSpaceOnUse"><stop stop-color="#00e56e" offset="0"/><stop stop-color="#02e8f7" offset="1"/></linearGradient></defs><g id="int-header-logo-img" transform="matrix(.11429 0 0 .11429 .8288 -11.289)"><path id="int-header-logo-grad" d="m54.754 178.01c-.05732-.14945-.07191-2.7093-.03241-5.6885l.07181-5.4168 88.635-.0401c48.749-.0221 88.903.01 89.231.0712.59491.11122.59531.11506.59531 5.6625v5.5512l-66.212.00075c-36.417.00042-76.556.0302-89.198.0661-15.542.0442-23.02-.0226-23.091-.20633z" fill="url(#linearGradient101)"/><g id="int-header-logo-text" fill="#060e9f"><path d="m24.763 128.27v-5.424h21.96v10.848h-21.96z"/><path d="m93.936 146.51c-7.898-14.489 1.922-31.868 18.007-31.868 4.5374 0 9.9977 1.7121 11.946 3.7457l.7359.76812-8.2807 8.2807-1.5884-.48092c-7.1898-2.1769-14.66 6.0841-11.341 12.542l.46794.91041-4.0398 4.1153c-4.8601 4.951-4.3797 4.7894-5.9072 1.9872z"/><path d="m170.28 135.35 4e-5-19.91h5.6577c6.4268 0 5.9679-.1826 5.9844 2.3812.0124 1.9295.26415 1.9925 1.7617.44109 4.9126-5.0893 14.74-4.9831 19.732.21328l1.5185 1.5804 1.2597-1.2164c5.8097-5.61 17.5-5.7351 22.773-.24372 4.0263 4.1928 4.2729 5.5127 4.2788 22.906l.005 13.758-11.774-.0926-.13229-12.521c-.12445-11.779-.16373-12.595-.66283-13.759-2.2424-5.2289-9.2977-4.9526-12.052.47212l-.91115 1.7945-.0787 11.987c-.0598 9.1084-.1551 11.99-.39688 12-.175.007-2.759.0135-5.7422.0139l-5.424.00078-.1323-12.648-.13229-12.648-.70467-1.5024c-2.2847-4.8712-9.2564-4.0956-11.927 1.327l-.86206 1.7504-.26458 23.766-11.774.0586z"/><path d="m138.91 155.15c-.0609-.0606-.11067-9.0224-.11067-19.915v-19.805l11.509.1426.18328 2.2118c.2291 2.7646.0696 2.7116 2.0597.68417 2.834-2.8872 6.0828-4.0504 10.362-3.7104 2.7601.2193 3.7476.58163 3.5716 1.3105-.0747.30928-.50691 2.6459-.96054 5.1925-.92623 5.1998-.90288 5.147-2.0924 4.7323-3.1535-1.0993-8.2699.29154-10.331 2.8083-2.1287 2.5995-2.1441 2.7061-2.2077 15.283l-.0562 11.109-5.9086.0329c-3.2497.0181-5.9584-.0167-6.0193-.0773z"/><path d="m54.771 155.15c-.06073-.0606-.11042-12.771-.11042-28.244v-28.134h37.306v11.377h-24.606v12.7h18.785v10.848h-18.779l-.13822 21.479-6.1734.0424c-3.3954.0233-6.2231-.007-6.2839-.0678z"/><path d="m-7.1415 155.15c-.06068-.0606-.11034-2.5907-.11034-5.6224v-5.5122h7.9375v-33.867h-7.9375v-11.377h28.84v11.377h-8.206l.1362 33.734 8.0803.1462-.14278 11.128-14.243.0514c-7.8338.0283-14.293.002-14.354-.0589z"/><path d="m109.44 156.95c-3.4483-.41013-9.5674-2.899-9.7267-3.9562-.03176-.2107 1.7633-2.2718 3.9891-4.5803l4.0468-4.1972.90474.493c6.4366 3.5074 15.071-5.0218 12.043-11.896l-.44575-1.0118 3.4262-3.6184c1.8844-1.9901 3.7798-3.9538 4.2119-4.3637l.78576-.74534.57088.72576c5.2853 6.7192 4.6559 18.912-1.3468 26.089-4.2552 5.0875-11.559 7.8814-18.459 7.0608z"/><path d="m212.98 190.2c-.31057-.80934.0167-1.3384.82805-1.3384.69803 0 .79979.10023.87304.85989.0906.93949-1.3669 1.3494-1.7011.47848z"/><path d="m216.76 199.67c-.54092-.54093-.17735-7.6991.3987-7.8498.68441-.17898 1.0124-.0179 1.0124.49727 0 .29663.18397.2652.8599-.14692 2.9694-1.8105 4.6964-.10518 4.6964 4.6375v3.0734l-1.4552-.1674-.13229-2.9988c-.16052-3.6388-.57841-4.2192-2.5091-3.4852-1.013.38516-1.4596 1.7188-1.4596 4.3588 0 2.2455-.50375 2.9884-1.4111 2.0811z"/><path d="m213.21 195.81c.0694-3.8342.0994-4.0349.60221-4.0349.50284 0 .5328.20073.6022 4.0349l.073 4.0349h-1.3505z"/><path d="m206.8 195.9c0-3.2585.0687-3.9668.39687-4.0927.54417-.20882 1.1906.074 1.1906.52086 0 .48061.37991.47034.78794-.0213.41681-.50222 2.078-.81878 2.4331-.46366.52311.52312-.0227 1.3827-.87798 1.3827-1.6713 0-2.3431 1.1699-2.3431 4.0807v2.5339h-1.5875z"/><path d="m170.46 199.67c-.097-.097-.17639-1.577-.17639-3.2889 0-3.0263-.0165-3.1148-.59531-3.197-.84547-.12008-.867-1.4355-.0221-1.3484.48091.0496.60328-.11866.75972-1.0447.25141-1.4881 1.3547-2.5863 2.5982-2.5863 1.8903 0 2.8406.79831 1.8897 1.5875-.31493.26137-.47811.26196-.79032.003-.59295-.49211-1.6994-.1-2.008.71163-.30456.80105-.14227 1.4474.34734 1.3832 1.2637-.16543 1.8244.0323 1.7417.61425-.0677.47637-.29601.62174-1.1429.7276l-1.0583.1323-.0743 3.2411c-.0751 3.2773-.45793 4.0759-1.4691 3.0648z"/><path d="m151.71 196c-.0586-2.8398.008-3.9483.24743-4.1469.42578-.35247 1.1278-.0777 1.1278.44136 0 .53419.14053.51274 1.051-.16043 2.703-1.9984 4.7655.22759 4.7683 5.1464l.001 2.5964-1.7198-.1658v-2.8675c0-5.6783-3.5614-5.5562-3.8364.13157l-.1323 2.7359-1.4276.1648z"/><path d="m130.47 198.98c.0604-.47294.18512-2.982.2772-5.5758.17804-5.015.22912-5.1799 1.4986-4.8386.41285.11101 1.0397.96831 2.0499 2.8034 1.7602 3.1974 1.4136 3.2039 3.3364-.0619 1.4225-2.4161 1.6853-2.7208 2.4089-2.7928l.81222-.0808.1694 4.1818c.0932 2.3.23776 4.8749.3213 5.722l.15188 1.5402-1.7761-.17-.16531-3.9136c-.20193-4.7801-.11745-4.6983-1.8424-1.7845-1.8011 3.0424-1.946 3.0405-3.7284-.049l-1.4076-2.4398-.17882 1.183c-.0983.65065-.18765 2.3341-.19844 3.741-.0237 3.0933-.12056 3.3951-1.0896 3.3951-.69094 0-.74032-.0665-.63902-.8599z"/><path d="m91.914 195.98c-.08636-4.1839.31896-5.3676 1.3212-3.8581l.36921.55607.75056-.55492c.94733-.70039 2.9416-.56127 3.7656.26269 1.2131 1.2131 1.3193 7.2719.12987 7.4088l-.7276.0837-.02637-2.465c-.04117-3.8478-.72068-4.9713-2.5488-4.214-1.2515.51838-1.5911 1.8406-1.6554 6.4454-.0015.10914-.29431.19844-.65063.19844h-.64786z"/><path d="m77.756 199.51c-.13895-.1819-.41012-.74745-.60259-1.2568-.19248-.50933-.80774-2.0213-1.3673-3.36-1.234-2.9523-1.2399-3.0458-.18646-2.9407.79496.0793.87988.20854 1.9663 2.9919 1.1106 2.8453 1.142 2.8916 1.4319 2.1167.31089-.83087 1.9337-5.0014 1.9685-5.0589.11857-.19596 1.1539-.30409 1.4041-.14665.3084.19402-.09358 1.3189-2.4989 6.993-.44401 1.0474-1.5554 1.3949-2.1156.66146z"/><path d="m55.19 199.69c0-.27135 1.6712-4.8385 2.9944-8.1834 1.1506-2.9086 1.1519-2.9104 2.0519-2.9104h.90054l1.2709 3.175c.69901 1.7462 1.4965 3.8298 1.7722 4.6302.2757.80037.69217 1.9092.9255 2.464l.42424 1.0088-1.0027-.0827c-.96332-.0795-1.0232-.14246-1.5265-1.6041l-.52381-1.5214h-4.5119l-.54536 1.5214c-.48976 1.3663-2.2295 2.5388-2.2295 1.5026zm6.6146-4.7885c0-2.7177-1.7236-4.2374-2.4829-2.1891-.90616 2.4447-.9359 2.3661.89539 2.3661.87312 0 1.5875-.0797 1.5875-.17704z"/><path d="m199.52 199.87c-1.3599-.59137-1.5822-1.2088-1.6744-4.6488-.0741-2.7641-.0252-3.2678.33073-3.4044 1.035-.39715 1.2114.027 1.2114 2.9115 0 3.0402.18458 3.6469 1.1859 3.8982 1.8546.46547 2.7788-1.0868 2.7813-4.6715l.001-2.0505h1.5875v7.9375h-.79375c-.52917 0-.79375-.13229-.79375-.39688 0-.50894-.23861-.5024-.81853.0224-.54988.49764-2.2712.72718-3.0179.40245z"/><path d="m193.36 199.83c-.86455-.34733-1.1206-1.2862-1.1206-4.1086 0-2.4566-.0101-2.4963-.63315-2.4963-.34824 0-.70748-.19368-.79832-.43041-.22711-.59183.34007-1.2032.93965-1.0129.4352.13813.49182.002.49182-1.1846 0-1.3133.0162-1.3408.79375-1.3408.76148 0 .79375.0472.79375 1.1623 0 1.2274.25222 1.4835 1.4612 1.4835.72681 0 .98768.30956.76028.90216-.10933.28491-.49401.42075-1.1915.42075h-1.03v2.5042c0 2.8295.38686 3.4429 1.7731 2.8113.75518-.34408 1.1373-.18332 1.1373.47845 0 .88639-1.9963 1.3657-3.3773.81094z"/><path d="m185.12 199.64c-2.7138-1.3838-2.8938-5.6768-.31041-7.4026 1.1706-.78202 3.2389-.8181 4.4533-.0777 1.4293.87147.53641 1.917-.98776 1.1567-2.8477-1.4206-5.0928 2.5602-2.6666 4.728.95419.85257 1.4951.90825 2.7962.28782.86154-.41084.97562-.41296 1.3632-.0254 1.2532 1.2532-2.6238 2.3653-4.6479 1.3332z"/><path d="m175.93 199.84c-3.1799-1.2832-1.0718-5.5195 2.6142-5.2534 1.2995.0938 1.6229-.42388.75529-1.209-.39988-.36189-.7948-.44031-1.6634-.33033-.62649.0793-1.433.18113-1.7923.22624-1.0963.13765-1.0264-.77727.0952-1.2459 2.1178-.88487 4.642-.25745 5.1807 1.2877.99744 2.8613.084 7.5514-1.2173 6.2502-.18672-.18672-.51527-.14564-1.0451.13066-.84664.44151-2.0439.50037-2.9273.14389zm3.1772-1.6089c.51087-.40184.69714-.79067.69714-1.4552v-.90684h-1.3229c-1.4895 0-2.3812.62419-2.3812 1.6669 0 1.3051 1.7248 1.7038 3.007.69517z"/><path d="m162.45 199.86c-1.6396-.70218-2.7007-7.6325-1.2272-8.0147 1.0183-.26411 1.1244.0107 1.1285 2.9247.004 3.0219.0606 3.2294 1.0121 3.7308 1.721.90685 2.7293-.49175 2.8993-4.0213.13013-2.7024.2456-2.983 1.114-2.7074.49503.15711.5268.40549.5268 4.1181v3.9509h-.79375c-.52917 0-.79375-.13229-.79375-.39688 0-.50894-.2386-.5024-.81853.0224-.557.50408-2.272.7254-3.0475.39327z"/><path d="m144.05 199.7c-2.936-1.595-.11481-5.9148 3.3027-5.0571.81112.20358 1.022-.0308.65521-.72804-.54647-1.0387-1.6297-1.2457-3.3202-.63444-.87926.31794-1.3751.0798-1.3894-.66719-.016-.83638 3.7026-1.2646 5.0283-.57907 1.165.60242 1.3176 1.1365 1.3176 4.6101v3.1924h-.63941c-.35168 0-.68434-.1348-.73926-.29956-.069-.20713-.35752-.16631-.93495.13229-1.0193.52712-2.344.53949-3.2807.0306zm3.3945-1.497c.40203-.37768.61237-.87754.61237-1.4552 0-1.5986-3.1793-1.1798-3.5765.4711-.34888 1.45 1.7326 2.1411 2.9642.98411z"/><path d="m119.88 199.85c-4.2209-1.7459-1.9105-8.7475 2.6789-8.1184l1.1576.15866v-3.4295h1.5875v11.377h-.7717c-.42443 0-.81885-.14144-.87647-.31431-.0743-.22291-.29018-.18444-.74238.13229-.67068.46977-2.1398.56381-3.0334.19418zm2.7576-1.4568c1.3664-.70659 1.6389-4.7055.35397-5.1941-1.8964-.72101-3.5085.53015-3.5085 2.723 0 2.4139 1.2983 3.4309 3.1545 2.4711z"/><path d="m111.02 199.64c-2.8416-1.4276-2.9033-6.2326-.0976-7.5976 1.977-.96184 4.2402-.17524 5.129 1.7826 1.0201 2.2472.95182 2.3096-2.5231 2.3096-2.793 0-3.0427.0405-3.0427.49349 0 1.5988 2.1847 2.5599 3.9795 1.7506.82288-.37107 1.1149-.40095 1.4227-.14555 1.464 1.215-2.7979 2.4467-4.8677 1.4068zm3.6989-5.0096c0-1.5196-2.4013-2.2039-3.5839-1.0213-1.1863 1.1863-.90544 1.4672 1.4672 1.4672 1.8086 0 2.1167-.0649 2.1167-.44597z"/><path d="m102.66 199.61c-2.872-1.7514-2.7218-6.0704.26518-7.6238 1.8273-.95033 5.4828.26407 4.3137 1.4331-.42976.42976-.49719.42982-1.223.001-1.9994-1.181-3.8747.17036-3.6695 2.6443.18497 2.2304 1.6384 3.1972 3.4876 2.3198 1.7082-.81059 2.4752.22971.88447 1.1996-1.1085.67588-2.973.6878-4.0584.026z"/><path d="m84.11 199.59c-2.5169-1.5346-.93144-4.8031 2.3947-4.9369 1.749-.0704 2.1618-.45411 1.3555-1.2603-.50963-.50963-1.7298-.55324-2.9665-.10603-.87926.31794-1.3751.0798-1.3893-.66719-.01599-.83638 3.7026-1.2646 5.0283-.57907 1.165.60242 1.3176 1.1365 1.3176 4.6101v3.1924h-.64584c-.35521 0-.715-.1119-.79953-.24867-.0911-.1474-.525-.0935-1.0655.13229-1.241.51851-2.2233.47697-3.2295-.13658zm3.4557-1.3538c.51087-.40184.69714-.79067.69714-1.4552v-.90684h-1.2723c-1.4499 0-2.066.36126-2.3042 1.351-.34511 1.4344 1.5121 2.0865 2.8794 1.011z"/><path d="m67.969 199.59c-3.5965-2.1929-1.4742-8.246 2.7532-7.8525l1.377.12816.07824-1.6333c.07486-1.5627.10968-1.6369.80585-1.717l.7276-.0837v11.412h-.60854c-.3347 0-.74138-.13284-.90374-.29521-.21722-.21721-.45644-.18226-.90554.1323-.82444.57746-2.2937.53725-3.324-.091zm3.4654-1.4636c.67011-.62104.70679-.77743.63395-2.7029l-.07732-2.0437-.85109-.2433c-1.7411-.49773-3.25.82323-3.25 2.8453 0 2.4212 1.9638 3.6094 3.5444 2.1445z"/><path d="m226.71 202.96c-.69169-.33359-.7201-.46363-.24364-1.1152.28723-.39281.45374-.42632.90865-.18286 1.6913.90517 3.6721.0632 3.9514-1.6796l.16851-1.0516-.69642.45631c-1.8905 1.2387-4.6433.19058-5.2309-1.9916-1.0586-3.9312 2.1639-6.6615 6.4557-5.4697l1.0138.2815-.1754 9.2652-.9883.90524c-1.0662.97657-3.7242 1.2763-5.1633.58231zm4.0469-5.089c.57407-.57407.64943-.87972.64943-2.6338v-1.9844l-.95548-.17925c-2.0739-.38907-3.7825 1.3849-3.3833 3.5128.36297 1.9348 2.348 2.6261 3.6893 1.2848z"/><path d="m161.35 214.59c.0728-4.0231.83925-5.9796 1.441-3.6785.13754.52597.14594.52616.97289.0219.85674-.52241 2.1531-.68055 2.3933-.29194.34928.56514-.18319 1.3688-.90688 1.3688-1.8639 0-2.372.90403-2.372 4.2202v2.3944h-1.6013z"/><path d="m145.88 218.43c-.41865-.88044.15261-8.0036.64187-8.0036.29985 0 .58687.22083.6624.50962.1315.50288.1443.50289.96741.00099 1.7788-1.0846 4.6496-.15235 4.6792 1.5196.0195 1.1047.0271 5.5357.01 5.8412-.11492 2.0509-1.3414.0708-1.3414-2.1656 0-6.1783-3.8242-6.324-4.164-.15861-.13935 2.5288-.85037 3.7289-1.4554 2.4565z"/><path d="m113.4 212.94v-5.6885h1.5875v4.2717l.69714-.54837c2.6995-2.1234 4.8591-.0686 4.8591 4.6234v3.0303h-1.5875v-2.9104c0-3.1407-.33484-3.9688-1.6049-3.9688-1.682 0-2.3639 1.2936-2.3639 4.4848v2.3944h-1.5875z"/><path d="m99.64 214.54c0-4.2928.3873-5.3377 1.3274-3.5811l.28767.53753.68336-.53753c.79972-.62907 2.4641-.73869 2.4641-.16229 0 .86225-.3401 1.2123-1.1779 1.2123-1.4708 0-1.8451.7117-1.9971 3.7967l-.13229 2.6856-1.4552.1674z"/><path d="m56.195 218.44c-.05665-.11748-.09766-2.6544-.09113-5.6376l.01187-5.424 2.5273-.0751c4.5141-.13413 6.765 3.0654 3.9352 5.5938l-.86556.77338 1.1982 2.3382c1.2924 2.5219 1.2986 2.6145.17485 2.6145-.67569 0-.86116-.22732-1.9429-2.3812l-1.1959-2.3812h-2.0908l-.07645 2.3151c-.07279 2.2042-.98504 3.5076-1.5847 2.2641zm5.1463-6.6306c1.4704-1.3079.10015-3.2402-2.2977-3.2402h-1.208v1.808c0 .9944.04955 1.8576.11011 1.9182.27193.27225 2.9787-.11513 3.3956-.48596z"/><path d="m168.78 218.36c-2.6886-1.3699-2.9101-5.6458-.38-7.336 2.4464-1.6343 5.546-.0708 5.8903 2.9713l.0898.79375-3.1088.0745c-3.4238.0821-3.3841.059-2.453 1.4293.98825 1.4543 2.9929 1.5899 4.0189.2717.3301-.42411.37728-.42027.74916.061 1.2552 1.6243-2.4198 2.9505-4.8064 1.7345zm3.6702-4.7953c.58927-.36418-.62678-1.6723-1.6478-1.7725-1.4801-.14527-3.4475 1.5671-2.1636 1.8832.75587.18606 3.4582.1076 3.8114-.11067z"/><path d="m156.87 218.62c-.91767-.36974-1.2197-1.2669-1.3521-4.0166-.11406-2.3687-.16727-2.5746-.68429-2.6484-.81553-.11638-.78626-1.3709.0347-1.4875.51506-.0731.59531-.24257.59531-1.2568 0-1.1261.0312-1.1722.79375-1.1722.76283 0 .79375.0458.79375 1.1754v1.1754l1.1245.0814c1.6614.12021 1.7208 1.3953.0661 1.4203l-1.0583.016-.0842 1.4392c-.18525 3.1646.50074 4.6503 1.821 3.9437.55043-.29458 1.306.0316 1.306.56382 0 .71644-2.2212 1.2236-3.3561.7663z"/><path d="m139.15 218.6c-2.5942-.75105-3.5483-5.0336-1.5637-7.0183 2.4802-2.4802 6.5027-.92143 6.5027 2.5199v.81991h-3.0427c-1.6735 0-3.0427.0752-3.0427.1672 0 1.9692 3.1952 3.0254 4.6751 1.5455.42157-.42157.46938-.41987.7971.0283 1.0564 1.4446-1.725 2.6904-4.3258 1.9374zm3.261-5.1471c.44582-1.1618-2.2277-2.2458-3.372-1.3672-.68935.52926-1.0912 1.446-.70256 1.603.85585.34573 3.9194.16843 4.0746-.23581z"/><path d="m128.92 218.52c-4.959-1.8462-4.6615-9.5015.44354-11.415 2.606-.97696 7.4463 1.583 5.2329 2.7675-.38799.20765-.62272.12522-1.1048-.38796-2.3709-2.5237-6.3365-.43121-6.339 3.3449-.002 3.6154 3.2634 5.5567 5.9268 3.523 1.0258-.78327 1.3103-.89067 1.6383-.61847 1.8248 1.5145-2.9937 3.8302-5.7977 2.7863z"/><path d="m107.71 218.7c-3.8448-.93404-3.6516-7.263.25161-8.2459 2.1896-.55136 4.7179.77105 3.4639 1.8118-.30541.25347-.51004.23272-.98491-.0999-2.4145-1.6912-5.0023 1.3756-3.391 4.0185.8776 1.4394 2.3649 1.6564 3.6143.52733.56966-.51477.57433-.51447.88027.0572.74495 1.392-1.4672 2.506-3.8342 1.9309z"/><path d="m92.496 218.72c-3.3767-1.3348-1.7915-5.3812 2.1082-5.3812 1.3888 0 1.7862-.49772 1.0139-1.27-.39386-.39386-2.4431-.4163-3.1564-.0346-.53266.28507-1.2886-.0512-1.2886-.57313 0-.50185 1.6358-1.0327 3.1822-1.0327 2.7442 0 3.1678.65177 3.1678 4.8744v3.3276h-.63941c-.35168 0-.69331-.14882-.75918-.33073-.09517-.2628-.23318-.26382-.67195-.005-.66542.39256-2.4059.6429-2.9565.42524zm2.3959-1.4203c.63662-.3407 1.3945-1.7671 1.2034-2.265-.23691-.61738-2.6853-.49328-3.3483.1697-1.2437 1.2437.51889 2.9655 2.1449 2.0953z"/><path d="m84.087 218.38c-1.9968-.932-2.807-3.9785-1.6198-6.0909 1.8894-3.3618 7.1188-1.9193 7.1188 1.9637v.66996h-3.0427c-3.4325 0-3.6221.1369-2.276 1.6435.99074 1.1088 2.5392 1.2042 3.586.22082.66404-.62383.68643-.62649 1.0648-.12628 1.1806 1.5607-2.4231 2.8432-4.8311 1.7193zm3.8454-4.7634c.75938-.19321-1.084-1.8689-2.0559-1.8689-1.4659 0-2.9263 1.3309-2.0725 1.8887.26186.17107 3.438.15584 4.1284-.0198z"/><path d="m75.464 218.5c-1.4541-.5183-1.6168-.75654-1.0784-1.5782.4533-.69181.46604-.69432 1.0168-.2 1.1316 1.0156 3.16 1.0213 3.481.01.23943-.75436-.27386-1.2054-1.9145-1.6824-2.673-.77707-3.4551-2.3539-1.9258-3.8831 1.4303-1.4304 6.0013-.75634 4.9045.7232-.32644.44035-.46377.46803-.92504.1864-.75156-.45887-2.5277-.41878-2.9301.0661-.50705.61096.07573 1.1103 1.8901 1.6193 1.7315.48583 2.6079 1.312 2.6079 2.4585 0 2.053-2.5642 3.1936-5.1264 2.2803z"/><path d="m67.493 218.52c-1.6578-.73682-2.6978-2.7412-2.4358-4.6945.62864-4.6868 7.5952-4.4306 7.5952.27936v.81991h-3.0427c-3.3661 0-3.3173-.0277-2.3661 1.3448 1.0022 1.4462 2.7511 1.583 4.1423.3239.41647-.3769.48172-.35093.78376.31199.65516 1.4379-2.5694 2.5512-4.6767 1.6146zm2.8443-4.8866c.87664-.038.92576-.44796.15232-1.2712-.88079-.93755-2.3572-.84467-3.2394.20379-1.0097 1.2-.89398 1.24 3.0871 1.0675z"/></g></g></svg>
