<svg width="18" height="22" viewBox="0 0 18 22" fill="none" xmlns="http://www.w3.org/2000/svg">
<path d="M13.6035 21.8892H3.50406C2.91291 21.8877 2.34638 21.6523 1.92836 21.2343C1.51035 20.8162 1.27488 20.2497 1.27344 19.6586V3.92745C1.27344 3.71049 1.35963 3.5024 1.51305 3.34898C1.66647 3.19556 1.87455 3.10938 2.09152 3.10938H15.0172C15.2341 3.10938 15.4422 3.19556 15.5956 3.34898C15.749 3.5024 15.8352 3.71049 15.8352 3.92745V19.6586C15.8338 20.2499 15.5982 20.8166 15.1799 21.2346C14.7617 21.6527 14.1949 21.888 13.6035 21.8892ZM2.90959 4.74553V19.6586C2.90974 19.8162 2.97242 19.9673 3.08387 20.0787C3.19532 20.1902 3.34645 20.2529 3.50406 20.253H13.6035C13.7612 20.253 13.9125 20.1904 14.0241 20.0789C14.1356 19.9675 14.1984 19.8163 14.1985 19.6586V4.74553H2.90959Z" fill="#8B8F93"/>
<path d="M11.9868 4.74431H5.11495C4.89799 4.74431 4.6899 4.65812 4.53648 4.5047C4.38307 4.35128 4.29688 4.1432 4.29688 3.92623V2.43951C4.29774 1.79268 4.55511 1.1726 5.01254 0.71528C5.46997 0.257955 6.0901 0.000721487 6.73693 0H10.3648C11.0117 0.000721487 11.6318 0.257955 12.0892 0.71528C12.5467 1.1726 12.804 1.79268 12.8049 2.43951V3.92623C12.8049 4.1432 12.7187 4.35128 12.5653 4.5047C12.4119 4.65812 12.2038 4.74431 11.9868 4.74431ZM5.93303 3.10815H11.1687V2.43951C11.1684 2.22644 11.0836 2.02219 10.9329 1.87158C10.7822 1.72097 10.5779 1.6363 10.3648 1.63616H6.73693C6.52396 1.63645 6.31979 1.72118 6.16919 1.87177C6.0186 2.02237 5.93387 2.22654 5.93358 2.43951L5.93303 3.10815Z" fill="#8B8F93"/>
<path d="M8.55245 18.7582C8.33549 18.7582 8.1274 18.6721 7.97398 18.5186C7.82057 18.3652 7.73438 18.1571 7.73438 17.9402V7.06027C7.73438 6.8433 7.82057 6.63522 7.97398 6.4818C8.1274 6.32838 8.33549 6.24219 8.55245 6.24219C8.76942 6.24219 8.9775 6.32838 9.13092 6.4818C9.28434 6.63522 9.37053 6.8433 9.37053 7.06027V17.9402C9.37053 18.1571 9.28434 18.3652 9.13092 18.5186C8.9775 18.6721 8.76942 18.7582 8.55245 18.7582Z" fill="#8B8F93"/>
<path d="M5.59152 18.7582C5.37455 18.7582 5.16647 18.6721 5.01305 18.5186C4.85963 18.3652 4.77344 18.1571 4.77344 17.9402V7.06027C4.77344 6.8433 4.85963 6.63522 5.01305 6.4818C5.16647 6.32838 5.37455 6.24219 5.59152 6.24219C5.80848 6.24219 6.01657 6.32838 6.16999 6.4818C6.3234 6.63522 6.40959 6.8433 6.40959 7.06027V17.9402C6.40959 18.1571 6.3234 18.3652 6.16999 18.5186C6.01657 18.6721 5.80848 18.7582 5.59152 18.7582Z" fill="#8B8F93"/>
<path d="M11.4978 18.7582C11.2808 18.7582 11.0727 18.6721 10.9193 18.5186C10.7659 18.3652 10.6797 18.1571 10.6797 17.9402V7.06027C10.6797 6.8433 10.7659 6.63522 10.9193 6.4818C11.0727 6.32838 11.2808 6.24219 11.4978 6.24219C11.7147 6.24219 11.9228 6.32838 12.0762 6.4818C12.2297 6.63522 12.3158 6.8433 12.3158 7.06027V17.9402C12.3158 18.1571 12.2297 18.3652 12.0762 18.5186C11.9228 18.6721 11.7147 18.7582 11.4978 18.7582Z" fill="#8B8F93"/>
<path d="M16.2792 4.74553H0.818078C0.601111 4.74553 0.393029 4.65934 0.23961 4.50592C0.0861904 4.3525 0 4.14442 0 3.92745C0 3.71049 0.0861904 3.5024 0.23961 3.34898C0.393029 3.19556 0.601111 3.10938 0.818078 3.10938H16.2792C16.4962 3.10938 16.7043 3.19556 16.8577 3.34898C17.0111 3.5024 17.0973 3.71049 17.0973 3.92745C17.0973 4.14442 17.0111 4.3525 16.8577 4.50592C16.7043 4.65934 16.4962 4.74553 16.2792 4.74553Z" fill="#8B8F93"/>
</svg>
