<?xml version="1.0" encoding="utf-8"?>
<!-- Generator: Adobe Illustrator 27.9.6, SVG Export Plug-In . SVG Version: 9.03 Build 54986)  -->
<svg version="1.1" id="Layer_1" xmlns="http://www.w3.org/2000/svg" xmlns:xlink="http://www.w3.org/1999/xlink" x="0px" y="0px"
	 viewBox="0 0 176.19 90.35" style="enable-background:new 0 0 176.19 90.35;" xml:space="preserve">
<style type="text/css">
	.st0{fill:none;stroke:#BCBEC0;stroke-miterlimit:10;}
	.st1{fill:#BCBEC0;}
	.st2{fill:none;}
	.st3{clip-path:url(#SVGID_00000165928501501037704410000014817299831636057738_);fill:none;}
	.st4{clip-path:url(#SVGID_00000155139158987606451120000005278437504085892770_);}
	.st5{clip-path:url(#SVGID_00000076601648707087821430000010286373433349861014_);fill:none;}
	.st6{clip-path:url(#SVGID_00000123431421346238820460000000844273818982290070_);}
	.st7{clip-path:url(#SVGID_00000046322220688531954520000003847361075281578894_);fill:none;}
	.st8{clip-path:url(#SVGID_00000178201959041058207220000018315959159791818428_);}
	.st9{fill:none;stroke:#000000;stroke-width:1.000000e-06;stroke-miterlimit:10;stroke-opacity:0;}
	.st10{clip-path:url(#SVGID_00000078754763002459716450000008176337125566334649_);fill:none;}
	.st11{clip-path:url(#SVGID_00000016038039239079236060000013453872110506187913_);}
	.st12{clip-path:url(#SVGID_00000038377953265794213230000005599651671638813076_);fill:none;}
	.st13{clip-path:url(#SVGID_00000018236222807693912350000004398310084250755979_);}
	
		.st14{clip-path:url(#SVGID_00000132088480388515444420000008008062218578910598_);fill:none;stroke:#000000;stroke-width:1.000000e-06;stroke-miterlimit:10;stroke-opacity:0;}
	.st15{clip-path:url(#SVGID_00000171697165069212689260000013813949493563862940_);fill:none;}
	
		.st16{clip-path:url(#SVGID_00000116222086879052620950000012179729492577757577_);fill:none;stroke:#000000;stroke-width:1.000000e-06;stroke-miterlimit:10;stroke-opacity:0;}
	.st17{clip-path:url(#SVGID_00000071540479866679442580000002918178471782490287_);fill:none;}
	
		.st18{clip-path:url(#SVGID_00000095331327969818289930000012210683348411035830_);fill:none;stroke:#000000;stroke-width:1.000000e-06;stroke-miterlimit:10;stroke-opacity:0;}
	
		.st19{clip-path:url(#SVGID_00000046338290220013430180000014195571215884278952_);fill:none;stroke:#000000;stroke-width:1.000000e-06;stroke-miterlimit:10;stroke-opacity:0;}
	
		.st20{clip-path:url(#SVGID_00000160882672680784204660000015836569294425902492_);fill:none;stroke:#000000;stroke-width:1.000000e-06;stroke-miterlimit:10;stroke-opacity:0;}
	.st21{clip-path:url(#SVGID_00000174579994711818996750000007374957273590455973_);fill:#E4E4E3;}
	
		.st22{clip-path:url(#SVGID_00000084498221797416471290000005152612766706523034_);fill:none;stroke:#000000;stroke-width:1.000000e-06;stroke-miterlimit:10;stroke-opacity:0;}
	.st23{clip-path:url(#SVGID_00000088818182704331867350000007812893660309678472_);fill:#E4E4E3;}
	
		.st24{clip-path:url(#SVGID_00000169549538108351367050000009814826892721549460_);fill:none;stroke:#000000;stroke-width:1.000000e-06;stroke-miterlimit:10;stroke-opacity:0;}
	.st25{clip-path:url(#SVGID_00000134240485457378255730000008017590408877609097_);fill:#E4E4E3;}
	.st26{clip-path:url(#SVGID_00000106126735928550979990000011129455979307371192_);fill:#E4E4E3;}
	
		.st27{clip-path:url(#SVGID_00000183245961533532420800000013172578646124279969_);fill:none;stroke:#000000;stroke-width:1.000000e-06;stroke-miterlimit:10;stroke-opacity:0;}
	.st28{clip-path:url(#SVGID_00000101809907944295649340000010382750907884294066_);fill:#E4E4E3;}
	
		.st29{clip-path:url(#SVGID_00000150785082932217776620000015861566644874262970_);fill:none;stroke:#000000;stroke-width:1.000000e-06;stroke-miterlimit:10;stroke-opacity:0;}
	.st30{clip-path:url(#SVGID_00000031928535351864742120000006443038521358577852_);fill:#E4E4E3;}
	.st31{clip-path:url(#SVGID_00000096769431531015571610000004139460739392631724_);fill:#E4E4E3;}
	.st32{clip-path:url(#SVGID_00000064342520705729915410000002677523334493350022_);fill:#E4E4E3;}
	.st33{opacity:0;fill:none;stroke:#000000;stroke-width:1.000000e-06;stroke-miterlimit:10;}
	
		.st34{opacity:0;clip-path:url(#SVGID_00000072996778930487013570000000424138247594431364_);fill:none;stroke:#000000;stroke-width:1.000000e-06;stroke-miterlimit:10;}
	.st35{clip-path:url(#SVGID_00000072996778930487013570000000424138247594431364_);fill:#E4E4E4;}
</style>
<line class="st0" x1="49.5" y1="39.62" x2="32.56" y2="39.62"/>
<g>
	<circle class="st1" cx="59.69" cy="43.93" r="11.19"/>
</g>
<g>
	<path class="st1" d="M32.56,56.4c0,2.2-1.8,4-4,4h-3.95c-2.2,0-4-1.8-4-4V34.17c0-2.2,1.8-4,4-4h3.95c2.2,0,4,1.8,4,4V56.4z"/>
</g>
<line class="st0" x1="49.5" y1="48.21" x2="32.56" y2="48.21"/>
<line class="st0" x1="85.81" y1="39.63" x2="69.87" y2="39.63"/>
<line class="st0" x1="85.81" y1="48.23" x2="69.87" y2="48.23"/>
<polygon class="st2" points="56.91,42.11 56.91,42.11 56.91,42.11 56.91,42.11 56.91,42.11 56.91,42.11 56.91,42.11 56.91,42.11 
	56.91,42.11 56.91,42.11 56.91,42.11 56.91,42.11 56.91,42.11 56.91,42.11 56.91,42.11 56.91,42.11 56.91,42.11 56.91,42.11 
	56.91,42.11 56.91,42.11 56.91,42.11 56.91,42.11 56.91,42.11 56.91,42.11 56.91,42.11 56.91,42.11 56.91,42.11 56.91,42.11 
	56.91,42.11 56.91,42.11 56.91,42.11 56.91,42.11 56.91,42.11 56.91,42.11 56.91,42.11 56.91,42.11 56.91,42.11 56.91,42.11 
	56.91,42.11 56.91,42.11 56.91,42.11 56.91,42.11 56.91,42.11 56.91,42.11 56.91,42.11 56.91,42.11 56.91,42.11 56.91,42.11 
	56.91,42.11 56.91,42.11 56.91,42.11 56.91,42.11 56.91,42.11 56.91,42.11 56.91,42.11 56.91,42.11 56.91,42.11 56.91,42.11 
	56.91,42.11 56.91,42.11 56.91,42.11 56.91,42.11 56.91,42.11 56.91,42.11 56.91,42.11 56.91,42.11 56.91,42.11 56.91,42.11 
	56.91,42.11 56.91,42.11 56.91,42.11 56.91,42.11 56.91,42.11 56.91,42.11 56.91,42.11 56.91,42.11 56.91,42.11 56.91,42.11 
	56.91,42.11 56.91,42.11 56.91,42.11 56.91,42.11 56.91,42.11 56.91,42.11 "/>
<polygon class="st2" points="157.79,49.98 157.79,49.98 157.79,49.98 157.79,49.98 157.79,49.98 157.79,49.98 157.79,49.98 
	157.79,49.98 157.79,49.98 157.79,49.98 157.79,49.98 157.79,49.98 157.79,49.98 157.79,49.98 157.79,49.98 157.79,49.98 
	157.79,49.98 157.79,49.98 157.79,49.98 157.79,49.98 157.79,49.98 157.79,49.98 157.79,49.98 157.79,49.98 157.79,49.98 
	157.79,49.98 157.79,49.98 157.79,49.98 157.79,49.98 157.79,49.98 157.79,49.98 157.79,49.98 157.79,49.98 157.79,49.98 
	157.79,49.98 157.79,49.98 157.79,49.98 157.79,49.98 157.79,49.98 157.79,49.98 157.79,49.98 157.79,49.98 157.79,49.98 
	157.79,49.98 157.79,49.98 157.79,49.98 157.79,49.98 157.79,49.98 157.79,49.98 157.79,49.98 157.79,49.98 157.79,49.98 
	157.79,49.98 157.79,49.98 157.79,49.98 157.79,49.98 157.79,49.98 157.79,49.98 157.79,49.98 157.79,49.98 157.79,49.98 
	157.79,49.98 157.79,49.98 157.79,49.98 157.79,49.98 157.79,49.98 157.79,49.98 157.79,49.98 157.79,49.98 157.79,49.98 
	157.79,49.98 157.79,49.98 157.79,49.98 157.79,49.98 157.79,49.98 157.79,49.98 157.79,49.98 157.79,49.98 157.79,49.98 
	157.79,49.98 157.79,49.98 157.79,49.98 157.79,49.98 157.79,49.98 "/>
<polygon class="st2" points="59.38,43.75 59.38,43.75 59.38,43.75 59.38,43.75 59.38,43.75 59.38,43.75 59.38,43.75 59.38,43.75 
	59.38,43.75 59.38,43.75 59.38,43.75 59.38,43.75 59.38,43.75 59.38,43.75 59.38,43.75 59.38,43.75 59.38,43.75 59.38,43.75 
	59.38,43.75 59.38,43.75 59.38,43.75 59.38,43.75 59.38,43.75 59.38,43.75 59.38,43.75 59.38,43.75 59.38,43.75 59.38,43.75 
	59.38,43.75 59.38,43.75 59.38,43.75 59.38,43.75 59.38,43.75 59.38,43.75 59.38,43.75 59.38,43.75 59.38,43.75 59.38,43.75 
	59.38,43.75 59.38,43.75 59.38,43.75 59.38,43.75 59.38,43.75 59.38,43.75 59.38,43.75 59.38,43.75 59.38,43.75 59.38,43.75 
	59.38,43.75 59.38,43.75 59.38,43.75 59.38,43.75 59.38,43.75 59.38,43.75 59.38,43.75 59.38,43.75 59.38,43.75 59.38,43.75 
	59.38,43.75 59.38,43.75 59.38,43.75 59.38,43.75 59.38,43.75 59.38,43.75 59.38,43.75 59.38,43.75 59.38,43.75 59.38,43.75 
	59.38,43.75 59.38,43.75 59.38,43.75 59.38,43.75 59.38,43.75 59.38,43.75 59.38,43.75 59.38,43.75 59.38,43.75 59.38,43.75 
	59.38,43.75 59.38,43.75 59.38,43.75 59.38,43.75 59.38,43.75 59.38,43.75 "/>
<g>
	<g>
		<defs>
			<rect id="SVGID_1_" x="55.4" y="40.27" width="7.97" height="6.64"/>
		</defs>
		<clipPath id="SVGID_00000036243949904274062910000011066272134621100938_">
			<use xlink:href="#SVGID_1_"  style="overflow:visible;"/>
		</clipPath>
		<path style="clip-path:url(#SVGID_00000036243949904274062910000011066272134621100938_);fill:none;" d="M59.38,43.59L59.38,43.59
			z"/>
	</g>
	<g>
		<defs>
			<rect id="SVGID_00000150099236729517427080000000177308238288852144_" x="55.4" y="40.27" width="7.97" height="6.64"/>
		</defs>
		<clipPath id="SVGID_00000059276530591842558830000012902957265176587702_">
			<use xlink:href="#SVGID_00000150099236729517427080000000177308238288852144_"  style="overflow:visible;"/>
		</clipPath>
		<path style="clip-path:url(#SVGID_00000059276530591842558830000012902957265176587702_);" d="M59.96,42.94l-0.78-1.84
			c-0.03-0.07-0.05-0.11-0.05-0.12c0-0.06,0.16-0.23,0.55-0.27c0.09-0.01,0.18-0.02,0.18-0.18c0-0.11-0.11-0.11-0.14-0.11
			c-0.38,0-0.78,0.03-1.17,0.03c-0.23,0-0.81-0.03-1.04-0.03c-0.06,0-0.17,0-0.17,0.19c0,0.1,0.09,0.1,0.21,0.1
			c0.56,0,0.61,0.09,0.69,0.3l1.09,2.58l-1.95,2.1l-0.12,0.1c-0.45,0.49-0.89,0.64-1.36,0.67c-0.12,0.01-0.2,0.01-0.2,0.19
			c0,0.01,0,0.1,0.12,0.1c0.28,0,0.58-0.03,0.87-0.03c0.34,0,0.7,0.03,1.04,0.03c0.06,0,0.17,0,0.17-0.19c0-0.09-0.09-0.1-0.11-0.1
			c-0.08-0.01-0.37-0.03-0.37-0.29c0-0.15,0.14-0.3,0.25-0.42l0.94-1l0.83-0.91l0.94,2.21c0.04,0.1,0.05,0.11,0.05,0.13
			c0,0.07-0.18,0.23-0.54,0.27c-0.1,0.01-0.19,0.02-0.19,0.18c0,0.11,0.1,0.11,0.14,0.11c0.26,0,0.91-0.03,1.17-0.03
			c0.23,0,0.8,0.03,1.03,0.03c0.06,0,0.18,0,0.18-0.18c0-0.11-0.09-0.11-0.17-0.11c-0.62-0.01-0.64-0.04-0.8-0.41
			c-0.36-0.86-0.98-2.31-1.19-2.86c0.63-0.65,1.6-1.75,1.9-2.01c0.27-0.22,0.62-0.44,1.18-0.47c0.12-0.01,0.2-0.01,0.2-0.18
			c0-0.01,0-0.1-0.12-0.1c-0.28,0-0.58,0.03-0.87,0.03c-0.34,0-0.69-0.03-1.03-0.03c-0.06,0-0.18,0-0.18,0.19
			c0,0.06,0.05,0.09,0.11,0.1c0.08,0.01,0.37,0.03,0.37,0.29c0,0.13-0.1,0.25-0.18,0.33L59.96,42.94"/>
	</g>
</g>
<line class="st0" x1="20.61" y1="39.63" x2="4.67" y2="39.63"/>
<line class="st0" x1="20.61" y1="48.23" x2="4.67" y2="48.23"/>
<polygon class="st2" points="27.72,46.77 27.72,46.77 27.72,46.77 27.72,46.77 27.72,46.77 27.72,46.77 27.72,46.77 27.72,46.77 
	27.72,46.77 27.72,46.77 27.72,46.77 27.72,46.77 27.72,46.77 27.72,46.77 27.72,46.77 27.72,46.77 27.72,46.77 27.72,46.77 
	27.72,46.77 27.72,46.77 27.72,46.77 27.72,46.77 27.72,46.77 27.72,46.77 27.72,46.77 27.72,46.77 27.72,46.77 27.72,46.77 
	27.72,46.77 27.72,46.77 27.72,46.77 27.72,46.77 27.72,46.77 27.72,46.77 27.72,46.77 27.72,46.77 27.72,46.77 27.72,46.77 
	27.72,46.77 27.72,46.77 27.72,46.77 27.72,46.77 27.72,46.77 27.72,46.77 27.72,46.77 27.72,46.77 27.72,46.77 27.72,46.77 
	27.72,46.77 27.72,46.77 27.72,46.77 27.72,46.77 27.72,46.77 27.72,46.77 27.72,46.77 27.72,46.77 27.72,46.77 27.72,46.77 
	27.72,46.77 27.72,46.77 27.72,46.77 27.72,46.77 27.72,46.77 27.72,46.77 27.72,46.77 27.72,46.77 27.72,46.77 27.72,46.77 
	27.72,46.77 27.72,46.77 27.72,46.77 27.72,46.77 27.72,46.77 27.72,46.77 27.72,46.77 27.72,46.77 27.72,46.77 27.72,46.77 
	27.72,46.77 27.72,46.77 27.72,46.77 27.72,46.77 27.72,46.77 27.72,46.77 "/>
<g>
	<g>
		<defs>
			<rect id="SVGID_00000129192890192118043240000014633164846798050944_" x="23.23" y="40.97" width="6.64" height="8.63"/>
		</defs>
		<clipPath id="SVGID_00000047018929781540298310000009965115745354940337_">
			<use xlink:href="#SVGID_00000129192890192118043240000014633164846798050944_"  style="overflow:visible;"/>
		</clipPath>
		<path style="clip-path:url(#SVGID_00000047018929781540298310000009965115745354940337_);fill:none;" d="M26.55,45.28L26.55,45.28
			z"/>
	</g>
	<g>
		<defs>
			<rect id="SVGID_00000116223825262014346660000008217299297988552845_" x="23.23" y="40.97" width="6.64" height="8.63"/>
		</defs>
		<clipPath id="SVGID_00000148660314945795957970000003036216747367690398_">
			<use xlink:href="#SVGID_00000116223825262014346660000008217299297988552845_"  style="overflow:visible;"/>
		</clipPath>
		<path style="clip-path:url(#SVGID_00000148660314945795957970000003036216747367690398_);" d="M25.81,47.75
			c-0.13,0-0.43,0-0.43-0.4c0-0.37,0.35-0.74,0.74-0.74s0.56,0.22,0.56,0.79c0,0.14-0.01,0.15-0.1,0.19
			C26.35,47.68,26.07,47.75,25.81,47.75 M25.24,47.64c-0.72-0.29-1.04-1.01-1.04-1.84c0-0.64,0.24-1.95,0.94-2.95
			c0.68-0.94,1.55-1.37,2.22-1.37c0.93,0,1.6,0.72,1.6,1.96c0,0.93-0.47,3.09-2.03,3.96c-0.05-0.32-0.14-1-0.81-1
			c-0.49,0-0.94,0.46-0.94,0.94C25.18,47.53,25.24,47.64,25.24,47.64z M26.99,47.72c1.44-0.55,2.8-2.19,2.8-3.98
			c0-1.49-0.98-2.49-2.36-2.49c-2,0-4.04,2.1-4.04,4.26c0,1.54,1.04,2.47,2.37,2.47c0.23,0,0.55-0.04,0.91-0.14
			c-0.04,0.57-0.04,0.59-0.04,0.71c0,0.3,0,1.02,0.77,1.02c1.1,0,1.55-1.69,1.55-1.8c0-0.06-0.06-0.09-0.1-0.09
			c-0.07,0-0.09,0.05-0.11,0.1c-0.22,0.66-0.76,0.89-1.08,0.89C27.22,48.67,27.08,48.42,26.99,47.72z"/>
	</g>
</g>
<polygon class="st2" points="97.51,51.84 97.51,51.84 97.51,51.84 97.51,51.84 97.51,51.84 97.51,51.84 97.51,51.84 97.51,51.84 
	97.51,51.84 97.51,51.84 97.51,51.84 97.51,51.84 97.51,51.84 97.51,51.84 97.51,51.84 97.51,51.84 97.51,51.84 97.51,51.84 
	97.51,51.84 97.51,51.84 97.51,51.84 97.51,51.84 97.51,51.84 97.51,51.84 97.51,51.84 97.51,51.84 97.51,51.84 97.51,51.84 
	97.51,51.84 97.51,51.84 97.51,51.84 97.51,51.84 97.51,51.84 97.51,51.84 97.51,51.84 97.51,51.84 97.51,51.84 97.51,51.84 
	97.51,51.84 97.51,51.84 97.51,51.84 97.51,51.84 97.51,51.84 97.51,51.84 97.51,51.84 97.51,51.84 97.51,51.84 97.51,51.84 
	97.51,51.84 97.51,51.84 97.51,51.84 97.51,51.84 97.51,51.84 97.51,51.84 97.51,51.84 97.51,51.84 97.51,51.84 97.51,51.84 
	97.51,51.84 97.51,51.84 97.51,51.84 97.51,51.84 97.51,51.84 97.51,51.84 97.51,51.84 97.51,51.84 97.51,51.84 97.51,51.84 
	97.51,51.84 97.51,51.84 97.51,51.84 97.51,51.84 97.51,51.84 97.51,51.84 97.51,51.84 97.51,51.84 97.51,51.84 97.51,51.84 
	97.51,51.84 97.51,51.84 97.51,51.84 97.51,51.84 97.51,51.84 97.51,51.84 97.51,51.84 "/>
<g>
	<circle class="st1" cx="133.87" cy="74.47" r="11.19"/>
</g>
<line class="st0" x1="160.99" y1="15.83" x2="145.05" y2="15.83"/>
<line class="st0" x1="160.99" y1="74.47" x2="145.05" y2="74.47"/>
<polygon class="st2" points="131.09,43.66 131.09,43.66 131.09,43.66 131.09,43.66 131.09,43.66 131.09,43.66 131.09,43.66 
	131.09,43.66 131.09,43.66 131.09,43.66 131.09,43.66 131.09,43.66 131.09,43.66 131.09,43.66 131.09,43.66 131.09,43.66 
	131.09,43.66 131.09,43.66 131.09,43.66 131.09,43.66 131.09,43.66 131.09,43.66 131.09,43.66 131.09,43.66 131.09,43.66 
	131.09,43.66 131.09,43.66 131.09,43.66 131.09,43.66 131.09,43.66 131.09,43.66 131.09,43.66 131.09,43.66 131.09,43.66 
	131.09,43.66 131.09,43.66 131.09,43.66 131.09,43.66 131.09,43.66 131.09,43.66 131.09,43.66 131.09,43.66 131.09,43.66 
	131.09,43.66 131.09,43.66 131.09,43.66 131.09,43.66 131.09,43.66 131.09,43.66 131.09,43.66 131.09,43.66 131.09,43.66 
	131.09,43.66 131.09,43.66 131.09,43.66 131.09,43.66 131.09,43.66 131.09,43.66 131.09,43.66 131.09,43.66 131.09,43.66 
	131.09,43.66 131.09,43.66 131.09,43.66 131.09,43.66 131.09,43.66 131.09,43.66 131.09,43.66 131.09,43.66 131.09,43.66 
	131.09,43.66 131.09,43.66 131.09,43.66 131.09,43.66 131.09,43.66 131.09,43.66 131.09,43.66 131.09,43.66 131.09,43.66 
	131.09,43.66 131.09,43.66 131.09,43.66 131.09,43.66 131.09,43.66 "/>
<polygon class="st2" points="133.56,45.3 133.56,45.3 133.56,45.3 133.56,45.3 133.56,45.3 133.56,45.3 133.56,45.3 133.56,45.3 
	133.56,45.3 133.56,45.3 133.56,45.3 133.56,45.3 133.56,45.3 133.56,45.3 133.56,45.3 133.56,45.3 133.56,45.3 133.56,45.3 
	133.56,45.3 133.56,45.3 133.56,45.3 133.56,45.3 133.56,45.3 133.56,45.3 133.56,45.3 133.56,45.3 133.56,45.3 133.56,45.3 
	133.56,45.3 133.56,45.3 133.56,45.3 133.56,45.3 133.56,45.3 133.56,45.3 133.56,45.3 133.56,45.3 133.56,45.3 133.56,45.3 
	133.56,45.3 133.56,45.3 133.56,45.3 133.56,45.3 133.56,45.3 133.56,45.3 133.56,45.3 133.56,45.3 133.56,45.3 133.56,45.3 
	133.56,45.3 133.56,45.3 133.56,45.3 133.56,45.3 133.56,45.3 133.56,45.3 133.56,45.3 133.56,45.3 133.56,45.3 133.56,45.3 
	133.56,45.3 133.56,45.3 133.56,45.3 133.56,45.3 133.56,45.3 133.56,45.3 133.56,45.3 133.56,45.3 133.56,45.3 133.56,45.3 
	133.56,45.3 133.56,45.3 133.56,45.3 133.56,45.3 133.56,45.3 133.56,45.3 133.56,45.3 133.56,45.3 133.56,45.3 133.56,45.3 
	133.56,45.3 133.56,45.3 133.56,45.3 133.56,45.3 133.56,45.3 133.56,45.3 "/>
<g>
	<circle class="st1" cx="133.87" cy="15.8" r="11.19"/>
</g>
<g>
	<circle class="st1" cx="133.56" cy="45.28" r="7.8"/>
</g>
<polygon class="st2" points="133.56,15.83 133.56,15.83 133.56,15.83 133.56,15.83 133.56,15.83 133.56,15.83 133.56,15.83 
	133.56,15.83 133.56,15.83 133.56,15.83 133.56,15.83 133.56,15.83 133.56,15.83 133.56,15.83 133.56,15.83 133.56,15.83 
	133.56,15.83 133.56,15.83 133.56,15.83 133.56,15.83 133.56,15.83 133.56,15.83 133.56,15.83 133.56,15.83 133.56,15.83 
	133.56,15.83 133.56,15.83 133.56,15.83 133.56,15.83 133.56,15.83 133.56,15.83 133.56,15.83 133.56,15.83 133.56,15.83 
	133.56,15.83 133.56,15.83 133.56,15.83 133.56,15.83 133.56,15.83 133.56,15.83 133.56,15.83 133.56,15.83 133.56,15.83 
	133.56,15.83 133.56,15.83 133.56,15.83 133.56,15.83 133.56,15.83 133.56,15.83 133.56,15.83 133.56,15.83 133.56,15.83 
	133.56,15.83 133.56,15.83 133.56,15.83 133.56,15.83 133.56,15.83 133.56,15.83 133.56,15.83 133.56,15.83 133.56,15.83 
	133.56,15.83 133.56,15.83 133.56,15.83 133.56,15.83 133.56,15.83 133.56,15.83 133.56,15.83 133.56,15.83 133.56,15.83 
	133.56,15.83 133.56,15.83 133.56,15.83 133.56,15.83 133.56,15.83 133.56,15.83 133.56,15.83 133.56,15.83 133.56,15.83 
	133.56,15.83 133.56,15.83 133.56,15.83 133.56,15.83 133.56,15.83 "/>
<g>
	<g>
		<defs>
			<rect id="SVGID_00000055682661915760825250000007748589605679235205_" x="130.38" y="12.48" width="6.97" height="6.64"/>
		</defs>
		<clipPath id="SVGID_00000032650938703579351080000009806220813428362115_">
			<use xlink:href="#SVGID_00000055682661915760825250000007748589605679235205_"  style="overflow:visible;"/>
		</clipPath>
		<path style="clip-path:url(#SVGID_00000032650938703579351080000009806220813428362115_);fill:none;" d="M133.87,15.8L133.87,15.8
			z"/>
	</g>
	<g>
		<defs>
			<rect id="SVGID_00000181809846127978123610000009222545269561198213_" x="130.38" y="12.48" width="6.97" height="6.64"/>
		</defs>
		<clipPath id="SVGID_00000100352185319484979850000007988309712992262034_">
			<use xlink:href="#SVGID_00000181809846127978123610000009222545269561198213_"  style="overflow:visible;"/>
		</clipPath>
		<path style="clip-path:url(#SVGID_00000100352185319484979850000007988309712992262034_);" d="M135.96,13.54
			c0.09-0.38,0.26-0.66,1-0.69c0.05,0,0.16-0.01,0.16-0.18c0-0.01,0-0.1-0.12-0.1c-0.31,0-0.63,0.03-0.94,0.03s-0.66-0.03-0.96-0.03
			c-0.06,0-0.17,0-0.17,0.19c0,0.1,0.09,0.1,0.17,0.1c0.53,0.01,0.63,0.2,0.63,0.41c0,0.03-0.02,0.17-0.03,0.19l-0.83,3.31
			c-0.31,1.24-1.38,2.05-2.31,2.05c-0.63,0-1.13-0.41-1.13-1.2c0-0.02,0-0.31,0.1-0.72l0.9-3.6c0.08-0.33,0.1-0.43,0.78-0.43
			c0.24,0,0.31,0,0.31-0.18c0-0.1-0.1-0.1-0.13-0.1c-0.26,0-0.93,0.03-1.19,0.03c-0.27,0-0.93-0.03-1.19-0.03
			c-0.07,0-0.18,0-0.18,0.19c0,0.1,0.08,0.1,0.26,0.1c0.02,0,0.19,0,0.35,0.02c0.17,0.02,0.25,0.03,0.25,0.15
			c0,0.06-0.1,0.44-0.16,0.66l-0.2,0.82c-0.08,0.36-0.53,2.11-0.57,2.29c-0.06,0.26-0.06,0.4-0.06,0.54c0,1.13,0.84,1.78,1.82,1.78
			c1.17,0,2.31-1.05,2.62-2.27L135.96,13.54"/>
	</g>
</g>
<polygon class="st9" points="458.52,55.56 458.52,55.56 458.52,55.56 458.52,55.56 458.52,55.56 458.52,55.56 458.52,55.56 
	458.52,55.56 458.52,55.56 458.52,55.56 458.52,55.56 458.52,55.56 458.52,55.56 458.52,55.56 458.52,55.56 458.52,55.56 
	458.52,55.56 458.52,55.56 458.52,55.56 458.52,55.56 458.52,55.56 458.52,55.56 458.52,55.56 458.52,55.56 458.52,55.56 
	458.52,55.56 458.52,55.56 458.52,55.56 458.52,55.56 458.52,55.56 458.52,55.56 458.52,55.56 458.52,55.56 458.52,55.56 
	458.52,55.56 458.52,55.56 458.52,55.56 458.52,55.56 458.52,55.56 458.52,55.56 458.52,55.56 458.52,55.56 458.52,55.56 
	458.52,55.56 458.52,55.56 458.52,55.56 458.52,55.56 458.52,55.56 458.52,55.56 458.52,55.56 458.52,55.56 458.52,55.56 
	458.52,55.56 458.52,55.56 458.52,55.56 458.52,55.56 458.52,55.56 458.52,55.56 458.52,55.56 458.52,55.56 458.52,55.56 
	458.52,55.56 458.52,55.56 458.52,55.56 458.52,55.56 458.52,55.56 458.52,55.56 458.52,55.56 458.52,55.56 458.52,55.56 
	458.52,55.56 458.52,55.56 458.52,55.56 458.52,55.56 458.52,55.56 458.52,55.56 458.52,55.56 458.52,55.56 458.52,55.56 
	458.52,55.56 458.52,55.56 458.52,55.56 458.52,55.56 458.52,55.56 458.52,55.56 "/>
<g>
	<g>
		<defs>
			<rect id="SVGID_00000039853068176140798320000018361128375280346522_" x="130.57" y="41.98" width="5.98" height="6.64"/>
		</defs>
		<clipPath id="SVGID_00000043414742468540412550000001471338145071004827_">
			<use xlink:href="#SVGID_00000039853068176140798320000018361128375280346522_"  style="overflow:visible;"/>
		</clipPath>
		<path style="clip-path:url(#SVGID_00000043414742468540412550000001471338145071004827_);fill:none;" d="M133.56,45.3L133.56,45.3
			z"/>
	</g>
	<g>
		<defs>
			<rect id="SVGID_00000008134847018986005990000010155024282181460392_" x="130.57" y="41.98" width="5.98" height="6.64"/>
		</defs>
		<clipPath id="SVGID_00000040557601465963709410000007138749540500117433_">
			<use xlink:href="#SVGID_00000008134847018986005990000010155024282181460392_"  style="overflow:visible;"/>
		</clipPath>
		<path style="clip-path:url(#SVGID_00000040557601465963709410000007138749540500117433_);" d="M133.69,45.44
			c0.08-0.09,0.08-0.13,0.08-0.15c0-0.05-0.04-0.09-0.06-0.13l-1.9-2.74h2.14c1.56,0,2.03,0.33,2.22,1.8h0.23l-0.26-2.08H131
			c-0.22,0-0.24,0-0.24,0.21l2.31,3.35l-2.2,2.51c-0.09,0.1-0.09,0.12-0.09,0.15c0,0.1,0.09,0.1,0.23,0.1h5.14l0.26-2.19h-0.23
			c-0.17,1.55-0.8,1.8-2.25,1.8h-2.56L133.69,45.44"/>
	</g>
</g>
<polygon class="st2" points="133.4,75.28 133.4,75.28 133.4,75.28 133.4,75.28 133.4,75.28 133.4,75.28 133.4,75.28 133.4,75.28 
	133.4,75.28 133.4,75.28 133.4,75.28 133.4,75.28 133.4,75.28 133.4,75.28 133.4,75.28 133.4,75.28 133.4,75.28 133.4,75.28 
	133.4,75.28 133.4,75.28 133.4,75.28 133.4,75.28 133.4,75.28 133.4,75.28 133.4,75.28 133.4,75.28 133.4,75.28 133.4,75.28 
	133.4,75.28 133.4,75.28 133.4,75.28 133.4,75.28 133.4,75.28 133.4,75.28 133.4,75.28 133.4,75.28 133.4,75.28 133.4,75.28 
	133.4,75.28 133.4,75.28 133.4,75.28 133.4,75.28 133.4,75.28 133.4,75.28 133.4,75.28 133.4,75.28 133.4,75.28 133.4,75.28 
	133.4,75.28 133.4,75.28 133.4,75.28 133.4,75.28 133.4,75.28 133.4,75.28 133.4,75.28 133.4,75.28 133.4,75.28 133.4,75.28 
	133.4,75.28 133.4,75.28 133.4,75.28 133.4,75.28 133.4,75.28 133.4,75.28 133.4,75.28 133.4,75.28 133.4,75.28 133.4,75.28 
	133.4,75.28 133.4,75.28 133.4,75.28 133.4,75.28 133.4,75.28 133.4,75.28 133.4,75.28 133.4,75.28 133.4,75.28 133.4,75.28 
	133.4,75.28 133.4,75.28 133.4,75.28 133.4,75.28 133.4,75.28 133.4,75.28 "/>
<g>
	<g>
		<defs>
			<rect id="SVGID_00000098206645620268233040000015206508059404731009_" x="130.39" y="71.26" width="6.97" height="6.64"/>
		</defs>
		<clipPath id="SVGID_00000032641106376573490510000016037570549053746335_">
			<use xlink:href="#SVGID_00000098206645620268233040000015206508059404731009_"  style="overflow:visible;"/>
		</clipPath>
		<path style="clip-path:url(#SVGID_00000032641106376573490510000016037570549053746335_);fill:none;" d="M133.87,74.58
			L133.87,74.58z"/>
	</g>
	<g>
		<defs>
			<rect id="SVGID_00000121239030090456030930000001666456513240719283_" x="130.39" y="71.26" width="6.97" height="6.64"/>
		</defs>
		<clipPath id="SVGID_00000008834980032166802820000007613312968971270328_">
			<use xlink:href="#SVGID_00000121239030090456030930000001666456513240719283_"  style="overflow:visible;"/>
		</clipPath>
		<path style="clip-path:url(#SVGID_00000008834980032166802820000007613312968971270328_);" d="M135.84,72.4
			c0.45-0.72,0.84-0.75,1.19-0.77c0.11-0.01,0.12-0.17,0.12-0.18c0-0.07-0.05-0.11-0.12-0.11c-0.24,0-0.51,0.03-0.76,0.03
			c-0.31,0-0.62-0.03-0.92-0.03c-0.06,0-0.18,0-0.18,0.18c0,0.1,0.08,0.11,0.15,0.11c0.25,0.02,0.43,0.11,0.43,0.31
			c0,0.14-0.14,0.34-0.14,0.35l-2.84,4.52l-0.63-4.9c0-0.16,0.21-0.28,0.64-0.28c0.13,0,0.23,0,0.23-0.18c0-0.08-0.07-0.1-0.13-0.1
			c-0.37,0-0.77,0.03-1.15,0.03c-0.17,0-0.34-0.01-0.51-0.01s-0.34-0.02-0.5-0.02c-0.06,0-0.18,0-0.18,0.18
			c0,0.11,0.08,0.11,0.23,0.11c0.52,0,0.53,0.08,0.56,0.31l0.73,5.71c0.03,0.19,0.06,0.21,0.19,0.21c0.15,0,0.19-0.05,0.26-0.17
			L135.84,72.4"/>
	</g>
</g>
<line class="st0" x1="133.87" y1="37.49" x2="133.87" y2="26.99"/>
<line class="st0" x1="133.87" y1="63.58" x2="133.87" y2="53.08"/>
<line class="st0" x1="122.68" y1="15.83" x2="106.74" y2="15.83"/>
<line class="st0" x1="122.68" y1="75.28" x2="106.74" y2="75.28"/>
<polygon class="st9" points="673.29,-15.21 673.29,-15.21 673.29,-15.21 673.29,-15.21 673.29,-15.21 673.29,-15.21 673.29,-15.21 
	673.29,-15.21 673.29,-15.21 673.29,-15.21 673.29,-15.21 673.29,-15.21 673.29,-15.21 673.29,-15.21 673.29,-15.21 673.29,-15.21 
	673.29,-15.21 673.29,-15.21 673.29,-15.21 673.29,-15.21 673.29,-15.21 673.29,-15.21 673.29,-15.21 673.29,-15.21 673.29,-15.21 
	673.29,-15.21 673.29,-15.21 673.29,-15.21 673.29,-15.21 673.29,-15.21 673.29,-15.21 673.29,-15.21 673.29,-15.21 673.29,-15.21 
	673.29,-15.21 673.29,-15.21 673.29,-15.21 673.29,-15.21 673.29,-15.21 673.29,-15.21 673.29,-15.21 673.29,-15.21 673.29,-15.21 
	673.29,-15.21 673.29,-15.21 673.29,-15.21 673.29,-15.21 673.29,-15.21 673.29,-15.21 673.29,-15.21 673.29,-15.21 673.29,-15.21 
	673.29,-15.21 673.29,-15.21 673.29,-15.21 673.29,-15.21 673.29,-15.21 673.29,-15.21 673.29,-15.21 673.29,-15.21 673.29,-15.21 
	673.29,-15.21 673.29,-15.21 673.29,-15.21 673.29,-15.21 673.29,-15.21 673.29,-15.21 673.29,-15.21 673.29,-15.21 673.29,-15.21 
	673.29,-15.21 673.29,-15.21 673.29,-15.21 673.29,-15.21 673.29,-15.21 673.29,-15.21 673.29,-15.21 673.29,-15.21 673.29,-15.21 
	673.29,-15.21 673.29,-15.21 673.29,-15.21 673.29,-15.21 673.29,-15.21 "/>
<g>
	<g>
		<defs>
			<rect id="SVGID_00000094610109585694782310000004468900432858535342_" x="667.19" y="-26.59" width="13" height="21"/>
		</defs>
		<clipPath id="SVGID_00000103267488600528562130000014684445528809729191_">
			<use xlink:href="#SVGID_00000094610109585694782310000004468900432858535342_"  style="overflow:visible;"/>
		</clipPath>
		
			<path style="clip-path:url(#SVGID_00000103267488600528562130000014684445528809729191_);fill:none;stroke:#000000;stroke-width:1.000000e-06;stroke-miterlimit:10;stroke-opacity:0;" d="
			M673.69-16.09L673.69-16.09z"/>
	</g>
</g>
<polygon class="st2" points="68.94,61.78 68.94,61.78 68.94,61.78 68.94,61.78 68.94,61.78 68.94,61.78 68.94,61.78 68.94,61.78 
	68.94,61.78 68.94,61.78 68.94,61.78 68.94,61.78 68.94,61.78 68.94,61.78 68.94,61.78 68.94,61.78 68.94,61.78 68.94,61.78 
	68.94,61.78 68.94,61.78 68.94,61.78 68.94,61.78 68.94,61.78 68.94,61.78 68.94,61.78 68.94,61.78 68.94,61.78 68.94,61.78 
	68.94,61.78 68.94,61.78 68.94,61.78 68.94,61.78 68.94,61.78 68.94,61.78 68.94,61.78 68.94,61.78 68.94,61.78 68.94,61.78 
	68.94,61.78 68.94,61.78 68.94,61.78 68.94,61.78 68.94,61.78 68.94,61.78 68.94,61.78 68.94,61.78 68.94,61.78 68.94,61.78 
	68.94,61.78 68.94,61.78 68.94,61.78 68.94,61.78 68.94,61.78 68.94,61.78 68.94,61.78 68.94,61.78 68.94,61.78 68.94,61.78 
	68.94,61.78 68.94,61.78 68.94,61.78 68.94,61.78 68.94,61.78 68.94,61.78 68.94,61.78 68.94,61.78 68.94,61.78 68.94,61.78 
	68.94,61.78 68.94,61.78 68.94,61.78 68.94,61.78 68.94,61.78 68.94,61.78 68.94,61.78 68.94,61.78 68.94,61.78 68.94,61.78 
	68.94,61.78 68.94,61.78 68.94,61.78 68.94,61.78 68.94,61.78 68.94,61.78 "/>
<g>
	<g>
		<defs>
			<rect id="SVGID_00000096048262393203077470000017899325098663153537_" x="67.77" y="59.25" width="2.99" height="4.98"/>
		</defs>
		<clipPath id="SVGID_00000147178269348424872600000003117732760328289978_">
			<use xlink:href="#SVGID_00000096048262393203077470000017899325098663153537_"  style="overflow:visible;"/>
		</clipPath>
		<path style="clip-path:url(#SVGID_00000147178269348424872600000003117732760328289978_);fill:none;" d="M69.27,61.75L69.27,61.75
			z"/>
	</g>
</g>
<polygon class="st9" points="489.51,-29.03 489.51,-29.04 489.51,-29.04 489.51,-29.04 489.51,-29.04 489.51,-29.04 489.51,-29.04 
	489.51,-29.04 489.51,-29.04 489.51,-29.04 489.51,-29.04 489.51,-29.04 489.51,-29.04 489.51,-29.04 489.51,-29.04 489.51,-29.04 
	489.51,-29.04 489.51,-29.04 489.51,-29.04 489.51,-29.04 489.51,-29.04 489.51,-29.04 489.51,-29.04 489.51,-29.04 489.51,-29.04 
	489.51,-29.04 489.51,-29.04 489.51,-29.04 489.51,-29.04 489.51,-29.04 489.51,-29.04 489.51,-29.04 489.51,-29.04 489.51,-29.04 
	489.51,-29.04 489.51,-29.04 489.51,-29.04 489.51,-29.04 489.51,-29.04 489.51,-29.04 489.51,-29.04 489.51,-29.04 489.51,-29.04 
	489.51,-29.04 489.51,-29.04 489.51,-29.04 489.51,-29.04 489.51,-29.04 489.51,-29.04 489.51,-29.04 489.51,-29.04 489.51,-29.04 
	489.51,-29.04 489.51,-29.04 489.51,-29.04 489.51,-29.04 489.51,-29.04 489.51,-29.04 489.51,-29.04 489.51,-29.04 489.51,-29.04 
	489.51,-29.04 489.51,-29.04 489.51,-29.04 489.51,-29.04 489.51,-29.04 489.51,-29.04 489.51,-29.04 489.51,-29.04 489.51,-29.04 
	489.51,-29.04 489.51,-29.04 489.51,-29.04 489.51,-29.04 489.51,-29.04 489.51,-29.04 489.51,-29.04 489.51,-29.04 489.51,-29.04 
	489.51,-29.04 489.51,-29.04 489.51,-29.04 489.51,-29.04 489.51,-29.04 489.51,-29.04 "/>
<g>
	<g>
		<defs>
			<rect id="SVGID_00000011733454149597361440000008381833862227734174_" x="484.6" y="-37.65" width="10" height="16"/>
		</defs>
		<clipPath id="SVGID_00000145046858159713567940000000943154909922290564_">
			<use xlink:href="#SVGID_00000011733454149597361440000008381833862227734174_"  style="overflow:visible;"/>
		</clipPath>
		
			<path style="clip-path:url(#SVGID_00000145046858159713567940000000943154909922290564_);fill:none;stroke:#000000;stroke-width:1.000000e-06;stroke-miterlimit:10;stroke-opacity:0;" d="
			M489.6-29.65L489.6-29.65z"/>
	</g>
</g>
<polygon class="st2" points="87.53,65.53 87.53,65.53 87.53,65.53 87.53,65.53 87.53,65.53 87.53,65.53 87.53,65.53 87.53,65.53 
	87.53,65.53 87.53,65.53 87.53,65.53 87.53,65.53 87.53,65.53 87.53,65.53 87.53,65.53 87.53,65.53 87.53,65.53 87.53,65.53 
	87.53,65.53 87.53,65.53 87.53,65.53 87.53,65.53 87.53,65.53 87.53,65.53 87.53,65.53 87.53,65.53 87.53,65.53 87.53,65.53 
	87.53,65.53 87.53,65.53 87.53,65.53 87.53,65.53 87.53,65.53 87.53,65.53 87.53,65.53 87.53,65.53 87.53,65.53 87.53,65.53 
	87.53,65.53 87.53,65.53 87.53,65.53 87.53,65.53 87.53,65.53 87.53,65.53 87.53,65.53 87.53,65.53 87.53,65.53 87.53,65.53 
	87.53,65.53 87.53,65.53 87.53,65.53 87.53,65.53 87.53,65.53 87.53,65.53 87.53,65.53 87.53,65.53 87.53,65.53 87.53,65.53 
	87.53,65.53 87.53,65.53 87.53,65.53 87.53,65.53 87.53,65.53 87.53,65.53 87.53,65.53 87.53,65.53 87.53,65.53 87.53,65.53 
	87.53,65.53 87.53,65.53 87.53,65.53 87.53,65.53 87.53,65.53 87.53,65.53 87.53,65.53 87.53,65.53 87.53,65.53 87.53,65.53 
	87.53,65.53 87.53,65.53 87.53,65.53 87.53,65.53 87.53,65.53 87.53,65.53 "/>
<polygon class="st2" points="84.21,80.33 84.21,80.33 84.21,80.33 84.21,80.33 84.21,80.33 84.21,80.33 84.21,80.33 84.21,80.33 
	84.21,80.33 84.21,80.33 84.21,80.33 84.21,80.33 84.21,80.33 84.21,80.33 84.21,80.33 84.21,80.33 84.21,80.33 84.21,80.33 
	84.21,80.33 84.21,80.33 84.21,80.33 84.21,80.33 84.21,80.33 84.21,80.33 84.21,80.33 84.21,80.33 84.21,80.33 84.21,80.33 
	84.21,80.33 84.21,80.33 84.21,80.33 84.21,80.33 84.21,80.33 84.21,80.33 84.21,80.33 84.21,80.33 84.21,80.33 84.21,80.33 
	84.21,80.33 84.21,80.33 84.21,80.33 84.21,80.33 84.21,80.33 84.21,80.33 84.21,80.33 84.21,80.33 84.21,80.33 84.21,80.33 
	84.21,80.33 84.21,80.33 84.21,80.33 84.21,80.33 84.21,80.33 84.21,80.33 84.21,80.33 84.21,80.33 84.21,80.33 84.21,80.33 
	84.21,80.33 84.21,80.33 84.21,80.33 84.21,80.33 84.21,80.33 84.21,80.33 84.21,80.33 84.21,80.33 84.21,80.33 84.21,80.33 
	84.21,80.33 84.21,80.33 84.21,80.33 84.21,80.33 84.21,80.33 84.21,80.33 84.21,80.33 84.21,80.33 84.21,80.33 84.21,80.33 
	84.21,80.33 84.21,80.33 84.21,80.33 84.21,80.33 84.21,80.33 84.21,80.33 "/>
<g>
	<g>
		<defs>
			<rect id="SVGID_00000040555718180344259260000008216402030000701337_" x="82.61" y="77.47" width="3.32" height="5.31"/>
		</defs>
		<clipPath id="SVGID_00000084491316749996473260000013330264291161162389_">
			<use xlink:href="#SVGID_00000040555718180344259260000008216402030000701337_"  style="overflow:visible;"/>
		</clipPath>
		<path style="clip-path:url(#SVGID_00000084491316749996473260000013330264291161162389_);fill:none;" d="M84.27,80.12L84.27,80.12
			z"/>
	</g>
</g>
<polygon class="st9" points="79.74,64.42 79.74,64.42 79.74,64.42 79.74,64.42 79.74,64.42 79.74,64.42 79.74,64.42 79.74,64.42 
	79.74,64.42 79.74,64.42 79.74,64.42 79.74,64.42 79.74,64.42 79.74,64.42 79.74,64.42 79.74,64.42 79.74,64.42 79.74,64.42 
	79.74,64.42 79.74,64.42 79.74,64.42 79.74,64.42 79.74,64.42 79.74,64.42 79.74,64.42 79.74,64.42 79.74,64.42 79.74,64.42 
	79.74,64.42 79.74,64.42 79.74,64.42 79.74,64.42 79.74,64.42 79.74,64.42 79.74,64.42 79.74,64.42 79.74,64.42 79.74,64.42 
	79.74,64.42 79.74,64.42 79.74,64.42 79.74,64.42 79.74,64.42 79.74,64.42 79.74,64.42 79.74,64.42 79.74,64.42 79.74,64.42 
	79.74,64.42 79.74,64.42 79.74,64.42 79.74,64.42 79.74,64.42 79.74,64.42 79.74,64.42 79.74,64.42 79.74,64.42 79.74,64.42 
	79.74,64.42 79.74,64.42 79.74,64.42 79.74,64.42 79.74,64.42 79.74,64.42 79.74,64.42 79.74,64.42 79.74,64.42 79.74,64.42 
	79.74,64.42 79.74,64.42 79.74,64.42 79.74,64.42 79.74,64.42 79.74,64.42 79.74,64.42 79.74,64.42 79.74,64.42 79.74,64.42 
	79.74,64.42 79.74,64.42 79.74,64.42 79.74,64.42 79.74,64.42 79.74,64.42 "/>
<g>
	<g>
		<defs>
			<rect id="SVGID_00000125598066024342372510000018309275910864089753_" x="74.91" y="55.81" width="10" height="16"/>
		</defs>
		<clipPath id="SVGID_00000117664597206473530450000015307512054165406651_">
			<use xlink:href="#SVGID_00000125598066024342372510000018309275910864089753_"  style="overflow:visible;"/>
		</clipPath>
		
			<path style="clip-path:url(#SVGID_00000117664597206473530450000015307512054165406651_);fill:none;stroke:#000000;stroke-width:1.000000e-06;stroke-miterlimit:10;stroke-opacity:0;" d="
			M79.91,63.81L79.91,63.81z"/>
	</g>
</g>
<polygon class="st9" points="69.86,66.4 69.86,66.4 69.86,66.4 69.86,66.4 69.86,66.4 69.86,66.4 69.86,66.4 69.86,66.4 69.86,66.4 
	69.86,66.4 69.86,66.4 69.86,66.4 69.86,66.4 69.86,66.4 69.86,66.4 69.86,66.4 69.86,66.4 69.86,66.4 69.86,66.4 69.86,66.4 
	69.86,66.4 69.86,66.4 69.86,66.4 69.86,66.4 69.86,66.4 69.86,66.4 69.86,66.4 69.86,66.4 69.86,66.4 69.86,66.4 69.86,66.4 
	69.86,66.4 69.86,66.4 69.86,66.4 69.86,66.4 69.86,66.4 69.86,66.4 69.86,66.4 69.86,66.4 69.86,66.4 69.86,66.4 69.86,66.4 
	69.86,66.4 69.86,66.4 69.86,66.4 69.86,66.4 69.86,66.4 69.86,66.4 69.86,66.4 69.86,66.4 69.86,66.4 69.86,66.4 69.86,66.4 
	69.86,66.4 69.86,66.4 69.86,66.4 69.86,66.4 69.86,66.4 69.86,66.4 69.86,66.4 69.86,66.4 69.86,66.4 69.86,66.4 69.86,66.4 
	69.86,66.4 69.86,66.4 69.86,66.4 69.86,66.4 69.86,66.4 69.86,66.4 69.86,66.4 69.86,66.4 69.86,66.4 69.86,66.4 69.86,66.4 
	69.86,66.4 69.86,66.4 69.86,66.4 69.86,66.4 69.86,66.4 69.86,66.4 69.86,66.4 69.86,66.4 69.86,66.4 69.86,66.4 "/>
<g>
	<g>
		<defs>
			<rect id="SVGID_00000022544919470350958930000016768880062317505681_" x="65.02" y="57.79" width="10" height="16"/>
		</defs>
		<clipPath id="SVGID_00000172427586932743723830000000043589856932516281_">
			<use xlink:href="#SVGID_00000022544919470350958930000016768880062317505681_"  style="overflow:visible;"/>
		</clipPath>
		
			<path style="clip-path:url(#SVGID_00000172427586932743723830000000043589856932516281_);fill:none;stroke:#000000;stroke-width:1.000000e-06;stroke-miterlimit:10;stroke-opacity:0;" d="
			M70.02,65.79L70.02,65.79z"/>
	</g>
</g>
<polygon class="st9" points="58,83.91 58,83.91 58,83.91 58,83.91 58,83.91 58,83.91 58,83.91 58,83.91 58,83.91 58,83.91 58,83.91 
	58,83.91 58,83.91 58,83.91 58,83.91 58,83.91 58,83.91 58,83.91 58,83.91 58,83.91 58,83.91 58,83.91 58,83.91 58,83.91 58,83.91 
	58,83.91 58,83.91 58,83.91 58,83.91 58,83.91 58,83.91 58,83.91 58,83.91 58,83.91 58,83.91 58,83.91 58,83.91 58,83.91 58,83.91 
	58,83.91 58,83.91 58,83.91 58,83.91 58,83.91 58,83.91 58,83.91 58,83.91 58,83.91 58,83.91 58,83.91 58,83.91 58,83.91 58,83.91 
	58,83.91 58,83.91 58,83.91 58,83.91 58,83.91 58,83.91 58,83.91 58,83.91 58,83.91 58,83.91 58,83.91 58,83.91 58,83.91 58,83.91 
	58,83.91 58,83.91 58,83.91 58,83.91 58,83.91 58,83.91 58,83.91 58,83.91 58,83.91 58,83.91 58,83.91 58,83.91 58,83.91 58,83.91 
	58,83.91 58,83.91 58,83.91 58,83.91 "/>
<g>
	<g>
		<defs>
			<rect id="SVGID_00000074437685936146010500000015355655220060029076_" x="53.16" y="75.29" width="10" height="16"/>
		</defs>
		<clipPath id="SVGID_00000029755296257980882310000017584301974759094439_">
			<use xlink:href="#SVGID_00000074437685936146010500000015355655220060029076_"  style="overflow:visible;"/>
		</clipPath>
		
			<path style="clip-path:url(#SVGID_00000029755296257980882310000017584301974759094439_);fill:none;stroke:#000000;stroke-width:1.000000e-06;stroke-miterlimit:10;stroke-opacity:0;" d="
			M58.16,83.29L58.16,83.29z"/>
	</g>
</g>
<g>
	<g>
		<defs>
			<rect id="SVGID_00000165213933731717084980000011063171985084187041_" x="76.58" y="50.19" width="3.16" height="4.93"/>
		</defs>
		<clipPath id="SVGID_00000062185264535528209430000014479172214782704021_">
			<use xlink:href="#SVGID_00000165213933731717084980000011063171985084187041_"  style="overflow:visible;"/>
		</clipPath>
		<path style="clip-path:url(#SVGID_00000062185264535528209430000014479172214782704021_);fill:#E4E4E3;" d="M78.34,52.46
			c0.57-0.19,0.97-0.67,0.97-1.22c0-0.57-0.61-0.95-1.27-0.95c-0.7,0-1.22,0.41-1.22,0.94c0,0.23,0.15,0.36,0.35,0.36
			c0.21,0,0.35-0.15,0.35-0.35c0-0.35-0.32-0.35-0.43-0.35c0.21-0.34,0.67-0.43,0.92-0.43c0.28,0,0.66,0.15,0.66,0.77
			c0,0.08-0.01,0.48-0.19,0.79c-0.21,0.33-0.44,0.35-0.62,0.36c-0.06,0.01-0.22,0.02-0.27,0.02c-0.06,0.01-0.1,0.01-0.1,0.08
			c0,0.08,0.05,0.08,0.17,0.08h0.3c0.57,0,0.82,0.47,0.82,1.15c0,0.94-0.48,1.14-0.78,1.14c-0.3,0-0.82-0.12-1.06-0.53
			c0.24,0.03,0.46-0.12,0.46-0.38c0-0.25-0.19-0.39-0.39-0.39c-0.17,0-0.39,0.1-0.39,0.4c0,0.63,0.64,1.09,1.4,1.09
			c0.84,0,1.47-0.63,1.47-1.33C79.49,53.15,79.06,52.61,78.34,52.46"/>
	</g>
</g>
<polygon class="st9" points="84.88,34.83 84.88,34.83 84.88,34.83 84.88,34.83 84.88,34.83 84.88,34.83 84.88,34.83 84.88,34.83 
	84.88,34.83 84.88,34.83 84.88,34.83 84.88,34.83 84.88,34.83 84.88,34.83 84.88,34.83 84.88,34.83 84.88,34.83 84.88,34.83 
	84.88,34.83 84.88,34.83 84.88,34.83 84.88,34.83 84.88,34.83 84.88,34.83 84.88,34.83 84.88,34.83 84.88,34.83 84.88,34.83 
	84.88,34.83 84.88,34.83 84.88,34.83 84.88,34.83 84.88,34.83 84.88,34.83 84.88,34.83 84.88,34.83 84.88,34.83 84.88,34.83 
	84.88,34.83 84.88,34.83 84.88,34.83 84.88,34.83 84.88,34.83 84.88,34.83 84.88,34.83 84.88,34.83 84.88,34.83 84.88,34.83 
	84.88,34.83 84.88,34.83 84.88,34.83 84.88,34.83 84.88,34.83 84.88,34.83 84.88,34.83 84.88,34.83 84.88,34.83 84.88,34.83 
	84.88,34.83 84.88,34.83 84.88,34.83 84.88,34.83 84.88,34.83 84.88,34.83 84.88,34.83 84.88,34.83 84.88,34.83 84.88,34.83 
	84.88,34.83 84.88,34.83 84.88,34.83 84.88,34.83 84.88,34.83 84.88,34.83 84.88,34.83 84.88,34.83 84.88,34.83 84.88,34.83 
	84.88,34.83 84.88,34.83 84.88,34.83 84.88,34.83 84.88,34.83 84.88,34.83 84.88,34.83 "/>
<g>
	<g>
		<defs>
			<rect id="SVGID_00000182499702338807072970000004992863023504437681_" x="76.21" y="32.38" width="3.27" height="4.9"/>
		</defs>
		<clipPath id="SVGID_00000118398307694548332830000004831123029022139550_">
			<use xlink:href="#SVGID_00000182499702338807072970000004992863023504437681_"  style="overflow:visible;"/>
		</clipPath>
		
			<path style="clip-path:url(#SVGID_00000118398307694548332830000004831123029022139550_);fill:none;stroke:#000000;stroke-width:1.000000e-06;stroke-miterlimit:10;stroke-opacity:0;" d="
			M77.84,34.83L77.84,34.83z"/>
	</g>
	<g>
		<defs>
			<rect id="SVGID_00000005255535993461994260000006760192444001453469_" x="76.21" y="32.38" width="3.27" height="4.9"/>
		</defs>
		<clipPath id="SVGID_00000001652782201817316960000009467261680817814926_">
			<use xlink:href="#SVGID_00000005255535993461994260000006760192444001453469_"  style="overflow:visible;"/>
		</clipPath>
		<path style="clip-path:url(#SVGID_00000001652782201817316960000009467261680817814926_);fill:#E4E4E3;" d="M77.09,36.57
			l0.69-0.67c1.02-0.9,1.41-1.25,1.41-1.9c0-0.74-0.59-1.26-1.38-1.26c-0.74,0-1.22,0.6-1.22,1.18c0,0.36,0.33,0.36,0.35,0.36
			c0.11,0,0.34-0.08,0.34-0.34c0-0.17-0.12-0.34-0.34-0.34c-0.05,0-0.06,0-0.08,0.01c0.15-0.42,0.5-0.66,0.88-0.66
			c0.59,0,0.87,0.53,0.87,1.06c0,0.52-0.33,1.03-0.68,1.44l-1.25,1.39c-0.07,0.07-0.07,0.08-0.07,0.24H79l0.18-1.13h-0.16
			c-0.03,0.2-0.08,0.48-0.14,0.58c-0.05,0.05-0.47,0.05-0.62,0.05h-1.17"/>
	</g>
</g>
<polygon class="st9" points="41.53,35.93 41.53,35.93 41.53,35.93 41.53,35.93 41.53,35.93 41.53,35.93 41.53,35.93 41.53,35.93 
	41.53,35.93 41.53,35.93 41.53,35.93 41.53,35.93 41.53,35.93 41.53,35.93 41.53,35.93 41.53,35.93 41.53,35.93 41.53,35.93 
	41.53,35.93 41.53,35.93 41.53,35.93 41.53,35.93 41.53,35.93 41.53,35.93 41.53,35.93 41.53,35.93 41.53,35.93 41.53,35.93 
	41.53,35.93 41.53,35.93 41.53,35.93 41.53,35.93 41.53,35.93 41.53,35.93 41.53,35.93 41.53,35.93 41.53,35.93 41.53,35.93 
	41.53,35.93 41.53,35.93 41.53,35.93 41.53,35.93 41.53,35.93 41.53,35.93 41.53,35.93 41.53,35.93 41.53,35.93 41.53,35.93 
	41.53,35.93 41.53,35.93 41.53,35.93 41.53,35.93 41.53,35.93 41.53,35.93 41.53,35.93 41.53,35.93 41.53,35.93 41.53,35.93 
	41.53,35.93 41.53,35.93 41.53,35.93 41.53,35.93 41.53,35.93 41.53,35.93 41.53,35.93 41.53,35.93 41.53,35.93 41.53,35.93 
	41.53,35.93 41.53,35.93 41.53,35.93 41.53,35.93 41.53,35.93 41.53,35.93 41.53,35.93 41.53,35.93 41.53,35.93 41.53,35.93 
	41.53,35.93 41.53,35.93 41.53,35.93 41.53,35.93 41.53,35.93 41.53,35.93 41.53,35.93 "/>
<g>
	<g>
		<defs>
			<rect id="SVGID_00000139282690840746190230000015619944626991523766_" x="38.75" y="32.16" width="3.56" height="5.34"/>
		</defs>
		<clipPath id="SVGID_00000137130398815066413750000011305500445104324006_">
			<use xlink:href="#SVGID_00000139282690840746190230000015619944626991523766_"  style="overflow:visible;"/>
		</clipPath>
		
			<path style="clip-path:url(#SVGID_00000137130398815066413750000011305500445104324006_);fill:none;stroke:#000000;stroke-width:1.000000e-06;stroke-miterlimit:10;stroke-opacity:0;" d="
			M40.53,34.83L40.53,34.83z"/>
	</g>
	<g>
		<defs>
			<rect id="SVGID_00000109719115846161980460000013147461430726965381_" x="38.75" y="32.16" width="3.56" height="5.34"/>
		</defs>
		<clipPath id="SVGID_00000003824043525974842750000013177575244049736380_">
			<use xlink:href="#SVGID_00000109719115846161980460000013147461430726965381_"  style="overflow:visible;"/>
		</clipPath>
		<path style="clip-path:url(#SVGID_00000003824043525974842750000013177575244049736380_);fill:#E4E4E3;" d="M40.57,37.27
			c-0.28,0-0.69-0.18-0.82-0.86c-0.08-0.43-0.08-1.08-0.08-1.5c0-0.45,0-0.92,0.06-1.31c0.13-0.84,0.67-0.91,0.84-0.91
			c0.23,0,0.7,0.13,0.84,0.83c0.07,0.4,0.07,0.94,0.07,1.38c0,0.53,0,1.01-0.08,1.47C41.3,37.06,40.89,37.27,40.57,37.27 M42.07,35
			c0-0.57-0.04-1.14-0.28-1.66c-0.33-0.68-0.91-0.79-1.21-0.79c-0.43,0-0.94,0.18-1.23,0.84c-0.23,0.49-0.26,1.04-0.26,1.61
			c0,0.53,0.03,1.17,0.32,1.71c0.31,0.57,0.82,0.72,1.17,0.72c0.38,0,0.92-0.15,1.23-0.82C42.04,36.11,42.07,35.56,42.07,35z"/>
	</g>
</g>
<g>
	<g>
		<defs>
			<rect id="SVGID_00000118364319281764209220000016358630258059454118_" x="39.31" y="49.96" width="2.44" height="5.38"/>
		</defs>
		<clipPath id="SVGID_00000012440604782405356110000002841119475267724178_">
			<use xlink:href="#SVGID_00000118364319281764209220000016358630258059454118_"  style="overflow:visible;"/>
		</clipPath>
		<path style="clip-path:url(#SVGID_00000012440604782405356110000002841119475267724178_);fill:#E4E4E3;" d="M40.79,50.53
			c0-0.17,0-0.19-0.17-0.19c-0.44,0.46-1.08,0.46-1.31,0.46v0.22c0.14,0,0.57,0,0.94-0.19v3.72c0,0.26-0.02,0.34-0.67,0.34h-0.23
			v0.22c0.25-0.02,0.88-0.02,1.16-0.02c0.29,0,0.91,0,1.16,0.02v-0.22h-0.23c-0.65,0-0.67-0.08-0.67-0.34v-4.02"/>
	</g>
</g>
<g>
	<g>
		<defs>
			<rect id="SVGID_00000126292164876373149120000005015582590833246900_" x="114.15" y="8.81" width="3.56" height="5.34"/>
		</defs>
		<clipPath id="SVGID_00000111151338534084984680000016341472468413851293_">
			<use xlink:href="#SVGID_00000126292164876373149120000005015582590833246900_"  style="overflow:visible;"/>
		</clipPath>
		
			<path style="clip-path:url(#SVGID_00000111151338534084984680000016341472468413851293_);fill:none;stroke:#000000;stroke-width:1.000000e-06;stroke-miterlimit:10;stroke-opacity:0;" d="
			M115.93,11.48L115.93,11.48z"/>
	</g>
	<g>
		<defs>
			<rect id="SVGID_00000156577899663608081960000013589037009559217319_" x="114.15" y="8.81" width="3.56" height="5.34"/>
		</defs>
		<clipPath id="SVGID_00000038394350605604599210000016555084415943595446_">
			<use xlink:href="#SVGID_00000156577899663608081960000013589037009559217319_"  style="overflow:visible;"/>
		</clipPath>
		<path style="clip-path:url(#SVGID_00000038394350605604599210000016555084415943595446_);fill:#E4E4E3;" d="M115.97,13.91
			c-0.28,0-0.69-0.18-0.82-0.86c-0.08-0.43-0.08-1.08-0.08-1.5c0-0.45,0-0.92,0.06-1.31c0.13-0.84,0.67-0.91,0.84-0.91
			c0.23,0,0.7,0.13,0.84,0.83c0.07,0.4,0.07,0.94,0.07,1.38c0,0.53,0,1.01-0.08,1.47C116.7,13.7,116.29,13.91,115.97,13.91
			 M117.47,11.64c0-0.57-0.04-1.14-0.28-1.66c-0.33-0.68-0.91-0.79-1.21-0.79c-0.43,0-0.94,0.18-1.23,0.84
			c-0.23,0.49-0.26,1.04-0.26,1.61c0,0.53,0.03,1.17,0.32,1.71c0.31,0.57,0.82,0.72,1.17,0.72c0.38,0,0.92-0.15,1.23-0.82
			C117.43,12.76,117.47,12.2,117.47,11.64z"/>
	</g>
</g>
<g>
	<g>
		<defs>
			<rect id="SVGID_00000106847965319818308470000007837367341197560456_" x="151.94" y="9.03" width="3.27" height="4.9"/>
		</defs>
		<clipPath id="SVGID_00000062169934307626817890000008711249383184437429_">
			<use xlink:href="#SVGID_00000106847965319818308470000007837367341197560456_"  style="overflow:visible;"/>
		</clipPath>
		
			<path style="clip-path:url(#SVGID_00000062169934307626817890000008711249383184437429_);fill:none;stroke:#000000;stroke-width:1.000000e-06;stroke-miterlimit:10;stroke-opacity:0;" d="
			M153.57,11.48L153.57,11.48z"/>
	</g>
	<g>
		<defs>
			<rect id="SVGID_00000095308669150998406290000001312154555083254717_" x="151.94" y="9.03" width="3.27" height="4.9"/>
		</defs>
		<clipPath id="SVGID_00000083072573570674309080000014065071541728212617_">
			<use xlink:href="#SVGID_00000095308669150998406290000001312154555083254717_"  style="overflow:visible;"/>
		</clipPath>
		<path style="clip-path:url(#SVGID_00000083072573570674309080000014065071541728212617_);fill:#E4E4E3;" d="M152.82,13.21
			l0.69-0.67c1.02-0.9,1.41-1.25,1.41-1.9c0-0.74-0.59-1.26-1.38-1.26c-0.74,0-1.22,0.6-1.22,1.18c0,0.36,0.33,0.36,0.35,0.36
			c0.11,0,0.34-0.08,0.34-0.34c0-0.17-0.12-0.34-0.34-0.34c-0.05,0-0.06,0-0.08,0.01c0.15-0.42,0.5-0.66,0.88-0.66
			c0.59,0,0.87,0.53,0.87,1.06c0,0.52-0.33,1.03-0.68,1.44l-1.25,1.39c-0.07,0.07-0.07,0.08-0.07,0.24h2.41l0.18-1.13h-0.16
			c-0.03,0.2-0.08,0.48-0.14,0.58c-0.05,0.05-0.47,0.05-0.62,0.05h-1.19"/>
	</g>
</g>
<g>
	<g>
		<defs>
			<rect id="SVGID_00000088841489439141314210000008599113404956051631_" x="151.44" y="77.11" width="3.16" height="4.93"/>
		</defs>
		<clipPath id="SVGID_00000147937472534851672160000011999214612921427085_">
			<use xlink:href="#SVGID_00000088841489439141314210000008599113404956051631_"  style="overflow:visible;"/>
		</clipPath>
		<path style="clip-path:url(#SVGID_00000147937472534851672160000011999214612921427085_);fill:#E4E4E3;" d="M153.2,79.38
			c0.57-0.19,0.97-0.67,0.97-1.22c0-0.57-0.61-0.95-1.27-0.95c-0.7,0-1.22,0.41-1.22,0.94c0,0.23,0.15,0.36,0.35,0.36
			c0.21,0,0.35-0.15,0.35-0.35c0-0.35-0.32-0.35-0.43-0.35c0.21-0.34,0.67-0.43,0.92-0.43c0.28,0,0.66,0.15,0.66,0.77
			c0,0.08-0.01,0.48-0.19,0.79c-0.21,0.33-0.44,0.35-0.62,0.36c-0.06,0.01-0.22,0.02-0.27,0.02c-0.06,0.01-0.1,0.01-0.1,0.08
			c0,0.08,0.05,0.08,0.17,0.08h0.3c0.57,0,0.82,0.47,0.82,1.15c0,0.94-0.48,1.14-0.78,1.14s-0.82-0.12-1.06-0.53
			c0.24,0.03,0.46-0.12,0.46-0.38c0-0.25-0.19-0.39-0.39-0.39c-0.17,0-0.39,0.1-0.39,0.4c0,0.63,0.64,1.09,1.4,1.09
			c0.84,0,1.47-0.63,1.47-1.33C154.35,80.07,153.92,79.53,153.2,79.38"/>
	</g>
</g>
<g>
	<g>
		<defs>
			<rect id="SVGID_00000111887799995868681510000008917678602476766855_" x="113.49" y="76.88" width="2.44" height="5.38"/>
		</defs>
		<clipPath id="SVGID_00000026860864621983399400000017913911654005897885_">
			<use xlink:href="#SVGID_00000111887799995868681510000008917678602476766855_"  style="overflow:visible;"/>
		</clipPath>
		<path style="clip-path:url(#SVGID_00000026860864621983399400000017913911654005897885_);fill:#E4E4E3;" d="M114.98,77.45
			c0-0.17,0-0.19-0.17-0.19c-0.44,0.46-1.08,0.46-1.31,0.46v0.22c0.14,0,0.57,0,0.94-0.19v3.72c0,0.26-0.02,0.34-0.67,0.34h-0.23
			v0.22c0.25-0.02,0.88-0.02,1.16-0.02s0.91,0,1.16,0.02v-0.22h-0.23c-0.65,0-0.67-0.08-0.67-0.34v-4.02"/>
	</g>
</g>
<polygon class="st9" points="93.17,60.51 93.17,60.51 93.17,60.51 93.17,60.51 93.17,60.51 93.17,60.51 93.17,60.51 93.17,60.51 
	93.17,60.51 93.17,60.51 93.17,60.51 93.17,60.51 93.17,60.51 93.17,60.51 93.17,60.51 93.17,60.51 93.17,60.51 93.17,60.51 
	93.17,60.51 93.17,60.51 93.17,60.51 93.17,60.51 93.17,60.51 93.17,60.51 93.17,60.51 93.17,60.51 93.17,60.51 93.17,60.51 
	93.17,60.51 93.17,60.51 93.17,60.51 93.17,60.51 93.17,60.51 93.17,60.51 93.17,60.51 93.17,60.51 93.17,60.51 93.17,60.51 
	93.17,60.51 93.17,60.51 93.17,60.51 93.17,60.51 93.17,60.51 93.17,60.51 93.17,60.51 93.17,60.51 93.17,60.51 93.17,60.51 
	93.17,60.51 93.17,60.51 93.17,60.51 93.17,60.51 93.17,60.51 93.17,60.51 93.17,60.51 93.17,60.51 93.17,60.51 93.17,60.51 
	93.17,60.51 93.17,60.51 93.17,60.51 93.17,60.51 93.17,60.51 93.17,60.51 93.17,60.51 93.17,60.51 93.17,60.51 93.17,60.51 
	93.17,60.51 93.17,60.51 93.17,60.51 93.17,60.51 93.17,60.51 93.17,60.51 93.17,60.51 93.17,60.51 93.17,60.51 93.17,60.51 
	93.17,60.51 93.17,60.51 93.17,60.51 93.17,60.51 93.17,60.51 93.17,60.51 93.17,60.51 93.17,60.51 "/>
<polygon class="st33" points="100.72,56.58 100.72,56.58 100.72,56.58 100.72,56.58 100.72,56.58 100.72,56.58 100.72,56.58 
	100.72,56.58 100.72,56.58 100.72,56.58 100.72,56.58 100.72,56.58 100.72,56.58 100.72,56.58 100.72,56.58 100.72,56.58 
	100.72,56.58 100.72,56.58 100.72,56.58 100.72,56.58 100.72,56.58 100.72,56.58 100.72,56.58 100.72,56.58 100.72,56.58 
	100.72,56.58 100.72,56.58 100.72,56.58 100.72,56.58 100.72,56.58 100.72,56.58 100.72,56.58 100.72,56.58 100.72,56.58 
	100.72,56.58 100.72,56.58 100.72,56.58 100.72,56.58 100.72,56.58 100.72,56.58 100.72,56.58 100.72,56.58 100.72,56.58 
	100.72,56.58 100.72,56.58 100.72,56.58 100.72,56.58 100.72,56.58 100.72,56.58 100.72,56.58 100.72,56.58 100.72,56.58 
	100.72,56.58 100.72,56.58 100.72,56.58 100.72,56.58 100.72,56.58 100.72,56.58 100.72,56.58 100.72,56.58 100.72,56.58 
	100.72,56.58 100.72,56.58 100.72,56.58 100.72,56.58 100.72,56.58 100.72,56.58 100.72,56.58 100.72,56.58 100.72,56.58 
	100.72,56.58 100.72,56.58 100.72,56.58 100.72,56.58 100.72,56.58 100.72,56.58 100.72,56.58 100.72,56.58 100.72,56.58 
	100.72,56.58 100.72,56.58 100.72,56.58 100.72,56.58 100.72,56.58 100.72,56.58 100.72,56.58 "/>
<g>
	<defs>
		<rect id="SVGID_00000151543226586613843830000005238589078722186939_" x="99.21" y="43.17" width="9" height="4"/>
	</defs>
	<clipPath id="SVGID_00000078047008051749659290000002427477641291285155_">
		<use xlink:href="#SVGID_00000151543226586613843830000005238589078722186939_"  style="overflow:visible;"/>
	</clipPath>
	
		<path style="opacity:0;clip-path:url(#SVGID_00000078047008051749659290000002427477641291285155_);fill:none;stroke:#000000;stroke-width:1.000000e-06;stroke-miterlimit:10;" d="
		M103.71,45.17L103.71,45.17z"/>
	<path style="clip-path:url(#SVGID_00000078047008051749659290000002427477641291285155_);fill:#E4E4E4;" d="M107.03,46.39
		c0.17,0,0.39,0,0.39-0.24c0-0.24-0.23-0.24-0.41-0.24h-7.13c-0.18,0-0.41,0-0.41,0.24c0,0.24,0.23,0.24,0.4,0.24H107.03
		 M107.02,44.07c0.18,0,0.41,0,0.41-0.24c0-0.24-0.23-0.24-0.39-0.24h-7.16c-0.17,0-0.4,0-0.4,0.24c0,0.24,0.23,0.24,0.41,0.24
		H107.02z"/>
</g>
</svg>
