<?xml version="1.0" encoding="utf-8"?>
<svg xmlns="http://www.w3.org/2000/svg" viewBox="0 0 450 200" xmlns:bx="https://boxy-svg.com">
  <defs>
    <linearGradient id="gradient__zone__water" bx:pinned="true">
      <title>_ZONE_ Water</title>
      <stop style="stop-color: rgba(255, 221, 225, 0);" offset="0"/>
      <stop style="stop-color: rgba(0, 16, 255, 0.243);" offset="1"/>
    </linearGradient>
    <linearGradient id="gradient__zone__noaccess" bx:pinned="true">
      <title>_ZONE_ Unaccessible</title>
      <stop offset="0" style="stop-color: rgba(216, 216, 216, 0.584);"/>
      <stop offset="1" style="stop-color: rgb(123, 123, 123);"/>
    </linearGradient>
    <linearGradient id="gradient__zone__workspace" bx:pinned="true">
      <title>_ZONE_ Workspace</title>
      <stop offset="0" style="stop-color: rgba(255, 255, 255, 0);"/>
      <stop offset="1" style="stop-color: rgba(0, 255, 241, 0.184);"/>
    </linearGradient>
    <linearGradient id="gradient__zone__building" bx:pinned="true">
      <title>_ZONE_ Building</title>
      <stop offset="0" style="stop-color: rgba(222, 222, 222, 0);"/>
      <stop offset="1" style="stop-color: rgb(127, 122, 156);"/>
    </linearGradient>
    <linearGradient id="color__tabletop" gradientUnits="userSpaceOnUse" bx:pinned="true">
      <title>tabletop_color</title>
      <stop style="stop-color: rgb(215, 152, 33)"/>
    </linearGradient>
    <symbol id="symbol__seat__120x60" viewBox="0 0 12 8" bx:pinned="true" preserveAspectRatio="xMidYMin">
      <title>_SEAT_ 120x60</title>
      <rect style="vector-effect: non-scaling-stroke; stroke: rgb(0, 0, 0); fill: rgb(246, 213, 151);" transform="matrix(1, 0, 0, 1, -123.53600311279298, -30.229999542236328)" x="123.536" y="30.23" width="12" height="6" rx="1" ry="1"/>
      <path style="fill: none; paint-order: fill; stroke: rgb(0, 0, 0);" d="M 2.431 2.866 L 3.777 6.523 L 8.248 6.52 L 9.69 2.866"/>
      <ellipse style="vector-effect: non-scaling-stroke; stroke: rgb(0, 0, 0); fill: rgb(218, 218, 218);" cx="6.013" cy="6.015" rx="1.322" ry="1.37"/>
      <ellipse style="stroke: inherit; vector-effect: non-scaling-stroke; fill: none;" cx="5.998" cy="2.281" rx="1.735" ry="1.735"/>
    </symbol>
    <symbol id="symbol__seat__125x75" viewBox="0 0 12.5 8.5" bx:pinned="true">
      <title>_SEAT_ 125x75</title>
      <rect style="vector-effect: non-scaling-stroke; stroke: rgb(0, 0, 0); fill: rgb(246, 213, 151); stroke-width: 1;" width="12.5" height="7.5" rx="1" ry="1"/>
      <g transform="matrix(1, 0, 0, 1, -0.442333, 1.34402)">
        <path style="stroke: rgb(0, 0, 0); fill: none; stroke-width: 1;" d="M 3.217 2.98 L 4.563 6.637 L 9.034 6.634 L 10.476 2.98"/>
        <ellipse style="vector-effect: non-scaling-stroke; stroke: rgb(0, 0, 0); fill: rgb(218, 218, 218); stroke-width: 1;" cx="6.799" cy="6.129" rx="1.322" ry="1.37"/>
      </g>
    </symbol>
    <symbol id="symbol__seat__110x67" viewBox="0 0 11 7.7" bx:pinned="true">
      <title>_SEAT_ 110x67</title>
      <rect style="vector-effect: non-scaling-stroke; stroke: rgb(0, 0, 0); fill: rgb(246, 213, 151); stroke-width: 1;" width="11" height="6.7" rx="1" ry="1"/>
      <g transform="matrix(1, 0, 0, 1, -1.39433, 0.549959)">
        <path style="stroke: rgb(0, 0, 0); fill: none; stroke-width: 1;" d="M 3.217 2.98 L 4.563 6.637 L 9.034 6.634 L 10.476 2.98"/>
        <ellipse style="vector-effect: non-scaling-stroke; stroke: rgb(0, 0, 0); fill: rgb(218, 218, 218); stroke-width: 1;" cx="6.799" cy="6.129" rx="1.322" ry="1.37"/>
      </g>
    </symbol>
    <radialGradient id="gradient-14-0" href="#gradient__zone__workspace" gradientUnits="userSpaceOnUse" cx="177.104" cy="56.019" r="52.994" gradientTransform="matrix(1, 0, 0, 1, -8.015532, 27.644632)"/>
    <radialGradient id="gradient-0-0" href="#gradient__zone__building" gradientUnits="userSpaceOnUse" cx="212.228" cy="80.668" r="208.895" gradientTransform="matrix(1, 0, 0, 1, -3.085873, -5.014578)"/>
    <radialGradient id="color-0-0" href="#gradient__zone__water" gradientUnits="userSpaceOnUse" cx="66.803" cy="67.111" r="23.416" gradientTransform="matrix(1, 0, 0, 1, -32.663825, 36.271597)"/>
    <linearGradient id="gradient__zone__walking" bx:pinned="true">
      <title>_ZONE_ Walking</title>
      <stop offset="0" style="stop-color: rgba(216, 216, 216, 0);"/>
      <stop offset="1" style="stop-color: rgb(123, 123, 123);"/>
    </linearGradient>
    <radialGradient id="gradient-14-1" href="#gradient__zone__workspace" gradientUnits="userSpaceOnUse" cx="336.841" cy="96.977" r="74.668" gradientTransform="matrix(1, 0, 0, 1, -3.085873, -5.014578)"/>
    <radialGradient id="gradient-4-0" href="#gradient__zone__noaccess" gradientUnits="userSpaceOnUse" cx="224.934" cy="96.786" r="41.057" gradientTransform="matrix(1, 0, 0, 1, -3.085873, -5.014578)"/>
    <radialGradient id="gradient-2-0" href="#gradient__zone__walking" gradientUnits="userSpaceOnUse" cx="201.509" cy="75.918" r="193.502"/>
    <linearGradient id="gradient__zone__stairs_elevators">
      <title>_ZONE_ StairsElevators</title>
      <stop offset="0" style="stop-color: rgba(255, 221, 225, 0);"/>
      <stop offset="1" style="stop-color: rgba(0, 0, 0, 0.243);"/>
    </linearGradient>
    <radialGradient id="gradient-1-1" href="#gradient__zone__stairs_elevators" gradientUnits="userSpaceOnUse" cx="381.592" cy="25.966" r="13.514"/>
    <radialGradient id="color-0-1" href="#gradient__zone__water" gradientUnits="userSpaceOnUse" cx="22.341" cy="-35.693" r="19.286" gradientTransform="matrix(1, 0, 0, 1, 4, -10)"/>
    <radialGradient id="gradient-4-1" href="#gradient__zone__noaccess" gradientUnits="userSpaceOnUse" cx="67.141" cy="-35.693" r="19.286" gradientTransform="matrix(1, 0, 0, 1, 4, -10)"/>
    <radialGradient id="gradient-14-2" href="#gradient__zone__workspace" gradientUnits="userSpaceOnUse" cx="111.941" cy="-35.693" r="19.286" gradientTransform="matrix(1, 0, 0, 1, 4, -10)"/>
    <radialGradient id="gradient-0-1" href="#gradient__zone__building" gradientUnits="userSpaceOnUse" cx="156.742" cy="-35.693" r="19.286" gradientTransform="matrix(1, 0, 0, 1, 4, -10)"/>
    <radialGradient id="gradient-2-1" href="#gradient__zone__walking" gradientUnits="userSpaceOnUse" cx="201.542" cy="-35.693" r="19.286" gradientTransform="matrix(1, 0, 0, 1, 4, -10)"/>
    <radialGradient id="gradient-1-0" href="#gradient__zone__stairs_elevators" gradientUnits="userSpaceOnUse" cx="246.341" cy="-35.693" r="19.286" gradientTransform="matrix(1, 0, 0, 1, 4, -10)"/>
    <linearGradient gradientUnits="userSpaceOnUse" x1="22.589" y1="-80.245" x2="22.589" y2="-54.015" id="color-0-3" href="#gradient__zone__water" gradientTransform="matrix(1, 0, 0, 1, 4, -10)"/>
    <linearGradient gradientUnits="userSpaceOnUse" x1="67.389" y1="-80.245" x2="67.389" y2="-54.015" id="gradient-4-3" href="#gradient__zone__noaccess" gradientTransform="matrix(1, 0, 0, 1, 4, -10)"/>
    <linearGradient gradientUnits="userSpaceOnUse" x1="201.789" y1="-80.245" x2="201.789" y2="-54.015" id="gradient-2-3" href="#gradient__zone__walking" gradientTransform="matrix(1, 0, 0, 1, 4, -10)"/>
    <linearGradient id="gradient-14-4" href="#gradient__zone__workspace" gradientUnits="userSpaceOnUse" x1="112.189" y1="-80.245" x2="112.189" y2="-54.015" gradientTransform="matrix(1, 0, 0, 1, 4, -10)"/>
    <linearGradient id="gradient-0-2" href="#gradient__zone__building" gradientUnits="userSpaceOnUse" x1="156.99" y1="-80.245" x2="156.99" y2="-54.015" gradientTransform="matrix(1, 0, 0, 1, 4, -10)"/>
    <linearGradient id="gradient-1-2" href="#gradient__zone__stairs_elevators" gradientUnits="userSpaceOnUse" x1="246.59" y1="-80.245" x2="246.59" y2="-54.015" gradientTransform="matrix(1, 0, 0, 1, 4, -10)"/>
    <linearGradient id="color__zone__water" bx:pinned="true" gradientUnits="userSpaceOnUse" gradientTransform="matrix(1, 0, 0, 1, 4, -10)">
      <title>_ZONE_ Water</title>
      <stop style="stop-color: rgb(237, 226, 244);"/>
    </linearGradient>
    <linearGradient id="color__zone__noaccess" bx:pinned="true" gradientUnits="userSpaceOnUse" gradientTransform="matrix(1, 0, 0, 1, 4, -10)">
      <title>_ZONE_ NoAccess</title>
      <stop style="stop-color: rgb(169, 169, 169);"/>
    </linearGradient>
    <linearGradient id="color__zone__workspace" bx:pinned="true" gradientUnits="userSpaceOnUse" gradientTransform="matrix(1, 0, 0, 1, 4, -10)">
      <title>_ZONE_ Workspace</title>
      <stop style="stop-color: rgb(218, 246, 247);"/>
    </linearGradient>
    <linearGradient id="color__zone__building" bx:pinned="true" gradientUnits="userSpaceOnUse" gradientTransform="matrix(1, 0, 0, 1, 4, -10)">
      <title>_ZONE_ Building</title>
      <stop style="stop-color: rgb(191, 177, 197);"/>
    </linearGradient>
    <linearGradient id="color__zone__walking" bx:pinned="true" gradientUnits="userSpaceOnUse" gradientTransform="matrix(1, 0, 0, 1, 4, -10)">
      <title>_ZONE_ Walking</title>
      <stop style="stop-color: rgb(207, 207, 207);"/>
    </linearGradient>
    <linearGradient id="color__zone__stairs_elevators" bx:pinned="true" gradientUnits="userSpaceOnUse" gradientTransform="matrix(1, 0, 0, 1, 4, -10)">
      <title>_ZONE_ StairsElevators</title>
      <stop style="stop-color: rgb(229, 229, 229);"/>
    </linearGradient>
    <radialGradient id="color-0-2" href="#gradient__zone__water" gradientUnits="userSpaceOnUse" cx="23.371" cy="-11.378" r="16.674" gradientTransform="matrix(1, 0, 0, 1, 4, -10)"/>
    <radialGradient id="gradient-4-2" href="#gradient__zone__noaccess" gradientUnits="userSpaceOnUse" cx="66.566" cy="-11.265" r="16.674" gradientTransform="matrix(1, 0, 0, 1, 4, -10)"/>
    <radialGradient id="gradient-14-3" href="#gradient__zone__workspace" gradientUnits="userSpaceOnUse" cx="113.366" cy="-12.53" r="16.674" gradientTransform="matrix(1, 0, 0, 1, 4, -10)"/>
    <radialGradient id="gradient-0-3" href="#gradient__zone__building" gradientUnits="userSpaceOnUse" cx="157.635" cy="-11.265" r="16.674" gradientTransform="matrix(1, 0, 0, 1, 4, -10)"/>
    <radialGradient id="gradient-2-2" href="#gradient__zone__walking" gradientUnits="userSpaceOnUse" cx="201.062" cy="-11.265" r="16.674" gradientTransform="matrix(1, 0, 0, 1, 4, -10)"/>
    <radialGradient id="gradient-1-3" href="#gradient__zone__stairs_elevators" gradientUnits="userSpaceOnUse" cx="246.596" cy="-10.422" r="16.674" gradientTransform="matrix(1, 0, 0, 1, 4, -10)"/>
    <symbol id="symbol_bigplant" viewBox="0 0 9.397 9.5659" bx:pinned="true">
      <title>Big Plant</title>
      <g transform="matrix(0.07875800877809523, 0, 0, 0.07875800877809525, -0.3658093081435254, -0.17878053311473252)" id="Layer_10" style="">
        <g>
          <g>
            <ellipse style="fill:#D44A28;" cx="64" cy="113.9" rx="21.31" ry="9.83"/>
            <path style="fill:#ED603A;" d="M99.53,86.45c0,14.78-15.91,30.86-35.53,30.86s-35.53-16.08-35.53-30.86S99.53,71.67,99.53,86.45z"/>
            <ellipse style="fill:#FF8A65;" cx="64" cy="84.05" rx="35.13" ry="10.32"/>
            <path style="fill:#5D4037;" d="M93.71,83.35c0,3.27-11.14,6.89-29.71,6.89c-18.27,0-29.71-3.62-29.71-6.89 c0-3.27,13.3-7.16,29.71-7.16S93.71,80.09,93.71,83.35z"/>
          </g>
          <path style="opacity:0.18;fill:#212121;" d="M99.09,84.51c0.02-0.15,0.04-0.31,0.04-0.46c0-5.7-15.73-10.32-35.13-10.32 s-35.13,4.62-35.13,10.32c0,0.15,0.02,0.31,0.04,0.46c-0.29,0.62-0.44,1.27-0.44,1.94c0,6.79,3.13,13.16,7.81,18.35 c0.67,0.74,9.54-1.36,15.25-4.75c10.95-6.49,19.68-10.02,19.68-10.02s-4.13,0.19-7.22,0.19c-18.27,0-29.71-3.62-29.71-6.89 c0-3.27,13.3-7.16,29.71-7.16s29.71,3.89,29.71,7.16c0,2.32-5.63,4.82-15.54,6.07c0.92-0.01,2.38,0.12,4.14,0.82 c5.37,2.12,12.59,11.21,14.53,7.06c1.69-3.63,2.69-6.68,2.69-10.85C99.53,85.77,99.37,85.12,99.09,84.51z"/>
          <linearGradient id="SVGID_1_" gradientUnits="userSpaceOnUse" x1="65.7675" y1="59.226" x2="66.5058" y2="25.8935">
            <stop offset="0.3649" style="stop-color:#1B5E20"/>
            <stop offset="0.9495" style="stop-color:#2E7D32"/>
          </linearGradient>
          <path style="fill:url(#SVGID_1_);" d="M85.59,46.73c0.04-0.29,0.21-1.74-2.02-2.16c-2.23-0.42-4.01-0.25-4.01-0.25l-1.27-3.61 c0.97-3.28,2.58-4.81,1.21-8.19c-0.32-0.78-2.03-1.24-3.44-0.84c0,0-1.4-0.04-2.61,0.81c-1.04,0.74-5.42,4.44-6.17,2.27 c-0.31-0.9,0.14-1.44,2.05-2.81c1.71-1.22,3.61-2.25,5.11-3.73c2.57-2.55,0.95-6.13,0.95-6.13s-2.04-0.77-3.67,0.47 c-1.24,0.94-2.21,1.48-2.79,1.87c-2.83,1.9-3.01-0.86-1.21-1.93l3.34-2.25c3.44-2.39,1.9-6.25,1.9-6.25s-0.99-0.31-2.29,0.58 c-0.46,0.32-0.95,0.75-1.67,1.1c-1.06,0.51-1.78,0.78-2.19,0.05c-0.28-0.5,0.23-1.11,1.21-1.81c1.12-0.79,1.73-0.92,2.51-2.03 c1.21-1.71,0.89-3.87,0.57-4.33c-0.31-0.45-2.72,2.21-3.16,1.19c-0.34-0.79,0.74-2.23-0.41-4.27c-0.86-1.52-2.47-2.21-2.47-2.21 c-1.23,1.64-1.38,4.41-0.35,6.21c0.63,1.1,1.35,2.09,0.7,2.69c-0.46,0.42-1.05-0.16-2.01-0.79c-1.45-0.94-3.36-0.2-3.36-0.2 s-0.85,2.46,0.46,4.09c0.95,1.19,1.72,1.64,3.19,2.88c1.57,1.32,0.64,2.82-1.22,1.83c-0.65-0.35-1.56-1.07-2.57-1.51 c-1.5-0.66-3.66,0.35-3.66,0.35s-0.81,3.69,1.25,5c0.7,0.45,3.62,2.4,4.61,2.91c2.05,1.06,1.56,3.65-0.74,2.56 c-1.64-0.78-3.39-2.09-5.2-2.88c-2.4-1.05-4.01,0.07-4.01,0.07s-0.72,3.22,1.13,5.02c1.22,1.19,4.18,3.13,5.35,3.83 c1.13,0.67,2.89,1.41,2.49,2.24c-1.09,2.28-4.6,0.61-6.17-0.28c-2.78-1.58-5.71-2.7-7.36-1.41c-1.66,1.3-0.45,5.26-0.51,7 c-0.14,3.86,3.12,4.02,4.26,7.25c0.22,0.63,0.17,1.33,0.13,2c-0.27,4.41,0.09,8.87,1.05,13.18c0.11,0.49,0.25,1.02,0.63,1.34 c0.37,0.32,0.9,0.38,1.39,0.42c5.01,0.44,10.05,0.66,15.08,0.66c3.8,0,7.69-0.15,11.2-1.6c0.64-0.27,1.31-0.61,1.66-1.21 c0.31-0.52-2.15-7.32-1.76-7.78C83.01,53.43,85.14,49.76,85.59,46.73z"/>
          <radialGradient id="SVGID_2_" cx="85.4683" cy="71.3522" r="27.6837" gradientUnits="userSpaceOnUse">
            <stop offset="0.209" style="stop-color:#1B5E20"/>
            <stop offset="0.7403" style="stop-color:#2E7D32"/>
          </radialGradient>
          <path style="fill:url(#SVGID_2_);" d="M121,39.51c-0.59-0.07-0.99,0.04-0.7-0.6c0.36-0.81,0.45-1.1,0.59-1.66 c0.34-1.42-0.2-2.37-0.2-2.37s-1.92,0.22-2.8,2c-0.46,0.93-1.12,3.21-2.23,2.41c-0.46-0.34-0.05-0.9,0.01-1.82 c0.14-1.95-1.39-2.34-1.39-2.34s-1.89,0.55-2.39,2.28c-0.42,1.47-0.52,2.27-0.75,3.62c-0.22,1.3-0.07,1.94-1,2.18 c-0.8,0.21-1.26-0.4-1.16-1.38c0.13-1.4,0.14-2.61,0.14-2.61c0.29-2.17-1.93-2.52-1.93-2.52s-2.32,0.2-2.94,2.77 c-0.34,1.43-0.43,2.01-0.74,3.94c-0.15,0.92-0.16,2.09-0.96,2.79c-0.85,0.74-1.84,0.08-1.81-1.52c0.02-1.18,0.15-1.91,0.07-3.65 c-0.08-1.74-1.95-1.85-1.95-1.85s-2.89,1.24-3,4.22c-0.08,2.08-0.13,5.49-0.07,6.46c0,0,0.29,1.8-1.12,2.35 c-0.86,0.32-1.85-0.22-1.9-1.79c-0.07-2.09-0.01-2.3-0.13-4.95c-0.11-2.48-2.13-3.19-2.13-3.19s-3.07,0.34-3.66,3.3 c-0.35,1.73-0.32,9.3-2.82,9.22c-2.9-0.1-8.76-6.45-10.76,0.76c-0.34,1.21-1.05,2.32-2.07,3.05c-1.33,0.97-3.01,1.27-4.6,1.72 c-5.25,1.48-9.82,4.94-12.96,9.36c-1.66,2.34-7.07,12.35-3.9,14.67c1.13,0.83,4.84,0.53,6.37,0.53c3.39,0.01,6.77,0.02,10.16,0.02 c4.94,0.01,9.87,0.02,14.81,0.04c0.18-1.04,0.22-2.05,0.16-3.04l1.33,0.01l9.58,0.37c0,0,1.95-3.7,3.74-4.5 c0.24-0.11,3.75-2.7,3.64-2.94c-1.4-3.1-9.26-6.07-9.26-6.07c1.27-0.1,3.13-1.54,6.53,0.3c4.05,2.19,6.53,1.19,6.53,1.19 s0.9-1.35-1.74-4.72c-1.38-1.77-7.47-4.89-7.47-4.89c-0.66-0.45-2.41-0.9-1.59-2.19c0.56-0.89,2.92-0.12,4.99,1.01 c1.75,0.96,1.45,1.07,5.37,3.24c2.44,1.35,5.81,0,5.81,0s0.18-3.05-1.95-4.99c-1.8-1.64-5.94-4.12-5.94-4.12 c-0.96-0.82-1.11-1.48-0.33-1.91c1.13-0.61,2.49,0.24,3.77,0.89c1.28,0.65,4.79,2.37,4.79,2.37c1.98,1.08,5.03,0.74,5.03,0.74 s0.68-2.44-0.29-3.6c-1.4-1.68-5.43-3.47-5.43-3.47c-1.01-0.74-1.27-1.19-0.7-1.8c0.57-0.6,1.09-0.59,2.78,0.2 c1.78,0.84,3.16,1.52,4.76,2.04s4.54-0.47,4.54-0.47s-0.09-2.27-1.59-3.27c-1.16-0.77-2.56-1.33-2.56-1.33 c-0.78-0.27-1.39-0.89-1-1.62c0.46-0.84,2.24-0.12,3.37,0.1c1.65,0.32,2.55,0.4,4.26-0.22c1.12-0.41,1.75-1.56,1.75-1.56 S123.82,39.86,121,39.51z"/>
          <radialGradient id="SVGID_3_" cx="63.3614" cy="80.6637" r="33.5337" gradientUnits="userSpaceOnUse">
            <stop offset="0.209" style="stop-color:#1B5E20"/>
            <stop offset="0.7403" style="stop-color:#2E7D32"/>
          </radialGradient>
          <path style="fill:url(#SVGID_3_);" d="M82.74,62.05c-1.49-1.28-3.51-1.97-5.47-1.75c-0.98,0.11-1.96,0.42-2.95,0.34 c-0.99-0.09-2.04-0.76-2.09-1.75c-0.03-0.65,0.36-1.23,0.7-1.78c0.89-1.44,1.54-3.16,1.14-4.8s-2.21-2.99-3.79-2.39 c-1.5,0.57-1.99,2.4-2.5,3.92c-0.69,2.07-1.78,4.01-3.18,5.69c-0.61,0.73-1.51,1.48-2.42,1.19c-1.31-0.4,1.38-7.85-1.48-13.97 c-0.86-1.83-1.58-3.49-2.28-3.49c-1.21,0-1.61,4.11-1.95,5.6c-0.3,1.33-0.98,3.88-2.27,4.06c-0.86,0.12-1.91-1.26-2.18-1.8 c-0.9-1.78-2.61-6.24-4.53-7.26c-1.47-0.77-3.21,0.28-3.21,2.74c0,0.83,1.78,6.34,2.92,9.4c0.36,0.97-1.56,1.68-2.51-0.13 c0,0-2.93-4.89-4.08-6.54c-1.72-2.48-4.84-2.03-4.84-2.03s-1.26,2.05-0.21,5.04c0.87,2.5,0.78,1.84,1.54,3.79 c0.58,1.47-0.12,2.35-1.03,2.4c-1.51,0.05-1.96-1.71-1.96-1.71c-0.33-0.91-1.73-4.02-2.63-5.89c-1.29-2.69-4.43-2.68-4.43-2.68 s-1.68,0.84-1.06,2.47c0.62,1.63,1.03,2.25,1.52,3.32c0.67,1.46,0.02,2.46-1.05,2.12c-1-0.32-1.48-1.39-1.99-2.18 c-1.05-1.65-1.36-2.14-2.25-3.31c-1.58-2.11-3.8-1.38-3.8-1.38s-1.9,1.21-0.77,3.08c0,0,0.49,1.1,1.17,2.34 c0.47,0.86,0.3,1.6-0.52,1.73c-0.95,0.15-1.06-0.5-1.78-1.6c-0.75-1.14-1.16-1.84-2.13-3.02c-1.15-1.39-3.1-1.14-3.1-1.14 s-1.24,0.96-0.34,2.7c0.42,0.82,1.03,1.17,0.74,1.66c-0.69,1.18-2.21-0.65-3-1.32c-1.52-1.28-3.37-0.72-3.37-0.72 s-0.12,1.1,0.76,2.26c0.35,0.46,0.55,0.69,1.2,1.29c0.52,0.48,0.11,0.53-0.4,0.83c-2.45,1.44-2.23,2.26-2.23,2.26 s1.03,0.8,2.22,0.74c1.82-0.1,2.61-0.54,4-1.49c0.95-0.65,2.3-2.03,3.05-1.43c0.65,0.51,0.34,1.33-0.27,1.89 c0,0-1.06,1.07-1.82,2.24c-0.98,1.51-0.16,3.63-0.16,3.63s3.1-0.28,4.35-1.38c1.26-1.11,2.25-2.29,3.55-3.76 c1.24-1.4,1.71-1.62,2.47-1.29c0.76,0.32,0.7,0.84,0.07,1.93c0,0-2.99,3.25-3.61,5.35c-0.43,1.45,1.17,3.42,1.17,3.42 s2.93-0.9,4.32-2.68c0,0,2.54-2.98,3.45-4.08c0.92-1.1,1.83-2.43,3.11-2.31c0.88,0.08,1.01,0.75,0.46,1.88c0,0-2.81,3.92-3.81,6.14 c-1.18,2.62,0.19,5.35,0.19,5.35s3.64-0.11,5.33-2.31c2.73-3.56,2.41-3.54,3.64-5.11c1.45-1.86,3.31-3.51,4.17-2.92 c1.27,0.87-0.16,1.97-0.59,2.65c0,0-4.12,5.36-4.91,7.46c-1.17,3.09,0.13,6.44,0.13,6.44s3.6-0.3,6.45-3.68 c0.5-0.59,0.93-1.12,1.33-1.6l2.26,1.51c-1.07,1.89-1.86,3.83-2.61,6.19c1.82-0.61,10.48,2.46,10.48,2.46l28,0.07 c0.18-1.04,0.22-2.05,0.16-3.04l1.33,0.01l9.58,0.37c0,0,1.95-3.7,3.74-4.5c0.24-0.11,0.31-0.4,0.14-0.6 c-1.54-1.74-3.38-3.86-5.47-4.96c-1.81-0.95-3.71-0.63-4.7-2.9c-1.04-2.37-0.68-4.78-2.58-6.77 C83.11,62.38,82.93,62.21,82.74,62.05z"/>
          <path style="fill:#73B03E;" d="M74.95,57.12c-1.08-0.59-1.5-1.42-0.72-2.04c0.35-0.28,1.73,0.28,4.27,0.97 c3.28,0.89,5.24,1.45,7.31,1.36c4.19-0.17,4.79-3.8,4.79-3.8s-0.51-1.53-4.41-1.8c-1.51-0.1-4.21-0.66-6.37-1.28 c-2-0.57-3.67-1.65-2.67-2.62c0.6-0.58,1.83-0.04,3.2,0.2c3,0.53,5.45,1.12,7.34,1.17c3.98,0.11,5.34-2.41,5.34-2.41 s-0.52-2.34-3.59-3.1C87.8,43.36,86,43.1,82.71,42.4c-1.91-0.4-1.79-0.99-1.22-1.5c0.77-0.69,2.35-0.52,3.32-0.44 c2.34,0.21,5.27,0.91,6.88,1.01c2.78,0.17,4.22-1.91,4.22-1.91s-0.1-2.37-2.8-3.22c-2.56-0.81-3.17-0.47-5.18-1.21 c-1.28-0.47-1.73-1.01-1.22-1.47c0.47-0.42,1.48-0.43,3.43-0.27c2.61,0.21,4.64,0.67,6.62,0.85c3.41,0.31,4.39-1.86,4.39-1.86 s-0.31-1.85-2.73-2.59c-1.16-0.36-2.43-0.49-4.42-1.07c-0.8-0.23-0.93-0.67-0.6-1.19c0.33-0.51,1.24-0.62,2.52-0.49 c2.22,0.23,3.01,0.42,4.57,0.66c3.1,0.49,4.65-0.87,4.65-0.87s0.37-1.85-1.4-2.48c-1.63-0.58-2.76-0.63-3.94-0.94 s-1.04-0.81-0.65-1.09c1.34-0.97,5.36,0.55,6.74,0.7c2.35,0.26,3.63-1.12,3.63-1.12s0.36-1.73-1.34-2.32 c-1.36-0.47-2.61-0.52-1.87-1.2c0.36-0.33,1.61-0.44,2.26-0.39c1.98,0.14,2.74,0.35,3.69,0.1c0.89-0.23,2.07-1.09,2.73-1.74 c-1.44-0.95-3.1-1.22-4.78-1.48c-1.87-0.29-2.92,1.84-3.85,1.54c-0.46-0.15,0.57-1.76-0.49-1.65c-0.63,0.07-1.99,0.4-2.52,1.92 c-0.47,1.34-0.56,3.32-1.92,3.05c-0.84-0.16-0.5-1.11-0.38-1.78c0.33-1.8-0.45-2.08-0.45-2.08s-2.79-0.05-3.73,2.88 c-0.5,1.55-0.78,4.26-2.06,4.22c-1.09-0.03-0.66-1.28-0.68-2.37c-0.03-1.74-1.64-1.95-1.64-1.95s-2.67,0.53-2.82,2.78 c-0.06,0.86-0.1,2.49-0.1,4.4c0,1.63-0.41,2.92-1.03,3.2c-1.2,0.55-1.24-0.99-1.34-2.59c-0.1-1.59-0.05-2.5-0.3-3.19 c-0.37-1-2.42-0.91-2.42-0.91s-2.24,1.69-2.15,3.53c0.07,1.44,0.3,3.59,0.45,4.45c0.26,1.51,0.24,3.56-0.65,4.36 c-0.87,0.78-1.49-1.64-2.15-5.24c-0.59-3.24-3.07-2.83-3.07-2.83s-2.37,1.78-2,4.58c0.27,2.08,0.72,3.59,1.1,4.83 c0.94,3.08,1.09,4.19,0.8,4.89c-1.16,2.8-2.58-1.89-3.84-5.72c-0.87-2.65-3.21-2.34-3.21-2.34s-2.06,1.95-1.6,4.36 c0.76,4.01,2.1,6.27,2.97,7.75c1.62,2.78,1.96,4.01,1.66,4.74c-0.33,0.79-1.84-0.01-3.02-1.96c-1.26-2.11-1.82-3.38-2.72-5.97 c-0.77-2.2-1.64-1.92-1.64-1.92s-1.91,2.73-0.97,5.79c1.88,6.1,5.62,9.1,5.97,9.44c0.84,0.8-0.32,0.86-1.97,0.09 c-1.8-0.84-4.27-5.41-4.27-5.41s-0.75,2.41,0.67,5.55c1.65,3.64,4.12,4.08,5.65,4.46c1.79,0.45,2.45,0.17,3.35,1.27 c3.74,4.62,9.17,3.89,10.08,3.89c4.43,0,4.92-3.1,4.92-3.1s-0.66-1.4-3.56-1.9c-1.15-0.2-2.36-0.08-6.08-1.16 C77.92,58.42,76.18,57.79,74.95,57.12z"/>
          <path style="fill:#73B03E;" d="M59.53,36c0,0-2.37,0.98-2.69,2.9c-0.39,1.95-0.47,7.71-1.49,9.98c-0.67,1.48-1.85,0.55-1.39-1.86 c0.59-3.06,1.3-6.96,0.83-10.19c-0.39-2.66-2.65-4.33-2.65-4.33s-2.27,0.32-2.51,1.72c-0.4,2.35-0.28,4.42-0.42,6 c-0.1,1.1-0.09,3.07-1.48,2.7c-0.89-0.23-0.64-2.91-0.61-3.72c0.06-1.89,0.4-2.78,0.37-6.37c-0.03-2.89-3.14-4.47-3.14-4.47 s-1.79,0.47-2.07,2.23c-0.42,2.68-0.14,5.63-1.77,5.12c-1.06-0.33-0.24-4.57-0.54-6.79c-0.3-2.28-2.35-3.62-2.35-3.62 s-1.95,0.05-2.1,2.11c-0.13,1.88,0.15,4.54-1.53,4.6c-1.66,0.06-0.8-2.78-1.28-6.05c-0.35-2.38-3-3.31-3-3.31s-2.09,0.33-2.07,2.01 c0.01,0.64-0.11,2.32-1.16,2.1c-0.95-0.2-1.35-1.56-1.58-2.34c-0.29-0.96-0.52-1.61-1.28-2.34c-0.88-0.85-3.4-1.64-3.49-1.6 c-0.15,0.07-0.37,2.14-0.06,2.96c0.46,1.24,1.31,1.91,2.06,2.92c0.95,1.27-0.53,1.05-1.55,1.69c-1.21,0.76-1.5,2.13-1.5,2.13 s1.4,1.19,2.83,1.29c1.36,0.1,2.63-0.32,3.87-0.69c1.6-0.49,3.14-0.87,3.65-0.12c0.78,1.13-1.88,1.2-3.76,2.74 c-1.17,0.96-1.29,2.58-1.29,2.58s2.93,1.92,4.4,1.4c2.85-1.02,3.86-1.87,5.23-2.31c1.57-0.51,3.32,0.3,1.51,1.57 c-1.3,0.92-2.9,1.81-3.95,2.87c-1.29,1.29-1.18,3-1.18,3s2.11,1.59,3.87,1.19c2.9-0.66,4.7-2.06,6.24-2.79 c1.85-0.87,2.61-0.65,3.24-0.14c0.68,0.56-0.62,1.12-2.24,1.95c-1.87,0.96-3.93,2.66-4.7,3.49c-1,1.08-0.9,4.9-0.9,4.9 s3.14,1.16,5.76-0.05c2.76-1.27,5.66-4.18,6.89-3.74c1.9,0.67,0.46,1.74-2.25,3.92c-2.06,1.66-3.85,2.86-5.14,4.3 c-1.21,1.35-1.14,4.81-1.14,4.81s1.58,0.94,3.92,0.74c3-0.25,6.87-5.35,8.34-6.72c0.96-0.89,1.86,0.29,0.22,3.33 c-2.53,4.7-3.71,4.68-4.98,8.29c-0.98,2.81,0.67,5.52,0.67,5.52s2.59,0.66,4.35-0.58c1.4-0.98,2.41-2.89,3.42-5.62 c0.24-0.64,0.72-2.18,0.67-6.18c-0.03-2.97-0.57-2.18,0.98-4.84c3.62-6.21,4.69-9.02,4.19-13.72C61.51,37.73,59.53,36,59.53,36z"/>
          <path style="fill:#A1D65C;" d="M74.29,64.64c0,0-5.23,1.54-6.97,3.04c-1.74,1.51-3.68,4.17-5.76,4.92 c-2.08,0.75-3.54,0.57-3.54,0.57s1.2-4.73,4.42-7.03C65.69,63.81,70.57,62.8,74.29,64.64z"/>
          <linearGradient id="SVGID_4_" gradientUnits="userSpaceOnUse" x1="68.9978" y1="83.9137" x2="68.9978" y2="76.7961">
            <stop offset="0" style="stop-color:#5D4037"/>
            <stop offset="1" style="stop-color:#5D4037;stop-opacity:0"/>
          </linearGradient>
          <rect x="44.29" y="76.89" style="fill:url(#SVGID_4_);" width="49.42" height="8.7"/>
          <path style="fill:#A1D65C;" d="M112.32,106.08c0.23-0.82,0.11-1.91,0.14-3.56c0.02-0.96,0.58-0.98,2.21,0.67 c0.72,0.73,2.05,0.85,2.05,0.85c0.16-3.06-1.16-3.96-3.27-5.15c-1.86-1.04-3.67-1.42-2.84-2.58c0.27-0.38,1.52,0.23,2.16,0.48 c3.77,1.49,4.1,0.34,4.1,0.34s-0.25-2.92-4.07-4.26c-1.84-0.64-4.97-1.1-4.93-2.03c0.04-1.22,1.78-0.76,2.8-0.51 c5.16,1.24,5.63,0.45,5.63,0.45s-1.05-4.23-5.91-5.07c-2.4-0.41-6.68-0.79-6.89-1.93c-0.22-1.21,4.44-0.52,6.3-0.22 c2.59,0.42,3.34-0.25,3.34-0.25s-1.12-3.95-6.6-4.42c-4.04-0.34-6.67,0.2-7.32-0.82c-0.58-0.93,3.15-1.16,6.75-0.89 c2.83,0.21,4.36,0.14,4.36,0.14s-1.08-4.01-7.01-4.42c-5.9-0.41-11.34,1.15-10.66-0.01c0.72-1.22,3.09-1.41,6.09-1.56 c1.53-0.07,3.42-0.02,4.42-0.15c2.34-0.3,3.06-1.25,3.06-1.25s-2.48-2.33-6.08-2.96c-3.17-0.55-5.83-0.11-9.56,0.77 c-2.05,0.48-4.51,1.18-5.2,0.6c-0.45-0.37,1.3-1.45,3.16-1.9c1.54-0.37,4.49-0.65,6.55-0.82c1.3-0.1,2.14-0.53,2.14-0.53 s-0.54-0.44-1.51-0.93c-1.8-0.91-4.86-1.72-7.83-1.12c-1.79,0.36-3.14,0.69-4.56,1.78c-1.46,1.12-2.29,2.16-4.07,2.1 c-1.78-0.05-2.8-0.78-6,0.29c-1.39,0.47-4.19,2.49-6.4,5.04c-2.3,2.66-1.82,5.14-1.82,5.14s2.42,0.72,4.86-0.64 c3.43-1.91,7.53-7.39,9.28-7.19c2.09,0.24-0.8,2.34-2.16,3.8c-3.07,3.28-4.5,6.2-4.91,8.66c-0.37,2.23,0.51,3.31,0.51,3.31 s3.13-0.45,4.47-2.3c1.94-2.69,4.01-5.22,5.36-7.09c1.66-2.3,2.62-3.05,3.46-3.41c1.64-0.7,2.95-0.22,0.58,2.49 c-2.83,3.23-5.25,6.77-5.88,9.26c-0.61,2.39,0.57,4.42,0.57,4.42s2.9-1.01,4.18-2.65c2.56-3.29,3.41-5.18,4.79-7.23 c1.08-1.61,2.33-2.9,3.55-2.55c1.31,0.38-0.05,1.96-1.67,4.36c-1.38,2.03-2.94,4.97-3.37,7.12c-0.57,2.88,0.3,4.28,0.3,4.28 s3.48-0.56,4.51-2.14c0.89-1.35,2.55-4.78,3.71-6.38c0.96-1.33,1.81-3.02,2.99-2.32c0.62,0.37,0.01,1.77-1.3,3.9 c-1.01,1.64-2.16,3.81-2.71,5.63c-0.57,1.88,0.24,3.96,0.24,3.96s2.85,0.13,4.01-2.08c0.97-1.84,1.83-3.4,2.53-4.52 c1.5-2.39,2.42-0.72,1.3,1.38c-1.19,2.23-2.02,3.72-2.6,5.89c-0.36,1.35,0.3,3.16,0.3,3.16s1.79,0.12,2.81-1.18 c1.79-2.28,1.74-3.94,2.79-3c0.75,0.68-0.98,3.07-1.92,4.81c-0.94,1.75-0.52,3.77-0.52,3.77s2.21,0.78,3.17-1.15 c1.74-3.48,2.55-2.13,2.08-0.55c-0.15,0.52-0.86,2.81-1.01,3.34c-0.83,2.81,0.72,4.01,0.72,4.01S111.78,107.98,112.32,106.08z"/>
          <path style="fill:#A1D65C;" d="M22.28,109.06c-0.28-0.55-0.91-1.8,0.03-2.29c1.07-0.57,1.47,1.18,2.45,2.21 c1.67,1.74,3.17,0.94,3.17,0.94s1.12-1.6,0.18-3.88c-0.91-2.2-2.87-3.73-2.08-4.77c0.44-0.58,1.71-1.02,3.42,2.23 c1.58,3,4.09,2.44,4.09,2.44s1.74-2.13,0.49-5.37c-0.87-2.24-2.68-4.19-2.29-5.28c0.47-1.32,1.63-1.27,2.76,0.69 c0.71,1.22,1.42,2.72,2.32,3.92c1.74,2.34,4.22,2.16,4.22,2.16s1.29-2.2,0.28-5.41c-0.51-1.62-1.04-2.92-2.23-5.2 c-0.59-1.12-1.64-2.66-0.84-3.59c0.77-0.89,1.88,0.23,2.79,1.6c2.17,3.27,2.25,4.23,3.35,5.97c1.61,2.53,5.07,2.43,5.07,2.43 s1.31-2.57,0.8-5.12c-0.63-3.1-1.38-5.32-3.17-8.13c-0.8-1.25-1.71-2.86-0.98-3.35c0.7-0.46,1.78,0.03,3.07,1.99 c1.75,2.65,3.11,5.23,4.33,7.43c1.43,2.58,4.92,3,4.92,3s1.4-1.49,0.17-6.05c-0.94-3.48-2.24-5.67-3.09-7.24 c-1.05-1.92-2.88-3.2-1.71-3.73c1.08-0.49,2.5,0.78,4.05,3.21c1.6,2.51,2,4.42,3.87,7.01c1.53,2.13,5.12,1.8,5.12,1.8 s0.5-2.04,0.11-4.03c-0.4-2.07-1.67-4.46-3.67-6.75c-4.47-5.12-7.32-3-7.6-3.96c-0.13-0.45,0.12-1.83-0.98-3.73 c-1.58-2.72-5.44-5.28-9.8-5.24c-1.75,0.02-4.88,0.56-6.28,1.54c0,0,0.16,1.53,2.05,2.36c2.23,0.99,6.7,1.86,8.6,3.62 c1.26,1.16,2.05,2.52,0.7,1.97c-0.56-0.23-2.47-1.58-4.47-2.29c-2.09-0.74-4.2-1.06-6.71-1.14c-3.75-0.12-6.67,1.44-6.67,1.44 s0.2,0.96,2.41,2.09c1.33,0.68,5.44,1.29,7.01,2.06c1.29,0.63,2.44,1.08,1.71,1.81c-0.46,0.46-1.18,0.31-1.78,0.08 c-2.78-1.08-7.04-1.63-9.31-1.72c-3.15-0.12-5.41,1.95-5.41,1.95s-0.02,1.71,2.27,2.48c3.32,1.11,8.23,0.91,9.35,2.17 c1.09,1.24-1.63,1.44-4.15,0.97c-2.73-0.52-4.14-0.68-8.93,0.04c-3.24,0.48-4.88,2.72-4.88,2.72s0.87,1.92,2.62,2.09 c3.49,0.35,10.83-0.28,10.29,1.15c-0.49,1.29-2.02,1.19-3.59,1.08c-2.86-0.19-5.4-0.33-8.13,0.31c-3.28,0.77-4.43,3.49-4.43,3.49 s0.82,1.41,2.76,1.44c3.56,0.06,7.99-1.17,8.89-0.36c1.27,1.15-1.62,1.58-3.16,1.65c-1.93,0.09-5.47,0.35-7.44,1.32 c-2.61,1.28-2.86,3.3-2.86,3.3s0.57,1.04,3.24,0.84c0.71-0.05,3.32-0.89,4.33-0.7c1.6,0.31,0.23,1.28-1.54,1.74 c-0.52,0.13-2.74,0.64-3.71,1.17c-1.01,0.55-2.64,1.1-3,4.2c0,0,1.09,0.47,3.12-0.15c0.95-0.29,1.79-0.95,2.28-0.47 c0.48,0.48-0.66,1.88-0.79,3.32c-0.28,2.95,1.44,4.23,1.44,4.23s1.95-1.23,2.28-3.58C23.33,110.7,22.5,109.5,22.28,109.06z"/>
        </g>
      </g>
    </symbol>
    <symbol id="symbol-wc" viewBox="0 0 6.9374 9.6542" bx:pinned="true">
      <title>WC</title>
      <g transform="matrix(0.08044400811195372, 0, 0, 0.08044400811195374, -1.6794994872143434, -0.2749602231396011)" id="Layer_5" style="">
        <g>
          <path style="fill:#2F7889;" d="M82.3,64.16c0,0,2.21,3.59,6.71,3.59s8.65-0.14,8.65-0.14s3.86-0.92,5.41-3.45H82.3z"/>
          <path style="fill:#EEEEEE;" d="M99.86,65.38h-14.5c-2.63,0-4.8-2.08-4.9-4.72L78.47,8.05c-0.07-1.95,1.48-3.56,3.43-3.56h21.78 c1.96,0,3.52,1.63,3.43,3.59l-2.36,52.62C104.64,63.32,102.49,65.38,99.86,65.38z"/>
          <path style="fill:#FFFFFF;" d="M84.83,4.49h-2.16c-1.95,0-3.51,1.62-3.43,3.56l1.99,52.61c0,3.5,3.76,4.72,3.76,4.72 c1.82,0.01,2.26-3.2,2.31-4.74l1.64-51.91C89.01,6.41,87.15,4.49,84.83,4.49z"/>
          <path style="fill:#EEEEEE;" d="M102.12,72.19c-0.48-3.02-0.93-4.58-2.58-4.58H26.55h-3.03c-1.59,0-2.81,1.58-2.52,3.3 c1.74,10.38,8.2,18.98,16.9,23.14c2.38,10.45-5.15,17.54-6.35,26.64c-0.19,1.44,0.9,2.28,2.3,2.28h55.88c1.34,0,2.4-0.75,2.31-2.15 c0,0-4.36-17.46-4.85-21.17c-0.49-3.71-0.09-8.91,12.09-19.65C101.17,78.34,102.6,75.21,102.12,72.19z"/>
          <line style="fill:none;stroke:#69A1BA;stroke-width:1.9835;stroke-miterlimit:10;" x1="78.65" y1="12.83" x2="106.9" y2="12.83"/>
          <path style="fill:#B7D5E5;" d="M83.44,60.55c0,0-1.92-50.54-1.99-52.61s1-3.03,1.46-3.45h-1c-1.95,0-3.51,1.62-3.43,3.56 l1.99,52.61c0.36,3.33,2.38,5.08,6.42,4.72C83.97,64.01,83.47,61.48,83.44,60.55z"/>
          <path style="fill:#69A1BA;" d="M102.88,3.47C99.15,3.14,81.9,4.49,81.9,4.49s-0.16,0.47,2.87,0.66s12.62,0.14,14.97,0.14 c2.35,0,4.71,0.83,4.47,3.74l-2.47,53.25c-0.07,1.41-2.44,3.01-3.37,3.11l1.87,0.01c2.53-0.2,4.4-2.23,4.51-4.69l2.36-52.62 C107.2,6.12,106.52,3.8,102.88,3.47z"/>
          <path style="fill:#B7D5E5;" d="M31.72,70.11c0,0,23.86,0,32.11,0s11.91-2.31,11.91-2.31H22.42C20.81,67.8,24.58,70.11,31.72,70.11z "/>
          <path style="fill:#2F7889;" d="M72.62,63.07H24.84c-2.39,0-3.43,1.44-3.88,2.73c-0.33,0.95,0.38,1.95,1.35,1.95h52.82 c0.98,0,1.69-1.02,1.34-1.97C76,64.5,74.96,63.07,72.62,63.07z"/>
          <line style="fill:none;stroke:#EEEEEE;stroke-width:2.0672;stroke-linecap:round;stroke-miterlimit:10;" x1="26.55" y1="65.41" x2="34.83" y2="65.41"/>
          <path style="fill:#B7D5E5;" d="M99.72,67.62H84.03c-2.45,0-4.38,2.01-4.37,4.46c0.03,4.31-0.37,8.49-3.93,12.72 c-3.66,4.35-5.82,6.28-4.23,12.3c0,0,3.41,18.18,3.88,20.26c0.87,3.9-4.25,6.07-4.25,6.07h18.59c1.34,0,2.39-0.9,2.46-2.54 c0,0,0.05-0.93-0.33-2.54c0,0-3.17-14.91-3.64-19.49c-0.6-5.92,4.42-10.6,8.11-14.06c5.83-5.47,6.21-9.25,6.22-11.22 C102.56,68.8,101.36,67.62,99.72,67.62z"/>
          <g>
            <path style="fill:#69A1BA;" d="M48.23,94.64c0.04-0.66,1.69-0.5,2.01-0.5c20.66-0.09,26.01-12.32,27.26-16.65 c0.24-0.83,1.07-1.34,1.93-1.18h0c0.96,0.18,1.58,1.13,1.33,2.07c-1.31,4.97-7.08,18.63-30.89,17.11 C49.65,95.48,48.2,95.29,48.23,94.64z"/>
          </g>
          <g>
            <path style="fill:#B7D5E5;" d="M33.22,114.71c1.14-4.19,5.66-10.97,4.65-19.19c-5.11-2.51-10.63-9.58-13.18-13.89 c0,0-0.49-0.75,0-0.91c0.36-0.12,0.9,0.44,0.9,0.44c5.81,7.46,11.72,10.81,14.56,12.09c1.06,0.48,1.74,1.57,1.63,2.74 c-0.78,7.82-5.72,14.88-7.35,18.24C33.98,115.12,33,115.51,33.22,114.71z"/>
          </g>
          <path style="fill:#69A1BA;" d="M31.53,121.06c0,1.44,1.09,2.36,2.32,2.36h55.88c1.27,0,2.45-0.91,2.45-2.4L31.53,121.06z"/>
          <path style="fill:#69A1BA;" d="M99.46,67.62c0,0,0.64,4.75,0.64,5.69c0,1.79,0.45,4.3-4.42,8.87c-0.65,0.61-1.41,1.24-2.2,1.91 c-3.55,2.97-8.86,8.11-7.47,14.33c0.48,2.14,1.73,5.17,2.49,6.75c0.59,1.23,0.73,0,0.73,0s-0.8-4.26-1.01-6.31 c-0.6-5.92,5.8-11.05,9.5-14.51c5.83-5.46,5.36-9.08,5.36-11.05c0-0.8-0.14-2.37-0.28-3.66c-0.12-1.15-1.09-2.02-2.25-2.02 C99.46,67.62,99.46,67.62,99.46,67.62z"/>
          <path style="fill:#FFFFFF;" d="M33.05,83.4c-4.92-6.12,2.63-9.21,5.07-5.24c2.86,4.67,3.9,6.7,5.34,8.5 c0.58,0.73,1.25,1.47,1.84,2.1c0.58,0.61,0.06,1.61-0.78,1.5C37.7,89.38,34.7,85.46,33.05,83.4z"/>
          <g>
            <path style="fill:#FFFFFF;" d="M43.32,117.65H40.4c-1.27,0-2.25-1.15-2.02-2.39c0.6-3.31,2.31-6.16,3.59-8.81 c0.79-1.65,2.11-4.97,2.59-7.53c0.19-1.03,1.14-1.74,2.18-1.65l2.31,0.2c1.22,0.11,2.07,1.26,1.82,2.46 c-0.73,3.57-2.98,7.64-3.65,9.31c-0.89,2.2-1.54,5.03-1.9,6.78C45.12,116.97,44.29,117.65,43.32,117.65z"/>
          </g>
        </g>
      </g>
    </symbol>
    <symbol id="symbol-chill" viewBox="0 0 9.7438 9.9147" bx:pinned="true">
      <title>ChillZone</title>
      <g transform="matrix(0.08262400329113005, 0, 0, 0.08262400329113007, -0.4164379579033266, -0.33049621749643165)" id="Layer_5-1" style="">
        <g>
          <g>
            <g>
              <path style="fill:#FFC107;" d="M7.45,123.27c2.27,2.46,11.62-1.83,19-5.27c5.53-2.57,27.66-11.65,38.66-16.36 c2.97-1.27,7.29-2.93,10.4-7.02c2.76-3.64,10.08-19.1-4.66-34.76c-14.96-15.9-30.37-11.51-36.13-7.43 c-3.39,2.4-6.15,7.81-7.39,10.56c-5.24,11.62-12.71,32.91-15.75,41.28C9.35,110.44,5.2,120.83,7.45,123.27z"/>
              <path style="fill:#FF8F00;" d="M25.85,66.49c0.14,1.74,0.49,4.57,1.69,10.02c0.82,3.74,2.16,7.66,3.25,10.25 c3.27,7.79,7.86,10.93,12.51,13.45c7.9,4.28,13.27,5.08,13.27,5.08l-6.44,2.63c0,0-3.9-0.81-9.22-3.43 c-5.07-2.5-10.35-6.73-14.21-15.01c-1.67-3.59-2.64-7.07-3.2-9.83c-0.69-3.42-0.8-5.36-0.8-5.36L25.85,66.49z"/>
              <path style="fill:#FF8F00;" d="M17.94,86.77c0,0,0.8,6.49,6.16,14.68c6.28,9.58,15.05,11.15,15.05,11.15l-5.83,2.4 c0,0-6.51-1.99-12.7-10.44c-3.86-5.27-4.94-11.57-4.94-11.57L17.94,86.77z"/>
              <path style="fill:#FF8F00;" d="M12.39,102.15c0,0,1.46,5.6,4.66,9.78c3.81,4.99,8.66,6.44,8.66,6.44l-4.47,1.98 c0,0-3.39-0.71-7.1-5.41c-2.82-3.57-3.62-7.67-3.62-7.67L12.39,102.15z"/>
              <g style="opacity:0.44;">
                <path style="fill:#FFFDE7;" d="M9.96,116.37L9.96,116.37c-0.2-0.45-0.2-0.96,0.01-1.4l25.47-52.82l4.19,15.75l-26.8,38.71 C12.11,117.69,10.49,117.55,9.96,116.37z"/>
              </g>
              <linearGradient id="gradient-1" gradientUnits="userSpaceOnUse" x1="74.3843" y1="61.8385" x2="44.617" y2="79.6989">
                <stop offset="0.0235" style="stop-color:#8F4700"/>
                <stop offset="1" style="stop-color:#703E2D"/>
              </linearGradient>
              <path style="fill: url(&quot;#gradient-1&quot;);" d="M41.65,83.19c11.9,13.92,25.45,12.18,29.96,8.66c4.52-3.53,8.09-15.66-3.76-29.35 c-12.42-14.34-26.48-10.25-29.73-7.15S30.73,70.42,41.65,83.19z"/>
              <g>
                <path style="fill:#03A9F4;" d="M82.52,88.92c-4.34-3.64-6.65-2.99-9.75-1.7c-4,1.66-10.29,2.89-18.83,0l2.57-6.19 c5.07,1.71,8.74,0.88,11.91-0.99c4.08-2.4,9.66-5.69,18.34,1.6c3.62,3.04,7.33,5.06,10.05,4.14c1.98-0.66,3.03-3.61,3.56-5.96 c0.05-0.21,0.13-0.81,0.19-1.34c0.48-3.67,1.28-11.59,7.18-15.64c6.31-4.33,12.94-4.33,12.94-4.33l1.2,11.92 c-3.05-0.45-5.17,0.17-6.96,1.16c-6.74,3.75-0.87,18.15-11.36,22.99C93.47,99.27,85.22,91.18,82.52,88.92z"/>
              </g>
              <g>
                <path style="fill:#F44336;" d="M45.4,73.72l-4.34-3.89c7.97-8.9,5.87-15.44,4.34-20.2c-0.31-0.96-0.6-1.87-0.79-2.74 c-0.68-3.08-0.82-5.76-0.61-8.1c-3.06-3.81-4.41-7.8-4.5-8.07c-1.86-5.63-0.46-11.12,2.75-16.27C48.74,4,60.49,4,60.49,4 l3.92,10.49c-2.98-0.12-12.75,0.03-15.75,4.76c-3.79,5.96-1.3,9.64-1.12,10.06c0.73-0.95,1.47-1.71,2.13-2.3 c4.79-4.25,8.95-4.86,11.6-4.62c2.98,0.27,5.68,1.77,7.61,4.23c2.11,2.7,2.98,6.21,2.31,9.4c-0.65,3.11-2.72,5.74-5.83,7.41 c-5.43,2.92-9.95,2.52-12.98,1.51c0.02,0.07,0.03,0.15,0.05,0.22c0.11,0.5,0.33,1.2,0.59,2.01 C54.79,52.65,58.08,61.35,45.4,73.72z M52.75,36.19c0.58,0.42,1.19,0.77,1.82,1.02c2.1,0.84,4.39,0.56,6.99-0.84 c1.53-0.82,1.71-1.7,1.77-1.99c0.18-0.87-0.12-1.98-0.77-2.81c-0.57-0.73-1.23-1.11-2.02-1.19c-1.5-0.13-3.53,0.82-5.56,2.63 C54.01,33.88,53.27,34.95,52.75,36.19z"/>
              </g>
              <g>
                <path style="fill:#F48FB1;" d="M62.77,75.35l-6.21-0.17c0,0,2.95-16.66,12.5-19.46c1.79-0.52,3.75-1.05,5.72-1.34 c1.17-0.18,3.02-0.45,3.93-0.79c0.21-1.57-0.45-3.57-1.19-5.84c-0.58-1.76-1.18-3.57-1.5-5.55c-0.62-3.86,0.41-7.27,2.9-9.62 c3.04-2.85,7.95-3.76,13.49-2.5c3.16,0.72,5.49,2.27,7.54,3.63c2.93,1.95,4.64,2.94,8.22,0.53c4.33-2.92-1.33-14.35-4.34-20.95 l11.23-4.68c1.51,3.3,8.8,20.28,3.99,29.97c-1.62,3.26-4.41,5.42-8.07,6.23c-7.96,1.78-12.62-1.32-16.02-3.58 c-1.61-1.07-3.02-1.91-4.55-2.35c-10.63-3.03,4.21,12.61-2.74,19.64c-4.17,4.21-14.36,5.32-15.02,5.48 C66.09,65.58,62.77,75.35,62.77,75.35z"/>
              </g>
            </g>
            <path style="fill:#C92B27;" d="M43.99,38.79c-0.19,2.2-0.28,3.51,0.29,6.37c2.75,2.02,8.74,2.02,8.74,2.02 c-0.26-0.81-0.49-1.51-0.59-2.01c-0.02-0.07-0.03-0.15-0.05-0.22C46.29,41.91,43.99,38.79,43.99,38.79z"/>
          </g>
          <g>
            <polygon style="fill:#FFC107;" points="31.53,48.64 21.19,43.57 26.34,36.13 34.45,41.5 &#9;&#9;"/>
          </g>
          <g>
            <path style="fill:#FB8C00;" d="M16.29,34.6c-5.28-0.71-10.66-5.19-11.25-5.7l5.19-6.09c1.57,1.33,4.9,3.56,7.13,3.86L16.29,34.6z"/>
          </g>
          <g>
            <path style="fill:#03A9F4;" d="M25.61,21.27l-7.6-2.49c0.87-2.66,1.1-5.53,0.65-8.3l7.9-1.27C27.21,13.23,26.88,17.4,25.61,21.27z "/>
          </g>
          <g>
            <rect x="74.11" y="14.35" transform="matrix(0.9769 -0.2137 0.2137 0.9769 -2.3917 17.1437)" style="fill:#FB8C00;" width="8" height="10.56"/>
          </g>
          <g>
            <path style="fill:#FFC107;" d="M92.46,17.77l-5.5-5.81c2.88-2.73,3.54-6.3,3.54-6.34l7.9,1.29C98.3,7.54,97.29,13.2,92.46,17.77z"/>
          </g>
          <g>
            <rect x="96.54" y="47.3" transform="matrix(0.9545 -0.2983 0.2983 0.9545 -10.7408 32.2313)" style="fill:#FB8C00;" width="7.32" height="8"/>
          </g>
          <g>
            <path style="fill:#F44336;" d="M97.55,113.03l-7.95-0.94c0.34-2.83-1.77-6.3-2.35-7.07l6.4-4.8 C94.13,100.85,98.3,106.62,97.55,113.03z"/>
          </g>
          <g>
            <path style="fill:#FB8C00;" d="M120.37,102.89c-2.99-0.45-6.05-0.63-9.07-0.52l-0.27-8c3.51-0.12,7.06,0.08,10.53,0.61 L120.37,102.89z"/>
          </g>
          <g>
            <rect x="112.29" y="109.43" transform="matrix(0.7026 -0.7116 0.7116 0.7026 -47.1516 116.922)" style="fill:#F48FB1;" width="8" height="10.87"/>
          </g>
          <rect x="88.29" y="65.14" transform="matrix(0.6583 0.7527 -0.7527 0.6583 84.0086 -46.0064)" style="fill:#F44336;" width="8.78" height="8.78"/>
        </g>
      </g>
    </symbol>
    <radialGradient id="gradient__zone__water-0" href="#gradient__zone__water" gradientUnits="userSpaceOnUse" cx="241.523" cy="91.609" r="20.997"/>
    <radialGradient id="gradient__zone__water-1" href="#gradient__zone__water" gradientUnits="userSpaceOnUse" cx="201.31" cy="91.69" r="20.606"/>
    <symbol id="symbol-door" viewBox="0 0 7.3 13.3091" bx:pinned="true">
      <title>Door</title>
      <g transform="matrix(0.11090900003910066, 0, 0, 0.11090900003910065, -3.4481739214602385, -0.4436361925072845)" id="Layer_1" style="">
        <g>
          <path style="fill:#B06542;" d="M33.28,123.87L94.71,124c1.22,0,2.2-0.89,2.2-1.99V6.12c0-1.1-0.98-1.99-2.19-1.99L33.29,4 c-1.22,0-2.2,0.89-2.2,1.99v115.88C31.09,122.97,32.07,123.87,33.28,123.87z"/>
          <g>
            <g>
              <path style="fill:#874D36;" d="M78.72,20.72v30.32H49.28V20.72H78.72 M83.63,15.72H44.37v40.32h39.26V15.72L83.63,15.72z"/>
              <polygon style="fill:#C87D5E;" points="83.63,15.9 78.53,20.72 78.72,20.72 78.72,51.04 49.65,51.04 44.37,56.04 83.63,56.04 &#9;&#9;&#9;&#10;&#9;&#9;&#9;&#9;"/>
            </g>
            <g>
              <path style="fill:#874D36;" d="M78.72,78.96v28.32H49.28V78.96H78.72 M83.63,73.96H44.37v38.32h39.26V73.96L83.63,73.96z"/>
              <polygon style="fill:#C87D5E;" points="83.63,74.14 78.53,78.96 78.72,78.96 78.72,107.28 49.65,107.28 44.37,112.28 &#10;&#9;&#9;&#9;&#9;83.63,112.28 &#9;&#9;&#9;"/>
            </g>
          </g>
          <g>
            <circle style="fill:#874D36;" cx="44.18" cy="66" r="5.25"/>
            <circle style="fill:#BDBDBD;" cx="42.14" cy="64.45" r="5.25"/>
            <path style="fill:#EEEEEE;" d="M43.38,61.11c0.13,0.65-0.25,0.97-0.79,1.36c-0.54,0.39-1.21,0.7-1.7,1.53 c-0.35,0.59-0.46,1.37-1.03,1.76c-0.56,0.38-1.2,0.31-1.5-0.36c-0.43-0.95-0.44-2.6,0.77-3.95 C40.29,60.16,43.06,59.47,43.38,61.11z"/>
          </g>
        </g>
      </g>
    </symbol>
  </defs>
  <rect x="10.723" y="65.485" width="46.831" height="75.794" style="stroke: rgb(0, 0, 0); fill: url(&quot;#color-0-0&quot;); vector-effect: non-scaling-stroke;" id="" class="zone"/>
  <path style="stroke: rgb(0, 0, 0); fill: url(&quot;#gradient-14-0&quot;); vector-effect: non-scaling-stroke;" d="M 91.315 40.756 L 95.088 92.903 L 115.805 95.4 L 122.615 141.085 L 183.889 142.055 L 180.484 40.64 L 91.315 40.756 Z" class="zone"/>
  <path style="stroke: rgb(0, 0, 0); fill: url(&quot;#gradient-0-0&quot;); vector-effect: non-scaling-stroke;" d="M 0.864 0.167 L 3.328 149.906 L 82.819 149.291 L 82.819 142.512 L 10.723 140.664 L 9.491 10.644 L 391.539 10.027 L 408.793 143.129 L 112.397 141.896 L 111.781 149.907 L 418.036 151.139 L 399.549 2.633 L 0.864 0.167 Z" class="zone"/>
  <path style="stroke: rgb(0, 0, 0); vector-effect: non-scaling-stroke; fill: url(&quot;#gradient-2-0&quot;);" d="M 122.007 141.28 L 116.453 95.68 L 94.275 93.832 L 91.195 40.222 L 367.623 41.757 L 368.169 10.557 L 8.007 10.643 L 11.082 64.87 L 58.535 65.486 L 57.302 141.28 L 122.007 141.28 Z" class="zone"/>
  <path style="stroke: rgb(0, 0, 0); vector-effect: non-scaling-stroke; stroke-width: 1; fill: url(&quot;#gradient__zone__water-1&quot;);" d="M 180.704 41.214 L 184.163 141.976 L 214.799 142.173 L 211.474 70.027 L 221.916 69.775 L 220.313 41.206 L 180.704 41.214 Z" class="zone"/>
  <path style="stroke: rgb(0, 0, 0); vector-effect: non-scaling-stroke; stroke-width: 1; fill: url(&quot;#gradient__zone__water-0&quot;);" d="M 221.978 69.794 L 230.867 69.299 L 236.091 142.189 L 262.52 141.955 L 258.77 41.029 L 220.526 41.222 L 221.978 69.794 Z" class="zone"/>
  <path style="stroke: rgb(0, 0, 0); vector-effect: non-scaling-stroke; fill: url(&quot;#gradient-4-0&quot;);" d="M 230.861 69.389 L 235.833 142.376 L 214.563 141.996 L 211.318 69.967 L 230.861 69.389 Z" class="zone"/>
  <path style="stroke: rgb(0, 0, 0); vector-effect: non-scaling-stroke; fill: url(&quot;#gradient-14-1&quot;);" d="M 259.087 41.165 L 262.524 141.996 L 408.423 142.759 L 395.055 41.546 L 259.087 41.165 Z" class="zone"/>
  <use href="#symbol__seat__120x60" width="12" height="8" transform="matrix(-1, 0, 0, -1, 152.581164, 58.796651)" style="transform-box: fill-box; transform-origin: 50% 50%;" id="S003" class="seat"/>
  <use href="#symbol__seat__120x60" width="12" height="8" transform="matrix(-1, 0, 0, -1, 140.036242, 58.345174)" style="transform-origin: 6px 4px;" id="S002" class="seat"/>
  <use href="#symbol__seat__120x60" width="12" height="8" transform="matrix(-1, 0, 0, -1, 127.923914, 58.23911)" style="transform-origin: 6px 4px;" id="S001" class="seat"/>
  <use href="#symbol__seat__120x60" width="12" height="8" transform="matrix(1, 0, 0, 1, 127.9564, 66.252389)" style="transform-origin: 6px 4px;" id="S004" class="seat"/>
  <use href="#symbol__seat__120x60" width="12" height="8" transform="matrix(1, 0, 0, 1, 140.193834, 66.396379)" style="transform-origin: 6px 4px;" id="S005" class="seat"/>
  <use href="#symbol__seat__120x60" width="12" height="8" transform="matrix(1, 0, 0, 1, 152.30617, 66.502442)" style="transform-origin: 6px 4px;" id="S006" class="seat"/>
  <use href="#symbol__seat__120x60" width="12" height="8" transform="matrix(-1, 0, 0, -1, 157.63666, 111.199701)" style="transform-origin: 6px 4px;" class="seat" id="S009"/>
  <use href="#symbol__seat__120x60" width="12" height="8" transform="matrix(-1, 0, 0, -1, 145.399233, 111.055711)" style="transform-origin: 6px 4px;" class="seat" id="S008"/>
  <use href="#symbol__seat__120x60" width="12" height="8" transform="matrix(-1, 0, 0, -1, 133.286898, 110.949648)" style="transform-origin: 6px 4px;" class="seat" id="S007"/>
  <use href="#symbol__seat__120x60" width="12" height="8" transform="matrix(1, 0, 0, 1, 133.319399, 118.962931)" style="transform-origin: 6px 4px;" class="seat" id="S010"/>
  <use href="#symbol__seat__120x60" width="12" height="8" transform="matrix(1, 0, 0, 1, 145.556826, 119.10692)" style="transform-origin: 6px 4px;" class="seat" id="S011"/>
  <use href="#symbol__seat__120x60" width="12" height="8" transform="matrix(1, 0, 0, 1, 157.669161, 119.212984)" style="transform-origin: 6px 4px;" class="seat" id="S012"/>
  <use href="#symbol__seat__120x60" width="12" height="8" transform="matrix(-1, 0, 0, -1, 307.394963, 110.714922)" style="transform-origin: 6px 4px;" class="seat" id="S021"/>
  <use href="#symbol__seat__120x60" width="12" height="8" transform="matrix(-1, 0, 0, -1, 294.850041, 110.878443)" style="transform-origin: 6px 4px;" class="seat" id="S020"/>
  <use href="#symbol__seat__120x60" width="12" height="8" transform="matrix(-1, 0, 0, -1, 282.737706, 110.772379)" style="transform-origin: 6px 4px;" class="seat" id="S019"/>
  <use href="#symbol__seat__120x60" width="12" height="8" transform="matrix(1, 0, 0, 1, 282.770207, 118.785662)" style="transform-origin: 6px 4px;" class="seat" id="S022"/>
  <use href="#symbol__seat__120x60" width="12" height="8" transform="matrix(1, 0, 0, 1, 295.007634, 118.929651)" style="transform-origin: 6px 4px;" class="seat" id="S023"/>
  <use href="#symbol__seat__120x60" width="12" height="8" transform="matrix(1, 0, 0, 1, 307.119969, 119.035715)" style="transform-origin: 6px 4px;" class="seat" id="S024"/>
  <use href="#symbol__seat__120x60" width="12" height="8" transform="matrix(-1, 0, 0, -1, 300.568516, 65.269891)" style="transform-origin: 6px 4px; stroke: rgb(188, 249, 0);" class="seat" id="S017"/>
  <use href="#symbol__seat__120x60" width="12" height="8" transform="matrix(-1, 0, 0, -1, 288.023594, 65.433412)" style="transform-origin: 6px 4px;" class="seat" id="S014"/>
  <use href="#symbol__seat__120x60" width="12" height="8" transform="matrix(-1, 0, 0, -1, 275.911259, 65.327348)" style="transform-origin: 6px 4px;" class="seat" id="S013"/>
  <use href="#symbol__seat__120x60" width="12" height="8" transform="matrix(1, 0, 0, 1, 275.94373, 73.340631)" style="transform-origin: 6px 4px;" class="seat" id="S017"/>
  <use href="#symbol__seat__120x60" width="12" height="8" transform="matrix(1, 0, 0, 1, 288.181187, 73.48462)" style="transform-origin: 6px 4px;" class="seat" id="S017"/>
  <use href="#symbol__seat__120x60" width="12" height="8" transform="matrix(1, 0, 0, 1, 300.293523, 73.590684)" style="transform-origin: 6px 4px;" class="seat" id="S018"/>
  <use href="#symbol__seat__120x60" width="12" height="8" transform="matrix(-0.156434, -0.987695, 0.987681, -0.156434, 379.510839, 78.030763)" style="transform-origin: 6px 4px;" class="seat"/>
  <use href="#symbol__seat__120x60" width="12" height="8" transform="matrix(-0.156434, -0.987695, 0.987681, -0.156434, 377.386877, 65.665788)" style="transform-origin: 6px 4px;" class="seat"/>
  <use href="#symbol__seat__120x60" width="12" height="8" transform="matrix(-0.156434, -0.987695, 0.987681, -0.156434, 375.596868, 53.685891)" style="transform-origin: 6px 4px;" class="seat"/>
  <use href="#symbol__seat__120x60" width="12" height="8" transform="matrix(0.156434, 0.987695, -0.987681, 0.156434, 367.687353, 54.971551)" style="transform-origin: 6px 4px;" class="seat"/>
  <use href="#symbol__seat__120x60" width="12" height="8" transform="matrix(0.156434, 0.987695, -0.987681, 0.156434, 369.459509, 67.080918)" style="transform-origin: 6px 4px;" class="seat"/>
  <use href="#symbol__seat__120x60" width="12" height="8" transform="matrix(0.156434, 0.987695, -0.987681, 0.156434, 371.249517, 79.060815)" style="transform-origin: 6px 4px;" class="seat"/>
  <use href="#symbol__seat__120x60" width="12" height="8" transform="matrix(-0.156434, -0.987695, 0.987681, -0.156434, 385.626135, 114.245012)" style="transform-origin: 6px 4px;" class="seat"/>
  <use href="#symbol__seat__120x60" width="12" height="8" transform="matrix(-0.156434, -0.987695, 0.987681, -0.156434, 383.502172, 101.880029)" style="transform-origin: 6px 4px;" class="seat"/>
  <use href="#symbol__seat__120x60" width="12" height="8" transform="matrix(-0.156434, -0.987695, 0.987681, -0.156434, 381.712164, 89.900125)" style="transform-origin: 6px 4px;" class="seat"/>
  <use href="#symbol__seat__120x60" width="12" height="8" transform="matrix(0.156434, 0.987695, -0.987681, 0.156434, 373.802648, 91.185777)" style="transform-origin: 6px 3.99999px;" class="seat"/>
  <use href="#symbol__seat__120x60" width="12" height="8" transform="matrix(0.156434, 0.987695, -0.987681, 0.156434, 375.574804, 103.295152)" style="transform-origin: 6px 3.99999px;" class="seat"/>
  <use href="#symbol__seat__120x60" width="12" height="8" transform="matrix(0.156434, 0.987695, -0.987681, 0.156434, 377.364813, 115.275057)" style="transform-origin: 6px 3.99999px;" class="seat"/>
  <path style="stroke: rgb(0, 0, 0); vector-effect: non-scaling-stroke; stroke-width: 1; fill: url(&quot;#gradient-1-1&quot;);" d="M 368.777 10.593 L 368.078 41.843 L 395.105 42.074 L 390.984 9.857 L 368.777 10.593 Z" class="zone"/>
  <rect x="-1.188" y="-173.47" width="275.8" height="152.581" style="stroke: rgb(0, 0, 0); vector-effect: non-scaling-stroke; stroke-width: 2px; fill: none;" transform="matrix(1, 0, -0.008211, 1, 3.117242, 13.487223)"/>
  <rect x="7.055" y="-58.808" width="38.573" height="26.23" style="stroke: rgb(0, 0, 0); vector-effect: non-scaling-stroke; fill: url(&quot;#color-0-1&quot;);" class="zone"/>
  <rect x="51.855" y="-58.808" width="38.573" height="26.23" style="stroke: rgb(0, 0, 0); vector-effect: non-scaling-stroke; stroke-width: 1; fill: url(&quot;#gradient-4-1&quot;);" class="zone"/>
  <rect x="96.655" y="-58.808" width="38.573" height="26.23" style="stroke: rgb(0, 0, 0); vector-effect: non-scaling-stroke; stroke-width: 1; fill: url(&quot;#gradient-14-2&quot;);" class="zone"/>
  <rect x="141.455" y="-58.808" width="38.573" height="26.23" style="stroke: rgb(0, 0, 0); vector-effect: non-scaling-stroke; stroke-width: 1; fill: url(&quot;#gradient-0-1&quot;);" class="zone"/>
  <rect x="186.255" y="-58.808" width="38.573" height="26.23" style="stroke: rgb(0, 0, 0); vector-effect: non-scaling-stroke; stroke-width: 1; fill: url(&quot;#gradient-2-1&quot;);" class="zone"/>
  <rect x="231.055" y="-58.808" width="38.573" height="26.23" style="stroke: rgb(0, 0, 0); vector-effect: non-scaling-stroke; stroke-width: 1; fill: url(&quot;#gradient-1-0&quot;);" class="zone"/>
  <rect x="7.303" y="-90.245" width="38.573" height="26.23" style="stroke: rgb(0, 0, 0); vector-effect: non-scaling-stroke; stroke-width: 1; fill: url(&quot;#color-0-3&quot;);" class="zone"/>
  <rect x="52.103" y="-90.245" width="38.573" height="26.23" style="stroke: rgb(0, 0, 0); vector-effect: non-scaling-stroke; stroke-width: 1; fill: url(&quot;#gradient-4-3&quot;);" class="zone"/>
  <rect x="96.903" y="-90.245" width="38.573" height="26.23" style="stroke: rgb(0, 0, 0); vector-effect: non-scaling-stroke; stroke-width: 1; fill: url(&quot;#gradient-14-4&quot;);" class="zone"/>
  <rect x="141.703" y="-90.245" width="38.573" height="26.23" style="stroke: rgb(0, 0, 0); vector-effect: non-scaling-stroke; stroke-width: 1; fill: url(&quot;#gradient-0-2&quot;);" class="zone"/>
  <rect x="186.503" y="-90.245" width="38.573" height="26.23" style="stroke: rgb(0, 0, 0); vector-effect: non-scaling-stroke; stroke-width: 1; fill: url(&quot;#gradient-2-3&quot;);" class="zone"/>
  <rect x="231.303" y="-90.245" width="38.573" height="26.23" style="stroke: rgb(0, 0, 0); vector-effect: non-scaling-stroke; stroke-width: 1; fill: url(&quot;#gradient-1-2&quot;);" class="zone"/>
  <rect x="6.918" y="-121.88" width="38.573" height="26.23" style="stroke: rgb(0, 0, 0); vector-effect: non-scaling-stroke; stroke-width: 1; fill: url(&quot;#color__zone__water&quot;);" class="zone"/>
  <rect x="51.718" y="-121.88" width="38.573" height="26.23" style="stroke: rgb(0, 0, 0); vector-effect: non-scaling-stroke; stroke-width: 1; fill: url(&quot;#color__zone__noaccess&quot;);" class="zone"/>
  <rect x="96.518" y="-121.88" width="38.573" height="26.23" style="stroke: rgb(0, 0, 0); vector-effect: non-scaling-stroke; stroke-width: 1; fill: url(&quot;#color__zone__workspace&quot;);" class="zone"/>
  <rect x="141.318" y="-121.88" width="38.573" height="26.23" style="stroke: rgb(0, 0, 0); vector-effect: non-scaling-stroke; stroke-width: 1; fill: url(&quot;#color__zone__building&quot;);" class="zone"/>
  <rect x="186.118" y="-121.88" width="38.573" height="26.23" style="stroke: rgb(0, 0, 0); vector-effect: non-scaling-stroke; stroke-width: 1; fill: url(&quot;#color__zone__walking&quot;);" class="zone"/>
  <rect x="230.918" y="-121.88" width="38.573" height="26.23" style="stroke: rgb(0, 0, 0); vector-effect: non-scaling-stroke; stroke-width: 1; fill: url(&quot;#color__zone__stairs_elevators&quot;);" class="zone"/>
  <text style="white-space: pre; fill: rgb(51, 51, 51); font-family: Arial, sans-serif; font-size: 15.8px;" x="116.603" y="-141">Zones</text>
  <text style="fill: rgb(51, 51, 51); font-family: Arial, sans-serif; font-size: 6px; white-space: pre; text-anchor: middle;" x="24.44" y="-126.01">Water</text>
  <text style="fill: rgb(51, 51, 51); font-family: Arial, sans-serif; font-size: 6px; white-space: pre; text-anchor: middle;" x="70.698" y="-125.84">NoAccess</text>
  <text style="fill: rgb(51, 51, 51); font-family: Arial, sans-serif; font-size: 6px; white-space: pre; text-anchor: middle;" x="115.865" y="-125.84">Workspace</text>
  <text style="fill: rgb(51, 51, 51); font-family: Arial, sans-serif; font-size: 6px; white-space: pre; text-anchor: middle;" x="159.032" y="-125.84">Building</text>
  <text style="fill: rgb(51, 51, 51); font-family: Arial, sans-serif; font-size: 6px; white-space: pre; text-anchor: middle;" transform="matrix(1, 0, 0, 1, 21, -10)"><tspan x="183.199" y="-115.84">Walking</tspan><tspan x="183.199" dy="1em"></tspan></text>
  <text style="fill: rgb(51, 51, 51); font-family: Arial, sans-serif; font-size: 6px; white-space: pre; text-anchor: middle;" x="250.365" y="-125.84">Stairs/Elevators</text>
  <rect x="285.056" y="-159.86" width="142.039" height="152.16" style="stroke: rgb(0, 0, 0); fill: none; vector-effect: non-scaling-stroke; stroke-width: 2;"/>
  <text style="white-space: pre; fill: rgb(51, 51, 51); font-family: Arial, sans-serif; font-size: 15.8px; stroke-width: 1;" x="325.107" y="-140.88">Symbols</text>
  <use href="#symbol__seat__120x60" width="12" height="8" transform="matrix(1, 0, 0, 1, 333.120092, -102.429338)" style="transform-origin: 6.00001px 4px;" class="seat"/>
  <text style="fill: rgb(51, 51, 51); font-family: Arial, sans-serif; font-size: 6px; white-space: pre; text-anchor: middle; stroke-width: 1;" x="310.513" y="-96.351">Seat 120x60</text>
  <text style="fill: rgb(51, 51, 51); font-family: Arial, sans-serif; font-size: 6px; white-space: pre; text-anchor: middle; stroke-width: 1;" x="310.512" y="-76.319">Seat 125x75</text>
  <text style="fill: rgb(51, 51, 51); font-family: Arial, sans-serif; font-size: 6px; white-space: pre; text-anchor: middle; stroke-width: 1;" x="310.302" y="-116.31">Seat 110x67</text>
  <use href="#symbol__seat__125x75" width="12.5" height="8.5" transform="matrix(1, 0, 0, 1, 332.870092, -82.650026)" class="seat"/>
  <use href="#symbol__seat__110x67" width="11" height="7.699999809265137" transform="matrix(1, 0, 0, 1, 333.409826, -122.239321)" class="seat"/>
  <path style="stroke: rgb(0, 0, 0); vector-effect: non-scaling-stroke; fill: url(&quot;#color-0-2&quot;);" d="M 10.697 -27.589 C 10.697 -27.589 11.962 -14.519 12.383 -14.097 C 12.804 -13.675 43.583 -11.989 44.004 -14.097 C 44.425 -16.205 41.475 -29.697 41.475 -29.697 L 23.345 -24.638 L 10.697 -27.589 Z" class="zone"/>
  <path style="stroke: rgb(0, 0, 0); vector-effect: non-scaling-stroke; stroke-width: 1; fill: url(&quot;#gradient-1-3&quot;);" d="M 233.922 -26.633 C 233.922 -26.633 235.187 -13.563 235.608 -13.141 C 236.029 -12.719 266.808 -11.033 267.229 -13.141 C 267.65 -15.249 264.7 -28.741 264.7 -28.741 L 246.57 -23.682 L 233.922 -26.633 Z" class="zone"/>
  <path style="stroke: rgb(0, 0, 0); vector-effect: non-scaling-stroke; stroke-width: 1; fill: url(&quot;#gradient-2-2&quot;);" d="M 188.388 -27.476 C 188.388 -27.476 189.653 -14.406 190.074 -13.984 C 190.495 -13.562 221.274 -11.876 221.695 -13.984 C 222.116 -16.092 219.166 -29.584 219.166 -29.584 L 201.036 -24.525 L 188.388 -27.476 Z" class="zone"/>
  <path style="stroke: rgb(0, 0, 0); vector-effect: non-scaling-stroke; stroke-width: 1; fill: url(&quot;#gradient-0-3&quot;);" d="M 144.961 -27.476 C 144.961 -27.476 146.226 -14.406 146.647 -13.984 C 147.068 -13.562 177.847 -11.876 178.268 -13.984 C 178.689 -16.092 175.739 -29.584 175.739 -29.584 L 157.609 -24.525 L 144.961 -27.476 Z" class="zone"/>
  <path style="stroke: rgb(0, 0, 0); vector-effect: non-scaling-stroke; stroke-width: 1; fill: url(&quot;#gradient-14-3&quot;);" d="M 100.692 -28.741 C 100.692 -28.741 101.957 -15.671 102.378 -15.249 C 102.799 -14.827 133.578 -13.141 133.999 -15.249 C 134.42 -17.357 131.47 -30.849 131.47 -30.849 L 113.34 -25.79 L 100.692 -28.741 Z" class="zone"/>
  <path style="stroke: rgb(0, 0, 0); vector-effect: non-scaling-stroke; stroke-width: 1; fill: url(&quot;#gradient-4-2&quot;);" d="M 53.892 -27.476 C 53.892 -27.476 55.157 -14.406 55.578 -13.984 C 55.999 -13.562 86.778 -11.876 87.199 -13.984 C 87.62 -16.092 84.67 -29.584 84.67 -29.584 L 66.54 -24.525 L 53.892 -27.476 Z" class="zone"/>
  <rect x="488.149" y="-155.4" width="10" height="10" style="stroke: rgb(0, 0, 0); vector-effect: non-scaling-stroke; fill: none;"/>
  <text style="fill: rgb(51, 51, 51); font-family: Arial, sans-serif; font-size: 7.3px; white-space: pre;" x="4"><tspan x="433.578" y="-148.14" style="font-size: 7.3px; word-spacing: 0px;">Echelle: 1m</tspan><tspan style="baseline-shift: super; font-size: 7.3px; word-spacing: 0px;">2</tspan><tspan style="font-size: 7.3px; word-spacing: 0px;"> =</tspan></text>
  <line style="stroke: rgb(0, 0, 0); fill: none;" x1="-42.171" y1="-18.753" x2="-0.71" y2="-0.298"/>
  <polyline style="stroke: rgb(0, 0, 0); fill: none;" points="-12.783 -0.384 -0.145 0.115 -8.412 -9.806"/>
  <text style="white-space: pre; fill: rgb(51, 51, 51); font-family: Arial, sans-serif; font-size: 28px;" x="-79.984" y="-34.162" transform="matrix(0.365077, 0, 0, 0.365077, -44.833893, -9.483667)">Map Origin<tspan x="-79.98400115966797" dy="1em"></tspan></text>
  <text style="fill: rgb(51, 51, 51); font-family: Arial, sans-serif; font-size: 6px; white-space: pre; text-anchor: middle; stroke-width: 1;" x="314.408" y="-53.573">Big Plant</text>
  <use href="#symbol_bigplant" width="9.397000312805176" height="9.565899848937988" transform="matrix(1, 0, 0, 1, 333.275884, -62.794183)" class="plant"/>
  <text style="fill: rgb(51, 51, 51); font-family: Arial, sans-serif; font-size: 6px; white-space: pre; text-anchor: middle; stroke-width: 1;" x="319.533" y="-35.804">WC</text>
  <text style="fill: rgb(51, 51, 51); font-family: Arial, sans-serif; font-size: 6px; white-space: pre; text-anchor: middle; stroke-width: 1;" x="311.32" y="-18.029">Chill Zone</text>
  <use href="#symbol-chill" width="9.743800163269043" height="9.91469955444336" transform="matrix(1, 0, 0, 1, 334.205388, -26.387213)" class="chill"/>
  <use href="#symbol-wc" width="6.937399864196777" height="9.654199600219727" transform="matrix(1, 0, 0, 1, 335.240972, -45.191041)" class="wc"/>
  <use href="#symbol_bigplant" width="9.397000312805176" height="9.565899848937988" transform="matrix(1, 0, 0, 1, 11.635295, 13.147105)" class="plant"/>
  <use href="#symbol_bigplant" width="9.397000312805176" height="9.565899848937988" transform="matrix(1, 0, 0, 1, 14.134143, 52.129704)" class="plant"/>
  <use href="#symbol-chill" width="9.743800163269043" height="9.91469955444336" transform="matrix(1, 0, 0, 1, 26.455101, 30.964676)"/>
  <use href="#symbol-wc" width="6.937399864196777" height="9.654199600219727" transform="matrix(1, 0, 0, 1, 192.783542, 122.554109)" class="wc"/>
  <use href="#symbol-wc" width="6.937399864196777" height="9.654199600219727" transform="matrix(1, 0, 0, 1, 249.40749, 124.824335)" class="wc"/>
  <use href="#symbol-wc" width="6.937399864196777" height="9.654199600219727" transform="matrix(1, 0, 0, 1, 189.285129, 100.064142)" class="wc"/>
  <use href="#symbol-wc" width="6.937399864196777" height="9.654199600219727" transform="matrix(1, 0, 0, 1, 187.286029, 75.575074)" class="wc"/>
  <use href="#symbol-wc" width="6.937399864196777" height="9.654199600219727" transform="matrix(1, 0, 0, 1, 248.142628, 76.309312)" class="wc"/>
  <use href="#symbol-wc" width="6.937399864196777" height="9.654199600219727" transform="matrix(1, 0, 0, 1, 247.75864, 97.565263)" class="wc"/>
  <use href="#symbol_bigplant" width="9.397000312805176" height="9.565899848937988" transform="matrix(1, 0, 0, 1, 348.52152, 126.608629)" class="plant"/>
  <use href="#symbol_bigplant" width="9.397000312805176" height="9.565899848937988" transform="matrix(1, 0, 0, 1, 98.859911, 80.357202)" class="plant"/>
  <use href="#symbol_bigplant" width="9.397000312805176" height="9.565899848937988" transform="matrix(1, 0, 0, 1, 340.498357, 46.376561)" class="plant"/>
  <use href="#symbol-door" width="7.300000190734863" height="13.309100151062012" transform="matrix(1, 0, 0, 1, 400.18659, -126.272661)" class="door"/>
  <text style="fill: rgb(51, 51, 51); font-family: Arial, sans-serif; font-size: 6px; white-space: pre; text-anchor: middle; stroke-width: 1;" x="385.811" y="-116.88">Door</text>
  <use href="#symbol-door" width="7.300000190734863" height="13.309100151062012" transform="matrix(1, 0, 0, 1, 318.902501, 34.748856)" class="door"/>
  <use href="#symbol-door" width="7.300000190734863" height="13.309100151062012" transform="matrix(-1, 0, 0, -1, 311.526158, 34.634533)" style="transform-box: fill-box; transform-origin: 50% 50%;" class="door"/>
  <use href="#symbol-door" width="7.300000190734863" height="13.309100151062012" transform="matrix(1, 0, 0, 1, 236.969822, 34.63453)" class="door"/>
  <use href="#symbol-door" width="7.300000190734863" height="13.309100151062012" transform="matrix(1, 0, 0, 1, 197.567004, 34.248223)" class="door"/>
  <use href="#symbol-door" width="7.300000190734863" height="13.309100151062012" transform="matrix(1.740854, 0, 0, 1, 97.321527, 134.686953)" style="" class="door"/>
  <use href="#symbol-door" width="7.300000190734863" height="13.309100151062012" transform="matrix(-1.740854, 0, 0, -1, 87.277673, 134.880114)" style="transform-box: fill-box; transform-origin: 50% 50%;" class="door"/>
  <use href="#symbol-door" width="7.300000190734863" height="13.309100151062012" transform="matrix(0, 1.000007, -0.999993, 0, 53.225911, 98.972353)" style="transform-box: fill-box; transform-origin: 50% 50%;" class="door"/>
  <use href="#symbol-door" width="7.300000190734863" height="13.309100151062012" transform="matrix(0, -1.000007, 0.999993, 0, 53.340241, 91.595972)" style="transform-origin: 3.65001px 6.65455px;" class="door"/>
  <use href="#symbol-door" width="7.300000190734863" height="13.309100151062012" transform="matrix(1, 0, 0, 1, 100.411958, 34.054841)" class="door"/>
  <g transform="matrix(1, 0, 0, 1, 194.136172, 95.325006)">
    <path style="fill: rgb(216, 216, 216); stroke: rgb(0, 0, 0);" d="M 431.673 250.901 C 431.673 251.639 431.581 252.166 431.926 252.82 C 432.222 253.379 433.442 255.701 434.463 255.218 C 435.01 254.959 436.808 251.38 435.731 251.38 C 435.482 251.38 435.914 252.959 435.984 253.059 C 436.525 253.827 437.783 254.331 438.774 254.019 C 440.875 253.356 440.843 250.421 438.267 250.421"/>
    <path style="fill: rgb(216, 216, 216); stroke: rgb(0, 0, 0);" d="M 441.818 254.019 C 441.818 252.78 441.511 251.001 442.071 249.941 C 443.371 247.482 446.129 251.118 446.129 252.58"/>
    <path style="fill: rgb(216, 216, 216); stroke: rgb(0, 0, 0);" d="M 442.071 251.62 C 443.591 250.662 446.223 250.421 447.904 250.421"/>
    <path style="fill: rgb(216, 216, 216); stroke: rgb(0, 0, 0);" d="M 449.933 247.542 C 449.133 246.785 445.25 246.36 446.383 248.502 C 447.756 251.1 451.968 248.984 453.991 249.941 C 454.337 250.104 454.936 251.217 454.245 251.38 C 453.449 251.568 452.514 251.228 451.709 251.38 C 450.896 251.534 449.631 252.1 448.919 252.1"/>
    <path style="fill: rgb(216, 216, 216); stroke: rgb(0, 0, 0);" d="M 438.774 259.776 C 439.321 260.294 439.789 262.095 439.789 262.895"/>
    <path style="fill: rgb(216, 216, 216); stroke: rgb(0, 0, 0);" d="M 435.223 260.736 C 437.919 259.036 442.144 259.753 445.114 258.816"/>
    <path style="fill: rgb(216, 216, 216); stroke: rgb(0, 0, 0);" d="M 447.397 256.658 C 448.355 258.016 448.665 259.136 448.665 260.736"/>
    <path style="fill: rgb(216, 216, 216); stroke: rgb(0, 0, 0);" d="M 451.455 255.218 C 451.455 256.583 452.369 258.672 451.201 259.776"/>
    <path style="fill: rgb(216, 216, 216); stroke: rgb(0, 0, 0);" d="M 448.665 258.097 C 450.309 257.579 453.151 255.938 454.752 255.938"/>
    <path style="fill: rgb(216, 216, 216); stroke: rgb(0, 0, 0);" d="M 457.288 254.739 C 457.018 253.972 456.243 253.314 455.259 253.779 C 454.333 254.217 454.391 258.406 455.259 258.816 C 456.522 259.414 458.594 258.337 459.824 258.337"/>
    <path style="fill: rgb(216, 216, 216); stroke: rgb(0, 0, 0);" d="M 455.766 257.377 C 457.135 257.054 459.119 257.231 460.332 256.658 C 460.626 256.518 461.012 255.938 461.346 255.938"/>
    <path style="fill: rgb(216, 216, 216); stroke: rgb(0, 0, 0);" d="M 464.389 258.577 C 463.62 257.849 462.087 251.87 463.628 251.14 C 465.055 250.466 467.42 252.617 466.926 254.019 C 466.667 254.752 465.6 254.793 465.15 255.218 C 464.571 255.766 467.573 256.418 467.94 256.418"/>
    <path style="fill: rgb(216, 216, 216); stroke: rgb(0, 0, 0);" d="M 469.462 251.38 C 470.028 252.452 469.338 253.668 469.715 254.739 C 470.32 256.454 473.65 254.978 474.534 254.978"/>
    <path style="fill: rgb(216, 216, 216); stroke: rgb(0, 0, 0);" d="M 468.447 253.779 C 469.285 253.581 472.759 253.222 472.759 252.1"/>
    <path style="fill: rgb(216, 216, 216); stroke: rgb(0, 0, 0);" d="M 467.94 250.421 C 468.888 249.524 470.658 248.981 471.998 248.981"/>
    <path style="fill: rgb(216, 216, 216); stroke: rgb(0, 0, 0);" d="M 461.853 268.891 C 462.868 268.412 463.832 268.219 464.643 267.452 C 465.184 266.941 465.875 266.458 466.165 265.773 C 466.428 265.152 466.672 264.523 466.672 263.854 C 466.672 260.265 463.374 262.655 461.346 263.614 C 460.984 263.785 459.96 265.011 459.824 265.053 C 459.584 265.129 459.064 264.814 459.064 265.053 C 458.685 263.98 452.973 261.707 452.216 263.854 C 451.717 265.27 453.275 265.752 454.245 266.253 C 456.664 267.501 459.561 270.091 462.36 270.091"/>
    <path style="fill: rgb(216, 216, 216); stroke: rgb(0, 0, 0);" d="M 428.122 239.866 C 428.122 241.524 428.629 243.033 428.629 244.664 C 428.629 245.063 429.052 245.863 428.629 245.863 C 428.086 245.863 424.797 241.837 425.079 241.305 C 425.389 240.719 430.234 240.845 431.166 241.065 C 433.752 241.677 433.221 245.447 431.419 246.583 C 430.206 247.348 428.279 247.062 426.854 247.062 C 426.476 247.062 427.51 246.696 427.869 246.583 C 428.798 246.29 429.953 246.304 430.912 246.103 C 433.226 245.617 436.403 244.945 438.521 243.944 C 438.969 243.732 440.641 242.677 440.296 242.025 C 438.487 238.603 431.965 242.883 436.238 244.903 C 438.554 245.999 442.223 245.935 444.354 244.424 C 444.984 243.976 446.588 242.893 446.129 242.025 C 444.723 239.365 440.408 242.917 443.086 244.184 C 446.675 245.881 450.043 243.224 453.484 243.224"/>
    <path style="fill: rgb(216, 216, 216); stroke: rgb(0, 0, 0);" d="M 479.606 254.978 C 478.095 260.696 485.899 253.539 480.621 253.539 C 480.243 253.539 479.984 253.059 479.606 253.059 C 479.606 249.843 478.592 246.42 478.592 242.984"/>
  </g>
</svg>