# Blender 3.1.1
# www.blender.org
mtllib conveyor.mtl
o Cube.004
v 1.898127 0.136080 -0.000000
v 1.898127 0.136080 0.025000
v 1.898127 -0.136080 -0.000000
v 1.898127 -0.136080 0.025000
v -1.101873 0.136080 -0.000000
v -1.101873 0.136080 0.025000
v -1.101873 -0.136080 -0.000000
v -1.101873 -0.136080 0.025000
vn 1.0000 -0.0000 -0.0000
vn -0.0000 -1.0000 -0.0000
vn -1.0000 -0.0000 -0.0000
vn -0.0000 1.0000 -0.0000
vn -0.0000 -0.0000 -1.0000
vn -0.0000 -0.0000 1.0000
vt 0.500747 0.420513
vt 0.991581 0.201899
vt 0.125000 0.750000
vt 0.470970 0.420513
vt 0.991579 0.005364
vt 0.993742 0.970665
vt 0.500747 0.670513
vt 0.001988 0.198952
vt 0.125000 0.500000
vt 0.470970 0.670513
vt 0.001986 0.008312
vt 0.993742 0.244722
vt 0.487998 0.750000
vt 0.002210 0.201899
vt 0.375000 0.750000
vt 0.512002 0.750000
vt 0.002207 0.005365
vt 0.012471 0.970665
vt 0.991803 0.198952
vt 0.487998 0.500000
vt 0.375000 0.500000
vt 0.991800 0.008312
vt 0.512002 0.500000
vt 0.012471 0.244722
s 0
usemtl Material.005
f 1/1/1 2/4/1 4/10/1 3/7/1
f 3/8/2 4/11/2 8/22/2 7/19/2
f 7/20/3 8/23/3 6/16/3 5/13/3
f 5/14/4 6/17/4 2/5/4 1/2/4
f 3/9/5 7/21/5 5/15/5 1/3/5
f 8/24/6 4/12/6 2/6/6 6/18/6
