<?xml version="1.0" encoding="UTF-8" standalone="no"?>
<!DOCTYPE svg PUBLIC "-//W3C//DTD SVG 1.1//EN"
 "http://www.w3.org/Graphics/SVG/1.1/DTD/svg11.dtd">
<!-- Generated by graphviz version 2.43.0 (0)
 -->
<!-- Title: index Pages: 1 -->
<svg width="452pt" height="274pt"
 viewBox="0.00 0.00 452.17 274.00" xmlns="http://www.w3.org/2000/svg" xmlns:xlink="http://www.w3.org/1999/xlink">
<g id="graph0" class="graph" transform="scale(1 1) rotate(0) translate(4 270)">
<title>index</title>
<g id="clust2" class="cluster">
<title>cluster/build</title>
<polygon fill="transparent" stroke="#c0c000" stroke-width="2" points="8,-46 8,-175 182.59,-175 182.59,-46 8,-46"/>
<text text-anchor="middle" x="95.29" y="-159.8" font-family="DejaVu Sans" font-size="14.00" fill="#ff8000">Build</text>
</g>
<g id="clust3" class="cluster">
<title>cluster/live</title>
<polygon fill="transparent" stroke="#c0c000" stroke-width="2" points="54.8,-183 54.8,-258 135.79,-258 135.79,-183 54.8,-183"/>
<text text-anchor="middle" x="95.29" y="-242.8" font-family="DejaVu Sans" font-size="14.00" fill="#ff8000">Live</text>
</g>
<!-- doc -->
<g id="node2" class="node">
<title>doc</title>
<ellipse fill="#408040" stroke="#c0c0c0" stroke-width="2" cx="95.29" cy="-126" rx="79.09" ry="18"/>
<text text-anchor="middle" x="95.29" y="-122.3" font-family="DejaVu Sans" font-size="14.00" fill="#ffffff">Documentation</text>
</g>
<!-- img -->
<g id="node3" class="node">
<title>img</title>
<ellipse fill="#408040" stroke="#c0c0c0" stroke-width="2" cx="95.29" cy="-72" rx="44.39" ry="18"/>
<text text-anchor="middle" x="95.29" y="-68.3" font-family="DejaVu Sans" font-size="14.00" fill="#ffffff">Images</text>
</g>
<!-- scan -->
<g id="node4" class="node">
<title>scan</title>
<ellipse fill="#408040" stroke="#c0c0c0" stroke-width="2" cx="95.29" cy="-209" rx="32.49" ry="18"/>
<text text-anchor="middle" x="95.29" y="-205.3" font-family="DejaVu Sans" font-size="14.00" fill="#ffffff">Scan</text>
</g>
<!-- doc/build/grub -->
<g id="node5" class="node">
<title>doc/build/grub</title>
<g id="a_node5"><a xlink:href="https://www.gnu.org/software/grub/manual/grub/grub.html" xlink:title="GRUB">
<ellipse fill="#303030" stroke="#c0c0c0" stroke-width="2" cx="247.63" cy="-126" rx="37.09" ry="18"/>
<text text-anchor="middle" x="247.63" y="-122.3" font-family="DejaVu Sans" font-size="14.00" fill="#8080ff">GRUB</text>
</a>
</g>
</g>
<!-- doc/build/grub&#45;&gt;doc -->
<g id="edge1" class="edge">
<title>doc/build/grub&#45;&gt;doc</title>
<path fill="none" stroke="#ff0000" stroke-width="2" d="M210.24,-126C202.41,-126 193.81,-126 184.95,-126"/>
<polygon fill="#ff0000" stroke="#ff0000" stroke-width="2" points="184.86,-122.5 174.86,-126 184.86,-129.5 184.86,-122.5"/>
</g>
<!-- doc/commands -->
<g id="node6" class="node">
<title>doc/commands</title>
<g id="a_node6"><a xlink:href="https://www.gnu.org/software/grub/manual/grub/grub.html#Commands" xlink:title="Commands">
<ellipse fill="#303030" stroke="#c0c0c0" stroke-width="2" cx="382.42" cy="-153" rx="61.99" ry="18"/>
<text text-anchor="middle" x="382.42" y="-149.3" font-family="DejaVu Sans" font-size="14.00" fill="#8080ff">Commands</text>
</a>
</g>
</g>
<!-- doc/commands&#45;&gt;doc/build/grub -->
<g id="edge2" class="edge">
<title>doc/commands&#45;&gt;doc/build/grub</title>
<path fill="none" stroke="#ff0000" stroke-width="2" d="M331.22,-142.79C318.37,-140.18 304.65,-137.39 292.17,-134.85"/>
<polygon fill="#ff0000" stroke="#ff0000" stroke-width="2" points="292.51,-131.35 282.01,-132.79 291.11,-138.21 292.51,-131.35"/>
</g>
<!-- doc/variables -->
<g id="node7" class="node">
<title>doc/variables</title>
<g id="a_node7"><a xlink:href="https://www.gnu.org/software/grub/manual/grub/grub.html#Environment" xlink:title="Variables">
<ellipse fill="#303030" stroke="#c0c0c0" stroke-width="2" cx="382.42" cy="-99" rx="51.99" ry="18"/>
<text text-anchor="middle" x="382.42" y="-95.3" font-family="DejaVu Sans" font-size="14.00" fill="#8080ff">Variables</text>
</a>
</g>
</g>
<!-- doc/variables&#45;&gt;doc/build/grub -->
<g id="edge3" class="edge">
<title>doc/variables&#45;&gt;doc/build/grub</title>
<path fill="none" stroke="#ff0000" stroke-width="2" d="M337.21,-107.99C322.76,-110.93 306.72,-114.19 292.31,-117.12"/>
<polygon fill="#ff0000" stroke="#ff0000" stroke-width="2" points="291.26,-113.76 282.15,-119.18 292.65,-120.62 291.26,-113.76"/>
</g>
</g>
</svg>
