<svg id="svg1" width="51.709" height="52" version="1.1" viewBox="0 0 13.681 13.758" xmlns="http://www.w3.org/2000/svg"><g id="layer1" transform="matrix(.28247 0 0 .28247 -.28684 -.32823)"><path id="repo-logo-spokes" transform="matrix(2.2819 0 0 2.2819 -6.3818 -9.1433)" d="m20.852 21.817c-0.1435 0.15233-6.1975-5.4586-6.3979-5.3984-0.20044 0.06017-2.1631 8.0777-2.3668 8.0296-0.20368-0.04811 1.6285-8.0965 1.4762-8.24-0.15233-0.1435-8.0771 2.1655-8.1373 1.9651-0.060173-0.20044 7.826-2.6379 7.8741-2.8416 0.04811-0.20367-5.9139-5.9122-5.7704-6.0645 0.1435-0.15233 6.1975 5.4586 6.3979 5.3984 0.20044-0.06017 2.1631-8.0777 2.3668-8.0296 0.20368 0.04811-1.6285 8.0965-1.4762 8.24 0.15233 0.1435 8.0771-2.1655 8.1373-1.9651 0.06017 0.20044-7.826 2.6379-7.8741 2.8416-0.04811 0.20367 5.9139 5.9122 5.7704 6.0645z" style="fill:#140826;stroke-width:.1143"/><g id="repo-logo-node6" transform="matrix(3.1484 0 0 3.1484 -21.387 -26.95)" style="fill:#060d9d"><path id="path3" d="m8.116 13.445c-0.90268-1.656 0.21967-3.6423 2.0581-3.6423 0.51859 0 1.1427 0.19568 1.3653 0.42811l0.08411 0.08779-0.94642 0.94642-0.18154-0.05496c-0.82174-0.2488-1.6755 0.69537-1.2962 1.4335l0.05348 0.10405-0.46172 0.47035c-0.55547 0.56586-0.50057 0.54739-0.67515 0.22712z" style="fill:#060d9d;stroke-width:.11429"/><path id="path8" d="m9.888 14.638c-0.39412-0.04687-1.0935-0.33133-1.1117-0.45216-0.0036-0.02408 0.20153-0.25965 0.45592-0.52349l0.46252-0.47971 0.1034 0.05635c0.73565 0.40087 1.7225-0.57395 1.3764-1.3596l-0.05095-0.11564 0.39159-0.41356c0.21537-0.22745 0.432-0.45189 0.48139-0.49874l0.08981-0.08519 0.06525 0.08295c0.60407 0.76795 0.53213 2.1615-0.15393 2.9818-0.48634 0.58146-1.3211 0.90078-2.1097 0.807z" style="fill:#060d9d;stroke-width:.11429"/></g><g id="repo-logo-node5" transform="matrix(2.0989 0 0 2.0989 9.2186 -19.414)" style="fill:#00495c"><path id="path3-2" d="m8.116 13.445c-0.90268-1.656 0.21967-3.6423 2.0581-3.6423 0.51859 0 1.1427 0.19568 1.3653 0.42811l0.08411 0.08779-0.94642 0.94642-0.18154-0.05496c-0.82174-0.2488-1.6755 0.69537-1.2962 1.4335l0.05348 0.10405-0.46172 0.47035c-0.55547 0.56586-0.50057 0.54739-0.67515 0.22712z" style="fill:#00495c;stroke-width:.11429"/><path id="path8-9" d="m9.888 14.638c-0.39412-0.04687-1.0935-0.33133-1.1117-0.45216-0.0036-0.02408 0.20153-0.25965 0.45592-0.52349l0.46252-0.47971 0.1034 0.05635c0.73565 0.40087 1.7225-0.57395 1.3764-1.3596l-0.05095-0.11564 0.39159-0.41356c0.21537-0.22745 0.432-0.45189 0.48139-0.49874l0.08981-0.08519 0.06525 0.08295c0.60407 0.76795 0.53213 2.1615-0.15393 2.9818-0.48634 0.58146-1.3211 0.90078-2.1097 0.807z" style="fill:#00495c;stroke-width:.11429"/></g><g id="repo-logo-node4" transform="matrix(2.0989 0 0 2.0989 -15.352 6.5904)" style="fill:#00495c"><path id="path3-2-3" d="m8.116 13.445c-0.90268-1.656 0.21967-3.6423 2.0581-3.6423 0.51859 0 1.1427 0.19568 1.3653 0.42811l0.08411 0.08779-0.94642 0.94642-0.18154-0.05496c-0.82174-0.2488-1.6755 0.69537-1.2962 1.4335l0.05348 0.10405-0.46172 0.47035c-0.55547 0.56586-0.50057 0.54739-0.67515 0.22712z" style="fill:#00495c;stroke-width:.11429"/><path id="path8-9-6" d="m9.888 14.638c-0.39412-0.04687-1.0935-0.33133-1.1117-0.45216-0.0036-0.02408 0.20153-0.25965 0.45592-0.52349l0.46252-0.47971 0.1034 0.05635c0.73565 0.40087 1.7225-0.57395 1.3764-1.3596l-0.05095-0.11564 0.39159-0.41356c0.21537-0.22745 0.432-0.45189 0.48139-0.49874l0.08981-0.08519 0.06525 0.08295c0.60407 0.76795 0.53213 2.1615-0.15393 2.9818-0.48634 0.58146-1.3211 0.90078-2.1097 0.807z" style="fill:#00495c;stroke-width:.11429"/></g><g id="repo-logo-node3" transform="matrix(1.3979 0 0 1.3979 6.7942 29.384)" style="fill:#008170"><path id="path3-2-8" d="m8.116 13.445c-0.90268-1.656 0.21967-3.6423 2.0581-3.6423 0.51859 0 1.1427 0.19568 1.3653 0.42811l0.08411 0.08779-0.94642 0.94642-0.18154-0.05496c-0.82174-0.2488-1.6755 0.69537-1.2962 1.4335l0.05348 0.10405-0.46172 0.47035c-0.55547 0.56586-0.50057 0.54739-0.67515 0.22712z" style="fill:#008170;stroke-width:.11429"/><path id="path8-9-7" d="m9.888 14.638c-0.39412-0.04687-1.0935-0.33133-1.1117-0.45216-0.0036-0.02408 0.20153-0.25965 0.45592-0.52349l0.46252-0.47971 0.1034 0.05635c0.73565 0.40087 1.7225-0.57395 1.3764-1.3596l-0.05095-0.11564 0.39159-0.41356c0.21537-0.22745 0.432-0.45189 0.48139-0.49874l0.08981-0.08519 0.06525 0.08295c0.60407 0.76795 0.53213 2.1615-0.15393 2.9818-0.48634 0.58146-1.3211 0.90078-2.1097 0.807z" style="fill:#008170;stroke-width:.11429"/></g><g id="repo-logo-node2" transform="matrix(1.3979 0 0 1.3979 31.89 3.0189)" style="fill:#008170"><path id="path3-2-8-7" d="m8.116 13.445c-0.90268-1.656 0.21967-3.6423 2.0581-3.6423 0.51859 0 1.1427 0.19568 1.3653 0.42811l0.08411 0.08779-0.94642 0.94642-0.18154-0.05496c-0.82174-0.2488-1.6755 0.69537-1.2962 1.4335l0.05348 0.10405-0.46172 0.47035c-0.55547 0.56586-0.50057 0.54739-0.67515 0.22712z" style="fill:#008170;stroke-width:.11429"/><path id="path8-9-7-5" d="m9.888 14.638c-0.39412-0.04687-1.0935-0.33133-1.1117-0.45216-0.0036-0.02408 0.20153-0.25965 0.45592-0.52349l0.46252-0.47971 0.1034 0.05635c0.73565 0.40087 1.7225-0.57395 1.3764-1.3596l-0.05095-0.11564 0.39159-0.41356c0.21537-0.22745 0.432-0.45189 0.48139-0.49874l0.08981-0.08519 0.06525 0.08295c0.60407 0.76795 0.53213 2.1615-0.15393 2.9818-0.48634 0.58146-1.3211 0.90078-2.1097 0.807z" style="fill:#008170;stroke-width:.11429"/></g><g id="repo-logo-node1" transform="matrix(.93193 0 0 .93193 31.358 28.939)" style="fill:#069d4a"><path id="path3-2-8-73" d="m8.116 13.445c-0.90268-1.656 0.21967-3.6423 2.0581-3.6423 0.51859 0 1.1427 0.19568 1.3653 0.42811l0.08411 0.08779-0.94642 0.94642-0.18154-0.05496c-0.82174-0.2488-1.6755 0.69537-1.2962 1.4335l0.05348 0.10405-0.46172 0.47035c-0.55547 0.56586-0.50057 0.54739-0.67515 0.22712z" style="fill:#069d4a;stroke-width:.11429"/><path id="path8-9-7-6" d="m9.888 14.638c-0.39412-0.04687-1.0935-0.33133-1.1117-0.45216-0.0036-0.02408 0.20153-0.25965 0.45592-0.52349l0.46252-0.47971 0.1034 0.05635c0.73565 0.40087 1.7225-0.57395 1.3764-1.3596l-0.05095-0.11564 0.39159-0.41356c0.21537-0.22745 0.432-0.45189 0.48139-0.49874l0.08981-0.08519 0.06525 0.08295c0.60407 0.76795 0.53213 2.1615-0.15393 2.9818-0.48634 0.58146-1.3211 0.90078-2.1097 0.807z" style="fill:#069d4a;stroke-width:.11429"/></g></g></svg>
