<?xml version="1.0" ?><svg height="48" viewBox="0 0 48 48" width="48" xmlns="http://www.w3.org/2000/svg"><defs><style>.cls-1{fill:#e8e8e8;}.cls-2{fill:none;stroke:#474c54;stroke-linecap:round;stroke-linejoin:round;stroke-width:2px;}</style></defs><title/><g data-name="27-Folder-Security" id="_27-Folder-Security"><g data-name="&lt;Group&gt;" id="_Group_"><path class="cls-1" d="M44,24v5a4,4,0,0,1-4,4H20L6,47V5a4,4,0,0,1,4-4H40a4,4,0,0,1,4,4v5a2.938,2.938,0,0,1-3,3H25a1.959,1.959,0,0,0-2,2v4a1.959,1.959,0,0,0,2,2H40C44,21,44,24,44,24Z"/><path class="cls-2" d="M40,33a4,4,0,0,0,4-4V24s0-3-4-3H25a1.959,1.959,0,0,1-2-2V15a1.959,1.959,0,0,1,2-2H41a2.938,2.938,0,0,0,3-3V5a4,4,0,0,0-4-4H10A4,4,0,0,0,6,5V47L20,33Z"/></g></g></svg>