# Blender v3.0.0 OBJ File: ''
# www.blender.org
mtllib cam.mtl
o Cube_Cube.001
v 0.011554 -0.011554 -0.038460
v 0.011554 -0.011554 -0.014294
v -0.011554 -0.011554 -0.038460
v -0.011554 -0.011554 -0.014294
v 0.011554 0.011554 -0.038460
v 0.011554 0.011554 -0.014294
v -0.011554 0.011554 -0.038460
v -0.011554 0.011554 -0.014294
v 0.007036 -0.007036 -0.014294
v -0.007036 -0.007036 -0.014294
v -0.007036 0.007036 -0.014294
v 0.007036 0.007036 -0.014294
v 0.007036 -0.007036 -0.009429
v -0.007036 -0.007036 -0.009429
v -0.007036 0.007036 -0.009429
v 0.007036 0.007036 -0.009429
v 0.003994 -0.003994 -0.009429
v -0.003994 -0.003994 -0.009429
v -0.003994 0.003994 -0.009429
v 0.003994 0.003994 -0.009429
v 0.003994 -0.003994 -0.004006
v -0.003994 -0.003994 -0.004006
v -0.003994 0.003994 -0.004006
v 0.003994 0.003994 -0.004006
v 0.009782 -0.009782 0.005166
v -0.009782 -0.009782 0.005166
v -0.009782 0.009782 0.005166
v 0.009782 0.009782 0.005166
v 0.007051 -0.007051 0.005166
v -0.007051 -0.007051 0.005166
v -0.007051 0.007051 0.005166
v 0.007051 0.007051 0.005166
v 0.003413 -0.003413 -0.000124
v -0.003413 -0.003413 -0.000124
v -0.003413 0.003413 -0.000124
v 0.003413 0.003413 -0.000124
vt 0.375000 0.000000
vt 0.625000 0.000000
vt 0.625000 0.250000
vt 0.375000 0.250000
vt 0.625000 0.500000
vt 0.375000 0.500000
vt 0.625000 0.750000
vt 0.375000 0.750000
vt 0.625000 1.000000
vt 0.375000 1.000000
vt 0.125000 0.500000
vt 0.125000 0.750000
vt 0.625000 0.250000
vt 0.625000 0.500000
vt 0.625000 0.750000
vt 0.625000 0.500000
vt 0.625000 0.750000
vt 0.625000 0.000000
vt 0.625000 1.000000
vt 0.625000 0.250000
vt 0.625000 0.000000
vt 0.625000 0.000000
vt 0.625000 0.250000
vt 0.625000 1.000000
vt 0.625000 1.000000
vt 0.625000 0.750000
vt 0.625000 0.750000
vt 0.625000 1.000000
vt 0.625000 0.500000
vt 0.625000 0.500000
vt 0.625000 0.500000
vt 0.625000 0.750000
vt 0.625000 0.250000
vt 0.625000 0.000000
vt 0.625000 0.500000
vt 0.625000 0.750000
vt 0.625000 0.000000
vt 0.625000 0.250000
vt 0.625000 1.000000
vt 0.625000 0.500000
vt 0.625000 0.750000
vt 0.625000 0.000000
vt 0.625000 0.250000
vt 0.625000 1.000000
vt 0.875000 0.500000
vt 0.875000 0.750000
vt 0.625000 0.000000
vt 0.625000 0.250000
vt 0.625000 1.000000
vn 0.0000 -1.0000 0.0000
vn -1.0000 0.0000 0.0000
vn 0.0000 1.0000 0.0000
vn 1.0000 0.0000 0.0000
vn 0.0000 0.0000 -1.0000
vn 0.0000 0.0000 1.0000
vn 0.0000 0.8457 -0.5337
vn 0.0000 -0.8457 -0.5337
vn 0.8457 0.0000 -0.5337
vn -0.8457 0.0000 -0.5337
vn 0.0000 -0.8239 0.5667
vn 0.0000 0.8239 0.5667
vn -0.8239 0.0000 0.5667
vn 0.8239 0.0000 0.5667
usemtl None
s off
f 1/1/1 2/2/1 4/3/1 3/4/1
f 3/4/2 4/3/2 8/5/2 7/6/2
f 7/6/3 8/5/3 6/7/3 5/8/3
f 5/8/4 6/7/4 2/9/4 1/10/4
f 3/11/5 7/6/5 5/8/5 1/12/5
f 8/5/6 4/3/6 10/13/6 11/14/6
f 12/15/3 11/14/3 15/16/3 16/17/3
f 6/7/6 8/5/6 11/14/6 12/15/6
f 4/3/6 2/2/6 9/18/6 10/13/6
f 2/9/6 6/7/6 12/15/6 9/19/6
f 14/20/6 13/21/6 17/22/6 18/23/6
f 10/13/1 9/18/1 13/21/1 14/20/1
f 9/19/4 12/15/4 16/17/4 13/24/4
f 11/14/2 10/13/2 14/20/2 15/16/2
f 17/25/4 20/26/4 24/27/4 21/28/4
f 13/24/6 16/17/6 20/26/6 17/25/6
f 15/16/6 14/20/6 18/23/6 19/29/6
f 16/17/6 15/16/6 19/29/6 20/26/6
f 24/27/7 23/30/7 27/31/7 28/32/7
f 19/29/2 18/23/2 22/33/2 23/30/2
f 20/26/3 19/29/3 23/30/3 24/27/3
f 18/23/1 17/22/1 21/34/1 22/33/1
f 28/32/6 27/31/6 31/35/6 32/36/6
f 22/33/8 21/34/8 25/37/8 26/38/8
f 21/28/9 24/27/9 28/32/9 25/39/9
f 23/30/10 22/33/10 26/38/10 27/31/10
f 32/36/11 31/35/11 35/40/11 36/41/11
f 26/38/6 25/37/6 29/42/6 30/43/6
f 25/39/6 28/32/6 32/36/6 29/44/6
f 27/31/6 26/38/6 30/43/6 31/35/6
f 35/40/6 34/45/6 33/46/6 36/41/6
f 30/43/12 29/42/12 33/47/12 34/48/12
f 29/44/13 32/36/13 36/41/13 33/49/13
f 31/35/14 30/43/14 34/48/14 35/40/14
